<svg width="136" height="164" viewBox="0 0 136 164" fill="none" xmlns="http://www.w3.org/2000/svg">
<mask id="path-1-inside-1_1353_656" fill="white">
<path fill-rule="evenodd" clip-rule="evenodd" d="M37.9705 56.6133C52.8488 30.4949 88.0129 33.1312 99.9129 56.6133C111.813 80.0956 68.9422 127.001 68.9422 127.001C68.9422 127.001 23.0922 82.7318 37.9705 56.6133Z"/>
</mask>
<path d="M37.9705 56.6133L34.9294 54.8809L34.9294 54.8809L37.9705 56.6133ZM99.9129 56.6133L103.035 55.0312L103.035 55.0312L99.9129 56.6133ZM68.9422 127.001L66.5111 129.519L69.0989 132.017L71.5257 129.362L68.9422 127.001ZM37.9705 56.6133L41.0117 58.3457C54.4961 34.6744 86.1393 37.1768 96.7909 58.1954L99.9129 56.6133L103.035 55.0312C89.8865 29.0856 51.2016 26.3155 34.9294 54.8809L37.9705 56.6133ZM99.9129 56.6133L96.7909 58.1954C99.1655 62.8812 98.9859 69.1454 96.7459 76.498C94.5289 83.7751 90.4657 91.5407 85.9281 98.7483C81.4074 105.929 76.5079 112.413 72.7279 117.111C70.8408 119.457 69.2396 121.348 68.1139 122.65C67.5512 123.301 67.1077 123.803 66.8071 124.141C66.6569 124.309 66.5424 124.437 66.4667 124.521C66.4288 124.563 66.4006 124.594 66.3825 124.614C66.3735 124.624 66.3669 124.631 66.3629 124.635C66.3609 124.637 66.3596 124.639 66.3589 124.64C66.3585 124.64 66.3585 124.64 66.3583 124.64C66.3584 124.64 66.3587 124.64 68.9422 127.001C71.5257 129.362 71.5263 129.362 71.5271 129.361C71.5276 129.36 71.5285 129.359 71.5295 129.358C71.5314 129.356 71.5339 129.353 71.5371 129.35C71.5435 129.343 71.5525 129.333 71.564 129.32C71.587 129.295 71.6201 129.258 71.663 129.211C71.7488 129.116 71.8736 128.977 72.0344 128.796C72.356 128.435 72.822 127.907 73.4083 127.229C74.5805 125.874 76.2357 123.918 78.1818 121.499C82.0681 116.669 87.1425 109.958 91.852 102.478C96.5446 95.0237 100.968 86.66 103.442 78.538C105.894 70.4913 106.61 62.0866 103.035 55.0312L99.9129 56.6133ZM68.9422 127.001C71.3733 124.483 71.3737 124.483 71.3739 124.484C71.3737 124.484 71.3738 124.484 71.3735 124.483C71.3728 124.483 71.3715 124.481 71.3695 124.479C71.3655 124.475 71.3587 124.469 71.3492 124.46C71.3303 124.441 71.3007 124.412 71.2607 124.373C71.1807 124.295 71.0594 124.175 70.8999 124.017C70.581 123.699 70.1099 123.225 69.5124 122.61C68.3171 121.379 66.6183 119.583 64.6225 117.346C60.6236 112.863 55.468 106.643 50.7847 99.6534C46.0823 92.635 41.9665 85.0021 39.9017 77.6802C37.8367 70.3578 37.9281 63.759 41.0117 58.3457L37.9705 56.6133L34.9294 54.8809C30.5739 62.5269 30.8171 71.2562 33.1645 79.5801C35.512 87.9044 40.0691 96.2361 44.9693 103.55C49.8887 110.892 55.2658 117.372 59.3987 122.006C61.4689 124.327 63.2359 126.194 64.4899 127.486C65.1171 128.132 65.6165 128.634 65.9619 128.978C66.1347 129.15 66.269 129.282 66.3616 129.373C66.4079 129.419 66.4438 129.454 66.4689 129.478C66.4814 129.49 66.4912 129.5 66.4983 129.506C66.5018 129.51 66.5046 129.513 66.5068 129.515C66.5079 129.516 66.5089 129.517 66.5095 129.517C66.5104 129.518 66.5111 129.519 68.9422 127.001Z" fill="white" mask="url(#path-1-inside-1_1353_656)"/>
<path d="M65.5745 86.9091V86.6364C65.6048 83.7424 65.9078 81.4394 66.4836 79.7273C67.0593 78.0152 67.8775 76.6288 68.9381 75.5682C69.9987 74.5076 71.2715 73.5303 72.7563 72.6364C73.6502 72.0909 74.4533 71.447 75.1654 70.7045C75.8775 69.947 76.4381 69.0758 76.8472 68.0909C77.2715 67.1061 77.4836 66.0152 77.4836 64.8182C77.4836 63.3333 77.1351 62.0455 76.4381 60.9545C75.7412 59.8636 74.8093 59.0227 73.6427 58.4318C72.476 57.8409 71.1805 57.5455 69.7563 57.5455C68.5139 57.5455 67.3169 57.803 66.1654 58.3182C65.0139 58.8333 64.0518 59.6439 63.279 60.75C62.5063 61.8561 62.0593 63.303 61.9381 65.0909H56.2109C56.3321 62.5152 56.9987 60.3106 58.2109 58.4773C59.4381 56.6439 61.0518 55.2424 63.0518 54.2727C65.0669 53.303 67.3018 52.8182 69.7563 52.8182C72.423 52.8182 74.7412 53.3485 76.7109 54.4091C78.6957 55.4697 80.226 56.9242 81.3018 58.7727C82.3927 60.6212 82.9381 62.7273 82.9381 65.0909C82.9381 66.7576 82.6805 68.2652 82.1654 69.6136C81.6654 70.9621 80.9381 72.1667 79.9836 73.2273C79.0442 74.2879 77.9078 75.2273 76.5745 76.0455C75.2412 76.8788 74.173 77.7576 73.3699 78.6818C72.5669 79.5909 71.9836 80.6742 71.6199 81.9318C71.2563 83.1894 71.0593 84.7576 71.029 86.6364V86.9091H65.5745ZM68.4836 100.364C67.3624 100.364 66.4002 99.9621 65.5972 99.1591C64.7942 98.3561 64.3927 97.3939 64.3927 96.2727C64.3927 95.1515 64.7942 94.1894 65.5972 93.3864C66.4002 92.5833 67.3624 92.1818 68.4836 92.1818C69.6048 92.1818 70.5669 92.5833 71.3699 93.3864C72.173 94.1894 72.5745 95.1515 72.5745 96.2727C72.5745 97.0152 72.3851 97.697 72.0063 98.3182C71.6427 98.9394 71.1502 99.4394 70.529 99.8182C69.923 100.182 69.2412 100.364 68.4836 100.364Z" fill="white"/>
</svg>
