<svg width="136" height="164" viewBox="0 0 136 164" fill="none" xmlns="http://www.w3.org/2000/svg">
<path d="M31.7509 71.8123C31.9953 71.8123 32.7535 71.7507 33.8538 71.6729C35.1898 71.5785 37.199 71.5628 37.9769 71.3949C39.2766 71.1142 40.8902 70.3223 41.9299 69.8936C43.1065 69.4085 44.8946 68.0816 45.742 67.5935C47.9642 66.3133 50 64.8158 52.3499 63.8578C53.1785 63.52 53.9146 63.3162 54.5251 63.1667C55.103 63.0251 56.3484 62.6827 57.2439 62.5683C58.048 62.4656 58.6815 62.3075 60.3209 62.1678C61.5389 62.0641 63.1373 62.0603 63.6994 62.0269C63.9743 62.0105 65.5902 61.9744 68.0296 62.0291C70.0994 62.0756 70.8885 62.6459 71.7349 63.0613C72.9273 63.6464 73.4272 64.4798 73.793 65.1724C74.2089 65.9597 74.3577 66.482 74.8159 68.1301C75.084 69.0944 75.1153 69.6128 75.1813 70.1065C75.2488 70.6116 75.287 70.9762 75.3778 71.1472C75.606 71.5774 77.6914 71.2972 80.2675 71.1065C81.4222 71.021 83.4387 71.0376 84.5572 71.0387C86.4725 71.0408 87.9022 71.2318 88.9892 71.2653C89.8329 71.2912 90.4767 71.3035 91.6134 71.3656C92.602 71.4195 94.4267 71.5172 95.6284 71.5877C98.0456 71.7297 99.6544 71.8418 100.778 71.9798C101.987 72.1284 103.49 73.7003 103.871 74.9724C104.147 75.8952 103.937 77.447 103.648 78.3247C102.768 81.0008 99.5567 81.1421 97.5126 81.2939C97.3015 81.3096 96.9865 81.3032 95.1255 81.3544C93.2644 81.4057 89.8666 81.5082 87.9134 81.5364C85.0151 81.5781 82.3503 81.0866 82.0485 81.0797C81.5574 81.0685 85.3684 82.0748 86.158 83.4668C86.6767 84.3812 86.9024 85.0157 86.8884 86.326C86.8684 88.2097 84.9258 89.4792 83.5092 90.0728C81.2802 91.0068 80.7193 90.8535 80.3523 90.9041C79.9569 90.9585 81.0956 91.5128 81.4548 91.8862C82.9781 93.4696 83.019 96.3245 82.0265 98.1637C81.1957 99.7034 79.8519 100.243 79.0435 100.627C78.2224 101.017 76.8965 100.904 75.6717 100.971C75.2432 100.995 75.2221 101.172 75.2587 101.328C75.5885 102.727 76.1015 104.837 75.3107 106.138C74.1284 108.084 71.2039 108.677 69.2821 108.744C68.2289 108.781 67.0956 108.792 65.9441 108.748C64.572 108.695 63.1745 108.438 62.0226 108.451C60.4693 108.468 58.8635 108.849 57.2057 108.975C55.7715 109.083 54.2665 108.828 53.1489 108.504C52.2972 108.257 51.8705 107.868 50.9897 107.26C48.8394 105.777 47.2245 104.684 46.9279 104.445C46.4454 104.056 46.0032 103.525 45.4442 103.114C44.0347 102.079 43.2571 101.939 42.531 101.598C42.2516 101.466 41.7266 101.232 41.066 100.894C40.7113 100.713 39.393 100.288 37.4995 99.6915C36.7086 99.4423 35.8591 99.3166 34.6915 99.1242C34.1155 99.0588 33.2575 99.0483 32.0812 99.0525C31.6244 99.0672 31.4518 99.1075 31 99.1267" stroke="white" stroke-width="3.5" stroke-linecap="round"/>
<path d="M84.6862 81.9579C84.5935 81.8946 84.316 81.7084 84.0693 81.4916C83.7853 81.2888 83.4358 81.2092 82.4222 81.1174C81.6594 81.0719 80.3924 81.0283 79.0869 80.9834" stroke="white" stroke-width="3.5" stroke-linecap="round"/>
<path d="M80.2847 90.8782C80.217 90.8728 79.642 90.6981 79.1931 90.5795C79.1109 90.5718 79.0132 90.57 78.7177 90.5584C78.4222 90.5469 77.9318 90.5255 77.4126 90.4941" stroke="white" stroke-width="3.5" stroke-linecap="round"/>
<path d="M75.1371 101.097C75.0721 101.04 74.8342 100.873 74.61 100.777C74.2165 100.609 73.9724 100.609 73.7142 100.542C73.283 100.462 72.9595 100.404 71.9264 100.394C71.6839 100.396 71.5551 100.401 71.4224 100.407" stroke="white" stroke-width="3.5" stroke-linecap="round"/>
</svg>
