<svg width="136" height="164" viewBox="0 0 136 164" fill="none" xmlns="http://www.w3.org/2000/svg">
<path d="M32.9686 106.115C32.8296 104.91 32.4775 98.8762 32.3063 93.4381C32.2405 91.3479 31.9975 89.7156 32 81.8314C32.0017 76.6168 33.1363 74.9549 34.2025 71.4344C35.0722 68.5626 36.392 66.519 37.4862 64.961C38.6021 63.3722 40.0307 61.7909 41.5868 60.6397C43.0677 59.544 44.645 58.8283 47.6202 57.0378C50.2464 55.4573 52.7212 55.0116 59.1815 53.4102C60.9708 52.9667 65.2111 52.9523 71.8148 53.0474C76.365 53.1129 80.0426 53.9144 83.5616 54.6445C88.3025 55.6282 90.3353 55.8084 91.9142 56.1903C94.0051 56.6961 96.7795 57.4402 98.8658 58.1376C100.457 58.6693 102.014 59.9341 102.997 61.2406C104.303 62.9761 103.945 65.9853 103.425 67.9229C103.033 69.3832 100.304 69.312 97.1893 69.8744C92.5747 70.7075 89.9061 69.5961 86.0246 68.7859C84.1091 68.386 82.3656 68.0808 80.6689 67.7578C80.1554 67.66 79.459 67.6724 78.8856 67.9544C77.6963 68.5393 77.3226 69.7978 77.1163 70.6982C76.8293 71.9501 76.9773 72.8882 77.1163 76.5C77.1633 77.7224 77.4783 79.8879 78.0936 79.7789C80.8832 79.2849 82.6141 78.336 84.5424 77.2307C87.304 75.6477 90.8417 75.4764 97.1358 75.5058C100.27 75.5205 101.658 77.3778 102.878 78.7773C104.323 80.4342 104.133 84.1368 103.629 86.4173C103.232 88.2124 100.414 88.321 98.6894 88.9986C97.5375 89.4514 94.0531 89.3825 88.8486 89.7328C84.2392 90.0431 81.2425 92.0043 79.137 93.1789C74.4769 95.7785 71.3135 99.773 68.4643 102.896C65.94 107.661 63.6175 112.778 63.1385 113.645C62.9029 114.074 62.6827 114.482 62.3405 114.933" stroke="white" stroke-width="3.5" stroke-linecap="round"/>
<path d="M73.7981 60.6519C74.0477 61.0741 74.9092 62.4635 75.4428 64.0697C75.9348 65.5509 76.2698 66.9566 76.5694 68.9352C77.9532 78.0759 77.0398 84.7801 76.1791 86.2406C75.4206 87.5278 73.2041 87.329 70.1312 87.2916C69.4626 87.2835 69.1544 86.9752 68.8972 86.6889C67.8419 85.5141 67.6374 83.7838 67.3334 80.0174C66.4039 68.5012 66.891 66.8624 66.2624 65.3757C65.3843 63.9748 64.7517 63.0039 64.2861 62.4644C64.029 62.2267 63.7296 62.0624 63 61.6668" stroke="white" stroke-width="3.5" stroke-linecap="round"/>
<path d="M67.7387 85.2522C67.3279 85.5491 66.0599 86.6064 64.914 87.4766C63.6463 88.4392 61.9483 89.1621 59.6675 89.1595C57.9142 89.1576 57.1636 86.3576 56.5008 84.375C55.9117 82.613 56.0012 77.3267 55.6307 72.2016C54.8693 69.9123 53.9107 67.9964 53.0912 66.7198C52.8441 66.4148 52.5394 66.1097 52.2256 65.7954" stroke="white" stroke-width="3.5" stroke-linecap="round"/>
<path d="M56.3211 86.8729C56.1638 87.2648 55.2237 88.5301 54.0759 89.4552C52.9094 90.3953 51.4537 90.2537 50.4671 90.139C48.5482 89.9159 47.829 86.2935 47.3452 83.938C46.8855 81.7004 46.1978 78.8424 45.3825 77.2529C44.8976 76.5045 44.4657 75.7901 44.0535 75.1241C43.8166 74.7976 43.5233 74.4944 43.0503 74.0283" stroke="white" stroke-width="3.5" stroke-linecap="round"/>
</svg>
