<svg width="136" height="164" viewBox="0 0 136 164" fill="none" xmlns="http://www.w3.org/2000/svg">
<path d="M61.4045 126.143C56.64 126.143 52.4065 125.15 48.7038 123.162C45.0284 121.175 42.1289 118.493 40.0053 115.117C37.909 111.714 36.8608 107.889 36.8608 103.642C36.8608 100.81 37.4189 98.2238 38.5352 95.8825C39.6514 93.5138 41.3394 91.1861 43.5991 88.8991C45.886 86.585 48.7719 84.1347 52.2567 81.5483L64.4673 72.4414C67.8977 69.8822 70.4025 67.4864 71.9815 65.2539C73.5878 62.9942 74.391 60.4078 74.391 57.4947C74.391 54.0098 73.1931 51.0286 70.7972 48.5511C68.4286 46.0736 65.4066 44.8349 61.7312 44.8349C59.2264 44.8349 56.9259 45.4883 54.8295 46.7951C52.7604 48.0747 51.0997 49.7491 49.8473 51.8182C48.6222 53.8873 48.0096 56.1062 48.0096 58.4748C48.0096 60.3261 48.4452 62.1638 49.3164 63.9879C50.2148 65.7848 51.4808 67.7723 53.1143 69.9503C54.7751 72.1011 56.7625 74.6058 59.0767 77.4645L97.1378 125H91.0938L56.1364 81.4258C53.4411 78.1043 51.1133 75.1912 49.1531 72.6864C47.1928 70.1817 45.6818 67.7995 44.62 65.5398C43.5582 63.2801 43.0273 60.8978 43.0273 58.3931C43.0273 55.0444 43.8441 52.0088 45.4776 49.2862C47.1384 46.5365 49.3709 44.3584 52.1751 42.7521C54.9793 41.1458 58.1374 40.3427 61.6495 40.3427C65.1344 40.3427 68.2108 41.105 70.8789 42.6296C73.547 44.127 75.6297 46.1825 77.1271 48.7962C78.6245 51.3826 79.3732 54.2821 79.3732 57.4947C79.3732 61.0612 78.4203 64.2874 76.5146 67.1733C74.636 70.0592 71.7093 73.0404 67.7344 76.1168L54.0128 86.3263C49.4389 89.8112 46.2672 92.9149 44.4975 95.6374C42.7551 98.36 41.8839 101.028 41.8839 103.642C41.8839 106.909 42.7279 109.89 44.4158 112.585C46.1038 115.281 48.4044 117.445 51.3175 119.078C54.2578 120.712 57.5929 121.542 61.3228 121.57C65.0799 121.515 68.5511 120.78 71.7365 119.364C74.9219 117.949 77.7261 115.975 80.1491 113.443C82.5994 110.884 84.5869 107.848 86.1115 104.336C87.6634 100.797 88.6707 96.8626 89.1335 92.5337L93.9933 92.7788C93.721 96.1819 93.122 99.2448 92.1964 101.967C91.2707 104.663 90.1953 107.045 88.9702 109.114C87.7723 111.183 86.6152 112.939 85.4989 114.382C85.1722 114.818 84.8591 115.24 84.5597 115.648C84.2602 116.056 83.9335 116.451 83.5795 116.832C80.8298 119.8 77.4538 122.1 73.4517 123.734C69.4768 125.34 65.4611 126.143 61.4045 126.143Z" fill="white"/>
</svg>
