<svg width="136" height="164" viewBox="0 0 136 164" fill="none" xmlns="http://www.w3.org/2000/svg">
<path d="M39.0236 98.0926C40.3241 98.3177 42.4083 98.0926 42.4083 98.0926C45.1093 102.539 49.1164 112.771 52.9006 115.925C70.214 128.925 67.5927 127.09 84.8222 115.925C89.168 112.82 91.0898 102.604 93.8567 98.0926C93.8567 98.0926 95.9423 98.3248 97.2415 98.0926C103.488 96.9765 106.84 87.1647 101.98 83.2634C100.441 82.0276 99.5031 80.83 97.2415 81.3291C98.6668 73.2717 100.154 68.2619 97.2415 60.6971C93.8301 51.8361 88.7703 46.3141 79.6408 42.6443C70.6289 39.0217 64.3751 39.0134 54.5935 43.2889C45.3403 48.4907 39.8008 53.8997 37.6697 63.9209C36.3535 70.1099 37.327 73.7303 39.0234 80.0392L39.0236 80.0396C36.2117 79.6075 35.1712 81.4126 33.6079 83.2634C29.5727 88.0409 32.6895 96.9966 39.0236 98.0926Z" stroke="white" stroke-width="3.5" stroke-linecap="round"/>
<path d="M77.8563 82.2946C77.9896 81.9198 78.6188 80.7766 81.2039 78.1063C82.5191 76.7477 84.0553 76.2278 85.2229 75.6909C85.7492 75.5912 86.2061 75.6061 86.7338 75.6978C87.0467 75.76 87.4512 75.8539 88.2403 76.0898" stroke="white" stroke-width="3.5" stroke-linecap="round"/>
<path d="M60.9052 82.1631C60.2939 81.1789 58.9075 78.9811 57.521 77.8562C55.9314 76.5667 52.9825 76.0264 50.9525 75.9977C50.2005 76.0522 49.1576 76.1662 48.5282 76.2638C47.8988 76.3614 47.7146 76.439 47.3421 76.6794" stroke="white" stroke-width="3.5" stroke-linecap="round"/>
<path d="M60.3346 107.348C60.6721 107.15 61.192 104.625 65.9799 103.215C71.1251 101.7 78.4439 103.409 79.6318 108.521" stroke="white" stroke-width="3.5" stroke-linecap="round"/>
</svg>
