<svg width="136" height="164" viewBox="0 0 136 164" fill="none" xmlns="http://www.w3.org/2000/svg">
<path d="M39.1478 99.8047C40.4347 100.036 42.497 99.8047 42.497 99.8047C45.1696 104.382 49.1346 114.916 52.8789 118.162C70.0103 131.546 67.4166 129.657 84.465 118.162C88.7651 114.966 90.6667 104.449 93.4045 99.8047C93.4045 99.8047 95.4682 100.044 96.7537 99.8047C102.935 98.6556 106.251 88.5546 101.443 84.5384C99.9193 83.2661 98.9916 82.0333 96.7537 82.5471C98.1641 74.2522 99.6355 69.0948 96.7537 61.3071C93.3781 52.185 88.3715 46.5002 79.338 42.7222C70.4209 38.9929 64.2328 38.9843 54.554 43.3858C45.3981 48.7409 39.9169 54.3094 37.8081 64.6259C36.5058 70.9973 37.4691 74.7243 39.1477 81.2192L39.1478 81.2196C36.3655 80.7748 35.336 82.633 33.7891 84.5384C29.7963 89.4566 32.8803 98.6764 39.1478 99.8047Z" stroke="white" stroke-width="3.5" stroke-linecap="round"/>
<path d="M77.5724 83.541C77.7043 83.1552 78.3269 81.9783 80.8847 79.2293C82.1862 77.8306 83.7062 77.2954 84.8615 76.7427C85.3823 76.6401 85.8344 76.6554 86.3566 76.7498C86.6662 76.8138 87.0663 76.9105 87.8472 77.1533" stroke="white" stroke-width="3.5" stroke-linecap="round"/>
<path d="M60.7993 83.4055C60.1944 82.3923 58.8226 80.1298 57.4506 78.9717C55.8778 77.6442 52.9599 77.088 50.9512 77.0585C50.2071 77.1145 49.1752 77.2319 48.5524 77.3324C47.9297 77.4329 47.7473 77.5128 47.3788 77.7602" stroke="white" stroke-width="3.5" stroke-linecap="round"/>
<path d="M60.2348 109.333C60.5688 109.129 61.0832 106.53 65.8208 105.079C70.9119 103.519 78.1537 105.278 79.3291 110.541" stroke="white" stroke-width="3.5" stroke-linecap="round"/>
</svg>
