<svg width="136" height="164" viewBox="0 0 136 164" fill="none" xmlns="http://www.w3.org/2000/svg">
<path d="M106 84.0558H101.02C90.037 84.0558 78.8741 86.7766 70.6262 94.0289C65.0893 98.8975 61.4174 103.865 58.6718 110.804C57.5646 113.602 56.0347 117.112 53.0274 116.997C50.1522 116.888 48.3803 113.767 47.8542 110.938C47.247 107.674 47.7108 104.956 49.0816 100.982C54.9594 88.3022 59.3973 86.2178 45.4856 87.5593L43.1109 87.7884C37.6884 88.3113 30.6746 85.6468 32.5334 80.5261C32.6286 80.2637 32.7358 79.9937 32.8543 79.7142C32.9199 79.5592 32.9994 79.4092 33.0883 79.2663L33.3615 78.827C33.9721 77.8455 33.9064 76.5875 33.1968 75.6749C33.0362 75.4685 32.904 75.2398 32.8129 74.9946C32.0069 72.8253 32.0482 71.5483 32.7712 69.4667C32.8877 69.1314 33.0873 68.831 33.3429 68.5846C34.3881 67.5765 34.2943 65.8753 33.1446 64.9882L33.1067 64.9589C33.0055 64.8809 32.909 64.7958 32.827 64.6978C31.5256 63.1412 32.1406 60.8754 33.0195 59.1674C33.2705 58.6798 33.6816 58.2986 34.1619 58.0338C35.6167 57.2316 36.1979 55.4371 35.4897 53.9343L35.0585 53.0193C34.6197 52.0884 34.4928 51.0123 34.8846 50.0607C35.3012 49.049 35.8465 48.3155 36.874 47.7304C37.98 47.1006 39.2982 47.0039 40.5709 47.0144C53.7402 47.1228 61.917 47.4298 75.0343 49.4281C76.384 49.6337 77.9106 50.0291 79.182 50.5266C84.5698 52.6348 89.7857 55.2346 95.5713 55.2346H106" stroke="white" stroke-width="3.5"/>
</svg>
