<svg width="136" height="164" viewBox="0 0 136 164" fill="none" xmlns="http://www.w3.org/2000/svg">
<path d="M49.1567 52.4712L47.521 51.8491L47.521 51.8492L49.1567 52.4712ZM78.2593 42.0854L79.1143 40.5585L79.1143 40.5585L78.2593 42.0854ZM85.1948 77.5044L83.6332 76.7146L83.6331 76.7147L85.1948 77.5044ZM85.8589 80.3696L84.7925 81.7572L84.7926 81.7572L85.8589 80.3696ZM92.5288 91.9644L90.9641 91.1806L90.8094 91.4896L90.7837 91.8342L92.5288 91.9644ZM92.3862 92.6089L94.029 93.212L94.029 93.212L92.3862 92.6089ZM82.3862 110.781L83.5065 112.125L83.5065 112.125L82.3862 110.781ZM81.4604 112.64L79.7104 112.64V112.64H81.4604ZM81.0161 120.699L79.6255 119.636L79.6255 119.636L81.0161 120.699ZM74.4761 124.721L74.6098 126.466L74.7166 126.458L74.8215 126.437L74.4761 124.721ZM63.272 124.721L62.9791 126.447L63.0427 126.457L63.1069 126.463L63.272 124.721ZM56.6724 120.573L55.1347 121.408L55.1348 121.408L56.6724 120.573ZM55.5513 110.789L56.683 109.454L56.6829 109.454L55.5513 110.789ZM44.7212 92.7085L43.077 93.3077L43.077 93.3078L44.7212 92.7085ZM44.5874 92.1069L46.3322 91.9718L46.2995 91.5496L46.0774 91.189L44.5874 92.1069ZM51.7456 80.5737L50.6904 79.1776L50.6904 79.1776L51.7456 80.5737ZM52.228 77.3794L53.66 76.3734L53.6599 76.3732L52.228 77.3794ZM68.3452 85.8442V84.0942H68.3452L68.3452 85.8442ZM52.3394 90.5181H50.5894V90.5183L52.3394 90.5181ZM68.3452 95.1919L68.3452 96.9419H68.3452V95.1919ZM84.3521 90.5181L86.1021 90.5183V90.5181H84.3521ZM49.1567 52.4712L50.7925 53.0932C53.0733 47.0956 57.9789 43.7914 63.2948 42.4516C68.6824 41.0937 74.2178 41.828 77.4043 43.6124L78.2593 42.0854L79.1143 40.5585C74.9978 38.2535 68.5122 37.5272 62.4394 39.0577C56.2949 40.6064 50.3007 44.5398 47.521 51.8491L49.1567 52.4712ZM78.2593 42.0854L77.4043 43.6124C85.1404 47.9444 87.8769 53.5913 88.1929 59.3379C88.5176 65.2413 86.293 71.4554 83.6332 76.7146L85.1948 77.5044L86.7565 78.2942C89.5117 72.8463 92.0628 65.967 91.6876 59.1457C91.3038 52.1676 87.865 45.4587 79.1143 40.5585L78.2593 42.0854ZM85.1948 77.5044L83.6331 76.7147C82.7472 78.4669 83.2632 80.5818 84.7925 81.7572L85.8589 80.3696L86.9253 78.9821C86.702 78.8105 86.6451 78.5144 86.7565 78.2941L85.1948 77.5044ZM85.8589 80.3696L84.7926 81.7572C87.4882 83.8288 89.3705 85.7489 90.3881 87.4338C91.3888 89.0907 91.4224 90.2656 90.9641 91.1806L92.5288 91.9644L94.0935 92.7481C95.2813 90.3766 94.7465 87.8802 93.3841 85.6243C92.0385 83.3965 89.7627 81.1625 86.9252 78.982L85.8589 80.3696ZM92.5288 91.9644L90.7837 91.8342C90.7807 91.8739 90.7708 91.9313 90.7434 92.0058L92.3862 92.6089L94.029 93.212C94.1641 92.8441 94.246 92.4688 94.274 92.0945L92.5288 91.9644ZM92.3862 92.6089L90.7434 92.0058C89.5601 95.2293 88.2246 98.7433 86.6369 101.91C85.0366 105.102 83.2589 107.776 81.266 109.436L82.3862 110.781L83.5065 112.125C86.0548 110.002 88.0933 106.814 89.7657 103.479C91.4508 100.118 92.8447 96.4379 94.029 93.212L92.3862 92.6089ZM82.3862 110.781L81.266 109.436C80.3807 110.174 79.7106 111.308 79.7104 112.64L81.4604 112.64L83.2104 112.64C83.2105 112.52 83.2758 112.317 83.5065 112.125L82.3862 110.781ZM81.4604 112.64H79.7104V119.377H81.4604H83.2104V112.64H81.4604ZM81.4604 119.377H79.7104C79.7104 119.477 79.6779 119.568 79.6255 119.636L81.0161 120.699L82.4067 121.761C82.9333 121.072 83.2104 120.232 83.2104 119.377H81.4604ZM81.0161 120.699L79.6255 119.636C78.8593 120.639 78.3284 121.253 77.6182 121.737C76.9165 122.215 75.9156 122.646 74.1306 123.006L74.4761 124.721L74.8215 126.437C76.8791 126.022 78.3704 125.46 79.5892 124.629C80.7994 123.805 81.6172 122.794 82.4067 121.761L81.0161 120.699ZM74.4761 124.721L74.3424 122.976C69.8026 123.324 67.4284 123.357 63.437 122.979L63.272 124.721L63.1069 126.463C67.3476 126.865 69.9292 126.825 74.6098 126.466L74.4761 124.721ZM63.272 124.721L63.5648 122.996C61.9091 122.715 60.9135 122.427 60.1707 121.989C59.4832 121.583 58.8767 120.964 58.21 119.737L56.6724 120.573L55.1348 121.408C56.0099 123.019 57.0105 124.187 58.391 125.002C59.7161 125.785 61.2493 126.153 62.9791 126.447L63.272 124.721ZM56.6724 120.573L58.21 119.737C58.2001 119.719 58.1821 119.672 58.1821 119.595H56.4321H54.6821C54.6821 120.198 54.8197 120.829 55.1347 121.408L56.6724 120.573ZM56.4321 119.595H58.1821V112.602H56.4321H54.6821V119.595H56.4321ZM56.4321 112.602H58.1821C58.1821 111.316 57.5583 110.196 56.683 109.454L55.5513 110.789L54.4195 112.123C54.6193 112.293 54.6821 112.479 54.6821 112.602H56.4321ZM55.5513 110.789L56.6829 109.454C54.649 107.73 52.648 105.018 50.8427 101.859C49.0501 98.7228 47.5111 95.2521 46.3654 92.1092L44.7212 92.7085L43.077 93.3078C44.2783 96.6033 45.8968 100.259 47.8039 103.596C49.6982 106.911 51.9387 110.02 54.4197 112.123L55.5513 110.789ZM44.7212 92.7085L46.3654 92.1093C46.3413 92.0431 46.3342 91.9974 46.3322 91.9718L44.5874 92.1069L42.8426 92.2421C42.8704 92.6011 42.9497 92.9584 43.077 93.3077L44.7212 92.7085ZM44.5874 92.1069L46.0774 91.189C45.8004 90.7394 45.7125 90.3151 45.7637 89.8516C45.819 89.3512 46.0496 88.7096 46.5782 87.9027C47.6551 86.2588 49.719 84.2991 52.8008 81.9698L51.7456 80.5737L50.6904 79.1776C47.5425 81.5569 45.0726 83.814 43.6505 85.9847C42.9296 87.0852 42.4193 88.2503 42.2849 89.4672C42.1463 90.7211 42.4197 91.9247 43.0974 93.0248L44.5874 92.1069ZM51.7456 80.5737L52.8008 81.9698C54.5682 80.634 54.9041 78.1443 53.66 76.3734L52.228 77.3794L50.7961 78.3854C50.9858 78.6554 50.9129 79.0095 50.6904 79.1776L51.7456 80.5737ZM52.228 77.3794L53.6599 76.3732C51.2464 72.9386 49.66 69.4741 49.0965 65.7362C48.5342 62.006 48.9719 57.8807 50.7925 53.0932L49.1567 52.4712L47.521 51.8492C45.5217 57.1069 44.9699 61.8421 45.6356 66.258C46.3001 70.6661 48.1593 74.6331 50.7962 78.3855L52.228 77.3794ZM68.3452 85.8442L68.3452 84.0942C63.8075 84.0943 59.6331 84.6292 56.5368 85.5334C55.0002 85.982 53.6294 86.55 52.6029 87.2587C51.6303 87.9302 50.5894 89.0025 50.5894 90.5181H52.3394H54.0894C54.0894 90.743 53.9442 90.5858 54.5914 90.139C55.1848 89.7293 56.1579 89.2902 57.5179 88.893C60.2145 88.1056 64.0431 87.5943 68.3452 87.5942L68.3452 85.8442ZM52.3394 90.5181L50.5894 90.5183C50.5895 92.0338 51.6305 93.106 52.6031 93.7774C53.6295 94.486 55.0004 95.0541 56.537 95.5028C59.6333 96.4069 63.8076 96.9419 68.3452 96.9419L68.3452 95.1919L68.3452 93.4419C64.0432 93.4419 60.2147 92.9305 57.518 92.1431C56.1581 91.746 55.185 91.3068 54.5915 90.8971C53.9442 90.4503 54.0893 90.293 54.0894 90.5179L52.3394 90.5181ZM68.3452 95.1919V96.9419C72.8829 96.9419 77.0575 96.4069 80.154 95.5028C81.6906 95.0541 83.0616 94.4861 84.0881 93.7775C85.0608 93.1061 86.1019 92.0339 86.1021 90.5183L84.3521 90.5181L82.6021 90.5179C82.6021 90.2929 82.7472 90.4502 82.0998 90.8971C81.5063 91.3068 80.533 91.746 79.173 92.1431C76.4761 92.9305 72.6473 93.4419 68.3452 93.4419V95.1919ZM84.3521 90.5181H86.1021C86.1021 89.0024 85.061 87.9301 84.0883 87.2586C83.0618 86.55 81.6908 85.982 80.1541 85.5333C77.0576 84.6292 72.883 84.0942 68.3452 84.0942V85.8442V87.5942C72.6474 87.5942 76.4762 88.1056 79.1731 88.893C80.5332 89.2901 81.5064 89.7293 82.0999 90.139C82.7473 90.5858 82.6021 90.7431 82.6021 90.5181H84.3521Z" fill="white"/>
</svg>
