<svg width="136" height="164" viewBox="0 0 136 164" fill="none" xmlns="http://www.w3.org/2000/svg">
<path d="M65.9128 123.039C66.6229 123.191 68.3997 123.238 69.1266 123.238C69.8534 123.238 74.8062 121.947 75.3142 119.355C75.7381 117.193 76.1792 115.896 76.4913 115.528C77.1043 114.803 78.3398 114.316 78.8033 113.402C78.8925 113.226 78.9306 113.031 78.9496 111.901C78.9686 110.771 78.9686 108.768 79.2674 105.855C79.5662 102.942 80.0671 99.2166 80.5826 96.914C81.393 93.2943 82.3798 89.6305 83.8118 86.2019C84.2698 85.1052 85.2963 83.3137 87.0296 81.0089C98.3182 65.998 89.9235 43.5362 71.2757 41.135C69.8261 40.9483 68.7141 40.9417 66.4858 41.2012C48.7841 43.263 36.1556 62.5934 47.0544 79.5061C48.4174 81.6213 49.355 82.9987 49.6335 83.6342C52.0104 89.0561 54.5921 94.2885 55.1594 100.261C55.2587 101.306 55.4657 102.193 55.6234 104.533C55.721 105.98 55.8053 108.463 55.8945 109.789L55.8957 109.807C55.9955 111.29 56.0436 112.005 56.6335 112.78C57.0501 113.327 57.6198 113.61 58.5914 114.15C58.9593 114.354 59.2345 114.896 59.4252 115.641C59.7457 116.892 60.2646 119.47 60.9851 120.266C61.4641 120.795 62.0296 121.508 63.0209 122.053C63.6806 122.416 64.9822 122.84 65.9128 123.039Z" stroke="white" stroke-width="3.5" stroke-linecap="round"/>
<path d="M56.7695 100.713L79.7695 100.713" stroke="white" stroke-width="3.5" stroke-linecap="round"/>
<path d="M56.3242 109.973H77.3344" stroke="white" stroke-width="3.5" stroke-linecap="round"/>
<path d="M56.7695 105.213H77.7797" stroke="white" stroke-width="3.5" stroke-linecap="round"/>
</svg>
