<svg width="136" height="164" viewBox="0 0 136 164" fill="none" xmlns="http://www.w3.org/2000/svg">
<mask id="path-1-inside-1_1353_875" fill="white">
<rect x="37" y="97.5098" width="22.6667" height="22.1459" rx="0.795699"/>
</mask>
<rect x="37" y="97.5098" width="22.6667" height="22.1459" rx="0.795699" stroke="white" stroke-width="7" mask="url(#path-1-inside-1_1353_875)"/>
<mask id="path-2-inside-2_1353_875" fill="white">
<rect x="37" y="71.7549" width="22.6667" height="22.1459" rx="0.795699"/>
</mask>
<rect x="37" y="71.7549" width="22.6667" height="22.1459" rx="0.795699" stroke="white" stroke-width="7" mask="url(#path-2-inside-2_1353_875)"/>
<mask id="path-3-inside-3_1353_875" fill="white">
<rect x="37" y="46" width="22.6667" height="22.1459" rx="0.795699"/>
</mask>
<rect x="37" y="46" width="22.6667" height="22.1459" rx="0.795699" stroke="white" stroke-width="7" mask="url(#path-3-inside-3_1353_875)"/>
<path d="M95.7998 43.5L63.7998 43.5" stroke="white" stroke-width="3.5" stroke-linecap="round"/>
<path d="M61.3292 42.6558C60.7107 43.0487 60.7107 43.9513 61.3292 44.3442L65.9639 47.2876C66.6297 47.7104 67.5 47.2321 67.5 46.4434V40.5566C67.5 39.7679 66.6297 39.2896 65.9639 39.7124L61.3292 42.6558Z" fill="white"/>
</svg>
