<svg width="136" height="164" viewBox="0 0 136 164" fill="none" xmlns="http://www.w3.org/2000/svg">
<path d="M39.1478 98.0926C40.4347 98.3177 42.497 98.0926 42.497 98.0926C45.1696 102.539 49.1346 112.771 52.8789 115.925C70.0103 128.925 67.4166 127.09 84.465 115.925C88.7651 112.82 90.6667 102.604 93.4045 98.0926C93.4045 98.0926 95.4682 98.3248 96.7537 98.0926C102.935 96.9765 106.251 87.1647 101.443 83.2634C99.9193 82.0276 98.9916 80.83 96.7537 81.3291C98.1641 73.2717 99.6355 68.2619 96.7537 60.6971C93.3781 51.8361 88.3715 46.3141 79.338 42.6443C70.4209 39.0217 64.2328 39.0134 54.554 43.2889C45.3981 48.4907 39.9169 53.8997 37.8081 63.9209C36.5058 70.1099 37.4691 73.7303 39.1477 80.0392L39.1478 80.0396C36.3655 79.6075 35.336 81.4126 33.7891 83.2634C29.7963 88.0409 32.8803 96.9966 39.1478 98.0926Z" stroke="white" stroke-width="3.5" stroke-linecap="round"/>
<path d="M76.8822 77.5862C77.2275 77.456 78.3974 77.2268 81.7144 77.5339C83.4019 77.6902 84.5887 78.53 85.5949 79.0812C85.9438 79.4172 86.1722 79.7715 86.3811 80.2267C86.4993 80.5013 86.642 80.8647 86.882 81.6061" stroke="white" stroke-width="3.5" stroke-linecap="round"/>
<path d="M61.3729 77.2072C60.2438 76.874 57.707 76.1435 55.9129 76.2072C53.856 76.2802 51.3224 77.7865 49.816 79.0774C49.3029 79.6038 48.6182 80.3623 48.2248 80.8414C47.8315 81.3204 47.7503 81.497 47.644 81.9156" stroke="white" stroke-width="3.5" stroke-linecap="round"/>
<ellipse cx="67" cy="110.91" rx="2" ry="1.94275" fill="white"/>
</svg>
