<svg width="136" height="164" viewBox="0 0 136 164" fill="none" xmlns="http://www.w3.org/2000/svg">
<path d="M75.8369 87.7172L102.419 40L105.5 41.5L78.5 89C84.7352 94.5339 81.6718 104.807 81.6718 104.807L70.9982 125.972C70.9982 125.972 63.6164 126.372 58.7591 124.132L64.8786 116.376C64.8786 116.376 59.6662 122.31 55.0589 122.423C51.0337 122.521 48.511 120.657 45.8084 118.216L52.4972 112.037L43.9583 116.376C43.9583 116.376 34.6458 111.29 33 106.648C47.4093 102.925 55.0589 95.079 62.0323 90.6094C69.0058 86.1397 70.2463 87.5831 75.8369 87.7172Z" stroke="white" stroke-width="3.5"/>
</svg>
