<svg width="136" height="164" viewBox="0 0 136 164" fill="none" xmlns="http://www.w3.org/2000/svg">
<path d="M68.6171 46V56.0559M68.6171 118V107.542M68.6171 107.542L75.2 113.173M68.6171 107.542L61.2114 113.173M68.6171 107.542V81.7989M68.6171 56.0559L73.9657 51.2291M68.6171 56.0559L62.4457 51.2291M68.6171 56.0559V81.7989M68.6171 81.7989L50.1029 64.2822M68.6171 81.7989H43.1086M68.6171 81.7989L50.1029 99.8994M68.6171 81.7989L85.8971 64.905M68.6171 81.7989H94.9486M68.6171 81.7989L86.3086 99.6529M43.1086 57.6648L50.1029 64.2822M50.1029 64.2822V56.0559M50.1029 64.2822H40.64M32 81.7989H43.1086M43.1086 81.7989L36.9371 75.7654M43.1086 81.7989L36.1143 88.6369M43.1086 106.737L50.1029 99.8994M50.1029 99.8994V108.749M50.1029 99.8994H40.64M50.1029 99.8994L85.8971 64.905M93.3029 57.6648L85.8971 64.905M85.8971 64.905V55.6536M85.8971 64.905H94.9486M104 81.7989H94.9486M94.9486 81.7989L100.709 76.1676M94.9486 81.7989L100.297 88.6369M94.1257 107.542L86.3086 99.6529M86.3086 99.6529H95.36M86.3086 99.6529V108.749" stroke="white" stroke-width="3.5" stroke-linecap="round"/>
</svg>
