<svg width="136" height="164" viewBox="0 0 136 164" fill="none" xmlns="http://www.w3.org/2000/svg">
<path d="M39.0236 98.0926C40.3241 98.3177 42.4083 98.0926 42.4083 98.0926C45.1093 102.539 49.1164 112.771 52.9006 115.925C70.214 128.925 67.5927 127.09 84.8222 115.925C89.168 112.82 91.0898 102.604 93.8567 98.0926C93.8567 98.0926 95.9423 98.3248 97.2415 98.0926C103.488 96.9765 106.84 87.1647 101.98 83.2634C100.441 82.0276 99.5031 80.83 97.2415 81.3291C98.6668 73.2717 100.154 68.2619 97.2415 60.6971C93.8301 51.8361 88.7703 46.3141 79.6408 42.6443C70.6289 39.0217 64.3751 39.0134 54.5935 43.2889C45.3403 48.4907 39.8008 53.8997 37.6697 63.9209C36.3535 70.1099 37.327 73.7303 39.0234 80.0392L39.0236 80.0396C36.2117 79.6075 35.1712 81.4126 33.6079 83.2634C29.5727 88.0409 32.6895 96.9966 39.0236 98.0926Z" stroke="white" stroke-width="3.5" stroke-linecap="round"/>
<path d="M77.918 76.2124C78.2915 76.1875 79.4914 76.3059 82.5977 77.5553C84.1782 78.191 85.0642 79.3352 85.8652 80.1515C86.0981 80.573 86.2091 80.9772 86.2703 81.4721C86.2995 81.7684 86.3251 82.1565 86.3277 82.9337" stroke="white" stroke-width="3.5" stroke-linecap="round"/>
<path d="M60.5011 75.1122C59.3095 75.1568 56.6382 75.2741 54.9469 75.9054C53.0078 76.6291 51.1023 78.8587 50.104 80.5579C49.7935 81.2185 49.3984 82.1531 49.1861 82.7309C48.9738 83.3087 48.9565 83.5013 48.9977 83.9307" stroke="white" stroke-width="3.5" stroke-linecap="round"/>
<path d="M58 104.646C58.711 103.799 59.3336 103.4 60.3844 103.119C61.3943 102.849 62.2893 103.101 62.7438 103.254C64.3213 103.785 64.8392 105.402 66.4946 106.315C69.3204 107.875 72.2718 108.47 75.0404 106.578C76.8134 105.366 77.4896 104.386 78.2343 103.969" stroke="white" stroke-width="3.5" stroke-linecap="round"/>
</svg>
