<svg width="136" height="164" viewBox="0 0 136 164" fill="none" xmlns="http://www.w3.org/2000/svg">
<path d="M39.1478 99.8047C40.4347 100.036 42.497 99.8047 42.497 99.8047C45.1696 104.382 49.1346 114.916 52.8789 118.162C70.0103 131.546 67.4166 129.657 84.465 118.162C88.7651 114.966 90.6667 104.449 93.4045 99.8047C93.4045 99.8047 95.4682 100.044 96.7537 99.8047C102.935 98.6556 106.251 88.5546 101.443 84.5384C99.9193 83.2661 98.9916 82.0333 96.7537 82.5471C98.1641 74.2522 99.6355 69.0948 96.7537 61.3071C93.3781 52.185 88.3715 46.5002 79.338 42.7222C70.4209 38.9929 64.2328 38.9843 54.554 43.3858C45.3981 48.7409 39.9169 54.3094 37.8081 64.6259C36.5058 70.9973 37.4691 74.7243 39.1477 81.2192L39.1478 81.2196C36.3655 80.7748 35.336 82.633 33.7891 84.5384C29.7963 89.4566 32.8803 98.6764 39.1478 99.8047Z" stroke="white" stroke-width="3.5" stroke-linecap="round"/>
<path d="M77.6335 77.2795C78.0031 77.2539 79.1904 77.3758 82.264 78.662C83.8279 79.3165 84.7046 80.4943 85.4971 81.3348C85.7276 81.7687 85.8374 82.1847 85.8979 82.6942C85.9269 82.9993 85.9522 83.3988 85.9548 84.1989" stroke="white" stroke-width="3.5" stroke-linecap="round"/>
<path d="M60.3998 76.1468C59.2207 76.1927 56.5775 76.3135 54.9039 76.9634C52.9853 77.7085 51.0997 80.0038 50.1119 81.753C49.8048 82.4331 49.4137 83.3953 49.2037 83.9901C48.9937 84.5849 48.9765 84.7832 49.0173 85.2252" stroke="white" stroke-width="3.5" stroke-linecap="round"/>
<path d="M59.0913 105.646C59.8024 104.799 60.4249 104.4 61.4757 104.119C62.4856 103.849 63.3807 104.101 63.8351 104.254C65.4126 104.785 65.9305 106.402 67.5859 107.315C70.4117 108.875 73.3631 109.47 76.1317 107.578C77.9047 106.366 78.5809 105.386 79.3256 104.969" stroke="white" stroke-width="3.5" stroke-linecap="round"/>
</svg>
