<svg width="136" height="164" viewBox="0 0 136 164" fill="none" xmlns="http://www.w3.org/2000/svg">
<path d="M51.3599 81.7124C54.6871 83.0444 57.2357 83.2503 57.2357 83.2503C57.2357 83.2503 71.2626 85.1745 74.4015 85.3865C78.6127 85.9281 83.6187 86.954 87.5247 87.4678C91.4307 87.9815 94.1791 88.135 95.6668 87.8772C97.4725 87.5643 98.4214 86.4034 100.064 85.0698C102.319 83.2396 103.955 81.7394 103.999 80.0496C104.064 77.5333 99.7727 73.7153 97.1602 73.7765C91.9067 73.8996 88.7023 76.2472 84.9545 73.718C79.9445 70.3369 73.6385 71.4998 67.0089 70.8159C62.0232 70.3016 59.4995 69.3164 56.8761 68.2015C52.6122 66.3894 46.2929 65.4356 42.5388 66.3555C39.335 67.1406 35.7084 67.675 33.5493 69.2301C32.8388 69.7418 32.1984 70.3491 32.1406 71.3196C32.06 72.6727 31.6271 75.1959 32.8427 77.463C33.834 79.3116 36.5752 82.0357 40.1354 81.9584C45.4039 81.8438 49.6155 81.014 51.3599 81.7124Z" stroke="white" stroke-width="3.5" stroke-linecap="round"/>
<path d="M53.1658 92.3535C53.7533 92.1083 55.6908 91.6418 57.2775 90.3589C57.8973 89.8578 58.7446 90.0104 59.5982 90.0652C60.3187 90.1114 60.9066 90.8416 61.4498 91.5201C61.9504 92.1455 62.0844 93.5523 61.9522 95.0255C61.7951 96.7753 59.2188 96.5616 55.2551 97.7602C54.0672 98.1194 52.7906 98.0215 52.0741 97.8145C51.3577 97.6075 51.2216 97.1469 51.1116 96.6499C50.9215 95.6334 50.9633 94.6623 51.3222 93.8137C51.557 93.4008 51.8987 93.0239 52.3472 92.604" stroke="white" stroke-width="3.5" stroke-linecap="round"/>
<path d="M73.0136 94.1381C73.2958 94.4144 74.006 95.3672 74.4579 95.8952C74.6764 96.1506 75.0014 95.8999 75.296 95.5644C75.5906 95.229 75.8777 94.6937 75.9685 94.1446C76.0592 93.5955 75.9448 93.049 75.7458 92.6686C75.2668 92.0906 74.5853 91.887 73.8738 92.0592C73.5553 92.2313 73.3231 92.5757 73 93.7996" stroke="white" stroke-width="3.5" stroke-linecap="round"/>
</svg>
