<svg width="136" height="164" viewBox="0 0 136 164" fill="none" xmlns="http://www.w3.org/2000/svg">
<path d="M70 39.75C79.4434 39.75 87.25 47.8351 87.25 58C87.25 68.1649 79.4434 76.25 70 76.25C60.5566 76.25 52.75 68.1649 52.75 58C52.75 47.8351 60.5566 39.75 70 39.75Z" stroke="white" stroke-width="3.5"/>
<path d="M73.4548 76C73.4548 77.171 72.4891 79.5511 73.0857 80.5353C73.2716 80.8419 73.8021 80.8987 74.3084 80.9378C74.961 80.9883 77.7986 80.6031 82.8087 80.0033C93.2696 78.7509 99.4808 80.9139 100.286 91.4281C100.678 96.561 101.082 105.62 101.297 110.363C101.495 114.729 102.239 118.715 102.796 123.01C102.862 123.638 102.879 124.124 103 125" stroke="white" stroke-width="3.5" stroke-linecap="round"/>
<path d="M64.5 75.5C64.5 76.671 63.5109 79.5511 62.9143 80.5353C62.7284 80.8419 62.1979 80.8987 61.6916 80.9378C61.0389 80.9883 58.2014 80.6031 53.1913 80.0033C42.7304 78.7509 36.5192 80.9139 35.7144 91.4281C35.3215 96.561 34.9182 105.62 34.7031 110.363C34.5052 114.729 33.7614 118.715 33.2039 123.01C33.1376 123.638 33.1205 124.124 33.0001 125" stroke="white" stroke-width="3.5" stroke-linecap="round"/>
<path d="M53.6869 81.0332C52.8627 81.87 50.8491 84.5539 49.4565 89.2013C47.7612 94.8587 47.7797 101.283 47.7917 105.559C47.7963 107.229 47.9623 107.881 48.184 108.273C48.8731 109.49 51.3387 109.443 53.1506 110.436C55.4027 112.192 56.2561 113.275 56.846 114.501C57.1763 115.283 57.5696 116.392 58.0516 117.901" stroke="white" stroke-width="3.5" stroke-linecap="round"/>
<path d="M47.7895 108.235C47.7895 108.247 47.7407 108.378 47.4412 108.922C46.8007 110.086 46.1719 111.061 45.9669 111.864C45.8353 112.379 45.7657 113.14 45.7179 114.059C45.6702 114.977 45.6767 116.037 45.7138 116.734C45.7673 117.74 46.1475 118.847 46.5621 120.168C46.9204 121.31 47.0971 121.753 47.1537 121.826C47.2249 121.919 47.3249 121.589 47.4777 121.535C47.5511 121.51 47.631 121.549 47.6976 121.589C48.0084 121.777 48.1081 122.253 48.1624 122.621C48.1738 122.699 48.0584 122.734 47.9718 122.729C47.7858 122.719 47.6323 122.561 47.5155 122.427C47.4056 122.301 47.4023 122.067 47.4361 121.839C47.4505 121.741 47.5375 121.702 47.6452 121.675C47.7529 121.649 47.8987 121.642 48.0081 121.668C48.1995 121.713 48.3115 121.887 48.408 122.045C48.5031 122.2 48.5057 122.408 48.4619 122.58C48.4225 122.734 48.1235 122.695 47.9126 122.669C47.7283 122.646 47.6169 122.417 47.5136 122.219C47.4254 122.049 47.4227 121.817 47.4497 121.583C47.4615 121.481 47.5358 121.427 47.6066 121.381C47.7502 121.29 48.0429 121.274 48.377 121.3C48.5902 121.317 48.6922 121.509 48.7838 121.666C48.9627 121.97 48.9259 122.27 48.8912 122.464C48.8569 122.656 48.6419 122.751 48.4903 122.834C48.0955 123.05 47.5661 122.902 47.4257 122.805C47.3401 122.654 47.2911 122.48 47.2531 122.316C47.2346 122.235 47.2177 122.157 47.1737 122.047" stroke="white" stroke-width="3.5" stroke-linecap="round"/>
<path d="M57.5273 117.381C57.4538 117.456 57.2183 117.725 57.0594 118.03C56.9756 118.191 57.0101 118.385 57.0514 118.547C57.0939 118.714 57.282 118.805 57.5037 118.874C57.647 118.918 57.8728 118.897 58.0081 118.86C58.1435 118.824 58.1865 118.751 58.1995 118.675C58.2523 118.366 58.1042 118.127 58.0543 118.084C57.765 117.834 58.0753 118.968 57.9345 119.349C57.878 119.502 57.6216 119.534 57.34 119.571C57.009 119.614 56.7458 119.535 56.6117 119.407C56.2953 119.103 56.3614 118.623 56.3637 118.042C56.3646 117.833 56.4898 117.69 56.59 117.551C56.6852 117.418 56.8376 117.353 57.0354 117.326C57.2965 117.291 57.5487 117.395 57.7507 117.563C58.1432 117.889 58.2077 118.244 58.2538 118.664C58.3015 118.872 58.342 119.058 58.3276 119.212C58.303 119.282 58.2433 119.336 58.0545 119.447" stroke="white" stroke-width="3.5" stroke-linecap="round"/>
<path d="M79.0753 81.3613C79.4289 81.5715 80.9347 82.8275 82.4704 85.102C83.6394 86.8334 84.2449 90.9167 85.1222 96.7519C86.0871 103.17 85.1968 108.226 84.5183 110.965C84.2125 112.199 83.8604 113.086 83.5328 113.617C82.6728 115.013 80.5435 114.924 79.5232 116.123C78.9699 116.774 79.0004 118.217 79.12 119.739C79.202 120.784 80.0086 121.284 80.5827 121.652C81.1636 122.024 82.0201 122.057 82.8877 121.961C83.6414 121.878 84.1673 121.248 84.6653 120.761C85.6504 119.797 85.6421 118.341 85.3449 117.556C84 114 80.2407 115.541 79.5 117" stroke="white" stroke-width="3.5" stroke-linecap="round"/>
<path d="M56.6377 81.0718C56.6759 81.3756 57.2158 82.7324 58.6133 84.9895C59.5153 86.4463 60.9432 88.45 61.9971 90.1637C64.8154 94.7469 65.089 95.5614 65.3624 95.69C65.7081 95.8525 67.5321 93.64 71.0005 90.028C72.8522 88.1697 74.8899 86.2598 76.1467 84.9899C77.4036 83.7199 77.8179 83.1478 78.4523 82.1177" stroke="white" stroke-width="3.5" stroke-linecap="round"/>
</svg>
