<svg width="136" height="164" viewBox="0 0 136 164" fill="none" xmlns="http://www.w3.org/2000/svg">
<path d="M57.707 122.703C57.738 122.453 58.7322 120.508 60.2663 116.732C60.6365 115.821 60.5239 114.687 60.1547 112.386C59.9222 110.938 59.1846 108.984 58.395 107.161C57.6053 105.339 56.6802 103.723 55.6938 101.513C54.7073 99.304 53.6875 96.5506 53.051 94.6181C52.4146 92.6857 52.1924 91.6577 51.9738 89.6964C51.7552 87.7352 51.5469 84.8719 51.534 83.1519C51.5124 80.2683 52.437 79.5685 52.9712 78.9003C53.5387 78.1903 54.1828 77.5041 55.1718 76.8299C56.0152 76.2551 56.9775 76.1366 58.6589 76.07C59.1844 76.0491 57.9319 80.7675 58.1567 84.2196C58.3242 86.7917 59.3315 76.9615 59.4634 75.9329C59.611 74.7821 60.1166 73.4918 60.4727 72.5091C61.4525 69.8049 65.522 35.506 77.9935 42.9984C78.9486 43.5722 79.0622 45.6217 79.4915 48.394C79.7098 49.8037 79.6832 51.2458 79.2938 53.5084C78.9044 55.7711 78.0902 58.8173 77.3356 61.1755C76.5809 63.5337 75.9105 65.1114 75.2764 67.2273C74.6423 69.3432 74.0649 71.9495 73.7192 73.7731C73.1931 76.5484 73.2234 78.763 73.3166 80.7443C73.4026 82.5715 73.5966 83.705 73.5898 83.7282C73.0855 85.4556 73.4494 80.2356 73.4498 77.9336C73.45 76.86 73.5085 75.8402 73.6195 74.8396C73.7047 74.0725 73.9482 73.3519 73.9976 72.6422C74.0211 72.3042 74.1475 71.9819 74.5284 71.6516C75.7107 70.6267 78.2652 70.7069 80.7351 70.9429C81.475 71.0137 81.9158 71.233 82.2697 71.3932C84.8404 72.5567 85.7368 77.0215 86.1949 79.3659C86.6012 81.4453 86.2397 83.6087 85.897 84.7917C85.4769 86.2415 85.9259 81.8755 86.0455 80.9043C86.2313 79.3956 86.2994 78.1898 86.471 77.4358C86.5557 77.0637 86.9794 76.811 87.3453 76.598C87.6937 76.3951 88.4668 76.3966 89.3879 76.4177C90.7039 76.4479 91.5274 77.4724 92.241 77.9467C92.6117 78.193 92.8633 78.5041 93.0577 78.8226C93.2818 79.1899 93.4419 82.1852 93.6436 86.2424C93.7084 87.5463 93.6626 87.3188 93.6344 86.8546C93.509 84.7912 93.5618 82.8588 93.5803 81.5415C93.5829 81.3591 93.6047 81.1724 93.7379 81.0464C94.0374 80.7632 94.6639 80.7936 95.2068 80.8155C96.2334 80.8568 97.4514 81.881 98.5445 82.5847C98.9077 82.8185 99.2831 83.0035 99.5989 83.3234C99.981 83.7105 100.263 84.6383 100.63 86.2201C101.134 88.3991 100.993 89.9188 100.153 91.5542C99.4024 93.0141 97.8165 95.6838 96.6584 97.5697C93.8835 102.088 92.8694 103.357 92.0073 104.389C90.0971 106.675 90.8339 108.358 90.6122 110.925C90.4613 112.672 90.5675 115.332 90.6169 116.982C90.7413 119.196 91.0041 120.271 91.3219 121.155C91.4543 121.545 91.5277 121.815 91.7036 122.524" stroke="white" stroke-width="3.5" stroke-linecap="round"/>
<path opacity="0.4" d="M61.3402 62.2004C60.8602 60.4727 60.6019 60.0199 59.9891 58.7217C58.5883 55.7539 57.1519 53.0013 55.6594 50.6754C53.2582 46.9337 51.8242 43.6873 51.0072 42.4855C49.9925 40.9927 48.9201 40.6335 47.9807 40.1685C47.1839 39.7741 45.5984 40.1685 44.2962 40.3735C40.3863 40.989 39.949 48.0821 40.2186 50.8221C40.3906 52.5707 41.1521 54.7746 42.446 57.8567C43.7398 60.9388 45.6804 64.8135 47.037 67.7595C48.3936 70.7056 52.0783 76.0107 53.0005 78.5" stroke="white" stroke-width="3.5" stroke-linecap="round"/>
<path d="M50.5244 32.5874C60.7469 26.0564 66.0895 27.333 70.4084 33.8435" stroke="white" stroke-width="3.5"/>
<path d="M74.7619 36.6361C74.9139 37.3528 74.2689 37.9843 73.5555 37.8172L68.2099 36.5647C67.442 36.3848 67.1749 35.4283 67.7384 34.8765L71.9448 30.7581C72.5084 30.2064 73.459 30.4937 73.6227 31.2652L74.7619 36.6361Z" fill="white"/>
<path d="M54.5255 33.1051C54.9136 33.7267 54.5235 34.5407 53.7959 34.6276L48.3443 35.279C47.5612 35.3725 46.983 34.5651 47.3239 33.8539L49.868 28.5452C50.2089 27.8339 51.2004 27.7788 51.6181 28.4478L54.5255 33.1051Z" fill="white"/>
</svg>
