<svg width="136" height="164" viewBox="0 0 136 164" fill="none" xmlns="http://www.w3.org/2000/svg">
<path d="M74.8755 39.7575L34.7083 58.051C34.0462 58.3525 33.7903 59.1494 34.1521 59.7817L71.099 124.361C71.4241 124.928 72.1346 125.158 72.7294 124.887L103.015 111.094C103.612 110.822 103.889 110.138 103.65 109.528L76.5852 40.4487C76.3209 39.7746 75.5352 39.457 74.8755 39.7575Z" stroke="white" stroke-width="3.5"/>
<path d="M74.6448 115.891L95.3141 106.477L85.3533 81.8484L45.299 64.9137L74.6448 115.891Z" fill="white" stroke="white" stroke-width="3.5"/>
<path d="M32.5117 82.2348C33.2284 84.9478 38.148 84.7636 38.5435 81.9692C39.0664 78.2753 36.2967 67.8818 34.9848 71.3764C33.9998 74.0003 31.7558 79.3732 32.5117 82.2348Z" fill="white"/>
</svg>
