<svg width="136" height="164" viewBox="0 0 136 164" fill="none" xmlns="http://www.w3.org/2000/svg">
<path d="M97.2168 113.42C99.1242 115.675 98.8383 119.035 96.5811 120.882C94.3113 122.739 90.9372 122.341 89.1084 120.002L67.0576 91.7959L69.4883 89.2588L91.8516 117.864C92.4626 118.645 93.5894 118.778 94.3477 118.158C95.1019 117.541 95.1978 116.418 94.5605 115.665L70.9385 87.7441L73.3584 85.2178L97.2168 113.42ZM45.6035 41.4092C46.3354 40.7878 47.4394 40.8854 48.0693 41.626L62.9834 59.1592C63.0046 59.1812 63.0323 59.2083 63.0635 59.2412C63.1417 59.3237 63.2491 59.4405 63.3701 59.5752C63.5971 59.8279 63.9271 60.2087 64.1768 60.5781C65.7807 62.9518 65.7866 65.6082 65.1055 68.0254C64.1782 71.3168 64.2448 74.446 66.0098 76.5322L68.043 78.9355L65.6133 81.4492L63.3525 78.7773C60.4227 75.3143 60.7118 70.6785 61.7383 67.0352C62.1395 65.611 62.1444 64.3761 61.709 63.3076C60.6603 64.7282 59.8148 65.7741 58.9902 66.6738C57.8493 67.9188 56.7757 68.8568 55.3682 70.0908C52.4911 73.4027 51.2913 74.6664 48.8652 76.9209C49.4429 77.2223 49.9811 77.2739 50.5215 77.2148C54.4053 76.7899 59.5989 76.6079 62.7461 80.6338L64.3799 82.7236L61.9395 85.249L60.0029 82.7715C58.1913 80.4542 54.9969 80.2538 50.9434 80.6973C48.7476 80.9373 46.728 80.155 44.9209 78.1182L44.8779 78.0684L44.8379 78.0176C42.0082 74.3138 38.2672 69.6588 35.2266 65.9219C33.7083 64.0559 32.3675 62.4221 31.4062 61.2549C30.9258 60.6715 30.5397 60.2046 30.2744 59.8838C30.1417 59.7234 30.0391 59.5983 29.9697 59.5146C29.9353 59.4731 29.9082 59.4421 29.8906 59.4209C29.882 59.4106 29.8755 59.4018 29.8711 59.3965C29.8691 59.3941 29.8673 59.3919 29.8662 59.3906L29.8652 59.3887C29.8693 59.3852 29.9414 59.3241 31.2031 58.2783L29.8643 59.3887C29.2433 58.6404 29.3398 57.5367 30.0791 56.9238C30.8186 56.3111 31.9218 56.4207 32.543 57.1689V57.1699L32.5449 57.1709C32.5461 57.1723 32.5467 57.1752 32.5488 57.1777C32.5534 57.1832 32.5614 57.1914 32.5703 57.2021C32.5882 57.2237 32.6148 57.2561 32.6494 57.2979C32.7194 57.3823 32.823 57.5071 32.9561 57.668C33.2229 57.9905 33.6104 58.4601 34.0928 59.0459C35.0576 60.2174 36.4037 61.8574 37.9277 63.7305C40.5703 66.9782 43.7582 70.9384 46.4268 74.3789C48.5139 72.4412 49.6316 71.2935 51.8057 68.8164L37.3799 51.9062C36.7492 51.1664 36.8308 50.0614 37.5615 49.4385C38.2924 48.816 39.3963 48.911 40.0273 49.6504L54.2773 66.3525C55.0714 65.6406 55.7214 65.0269 56.3994 64.2871C57.2545 63.3541 58.1753 62.2018 59.4727 60.4004L45.4199 43.877C44.7898 43.1362 44.8716 42.0311 45.6035 41.4092Z" fill="white"/>
<path d="M38.9263 119.914L79.3877 77.7123C81.7075 75.2928 85.1951 74.3971 88.5312 74.3414C90.2373 74.313 91.9066 74.1191 93.1591 73.7788C100.901 71.675 105.116 64.9504 103.632 56.34C102.432 49.3799 98.8327 46.3823 92.387 46.3232C84.926 46.2547 78.6694 50.247 77.1591 58.279C76.7777 60.307 76.7466 62.4157 76.9928 64.5213C77.3786 67.8215 76.7157 71.285 74.4052 73.696L34.3346 115.509C33.1262 116.77 33.1388 118.758 34.363 119.982C35.6234 121.243 37.6818 121.212 38.9263 119.914Z" stroke="white" stroke-width="3.5" stroke-linecap="round"/>
</svg>
