<svg width="136" height="164" viewBox="0 0 136 164" fill="none" xmlns="http://www.w3.org/2000/svg">
<path d="M39.1478 98.0926C40.4347 98.3177 42.497 98.0926 42.497 98.0926C45.1696 102.539 49.1346 112.771 52.8789 115.925C70.0103 128.925 67.4166 127.09 84.465 115.925C88.7651 112.82 90.6667 102.604 93.4045 98.0926C93.4045 98.0926 95.4682 98.3248 96.7537 98.0926C102.935 96.9765 106.251 87.1647 101.443 83.2634C99.9193 82.0276 98.9916 80.83 96.7537 81.3291C98.1641 73.2717 99.6355 68.2619 96.7537 60.6971C93.3781 51.8361 88.3715 46.3141 79.338 42.6443C70.4209 39.0217 64.2328 39.0134 54.554 43.2889C45.3981 48.4907 39.9169 53.8997 37.8081 63.9209C36.5058 70.1099 37.4691 73.7303 39.1477 80.0392L39.1478 80.0396C36.3655 79.6075 35.336 81.4126 33.7891 83.2634C29.7963 88.0409 32.8803 96.9966 39.1478 98.0926Z" stroke="white" stroke-width="3.5" stroke-linecap="round"/>
<path d="M76.717 68.0718C77.084 68.023 78.2768 68.064 81.4295 69.1111C83.0336 69.6439 83.9871 70.7285 84.834 71.4916C85.093 71.8972 85.2304 72.2933 85.3248 72.7832C85.3741 73.077 85.426 73.4626 85.4821 74.2378" stroke="white" stroke-width="3.5" stroke-linecap="round"/>
<path d="M60.059 68.2922C58.8791 68.2781 56.2332 68.2638 54.5285 68.8109C52.5742 69.4382 50.5735 71.5711 49.4974 73.2189C49.1558 73.8633 48.716 74.7772 48.4758 75.3438C48.2356 75.9104 48.2083 76.1019 48.2264 76.5328" stroke="white" stroke-width="3.5" stroke-linecap="round"/>
<path d="M72.0855 110.454C59.0846 115.162 46.9665 91.3752 57.7332 92.4004C68.5 93.4255 74.9998 90.0046 81.3819 90.0044C87.7639 90.0042 77.3522 108.547 72.0855 110.454Z" fill="white" stroke="white" stroke-width="3.5" stroke-linecap="round"/>
</svg>
