<svg width="136" height="164" viewBox="0 0 136 164" fill="none" xmlns="http://www.w3.org/2000/svg">
<circle cx="50.2798" cy="65.5" r="11.75" stroke="white" stroke-width="3.5"/>
<circle cx="13.5" cy="13.5" r="11.75" transform="matrix(-1 0 0 1 99.7798 52)" stroke="white" stroke-width="3.5"/>
<circle cx="9" cy="9" r="7.25" transform="matrix(-1 0 0 1 76.7798 78)" stroke="white" stroke-width="3.5"/>
<path d="M53.7798 78C53.8155 78.5285 53.9745 80.3376 54.4101 81.7622C54.973 83.6032 56.7455 82.592 58.089 82.7832C58.4414 82.8217 58.7484 82.8596 59.1895 82.8958C59.6306 82.9321 60.1966 82.9655 60.7798 83" stroke="white" stroke-width="3.5" stroke-linecap="round"/>
<path d="M82.7798 78C82.739 78.5285 82.5572 80.3376 82.0594 81.7622C81.4162 83.6032 79.3904 82.592 77.855 82.7832C77.4522 82.8217 77.1014 82.8596 76.5972 82.8958C76.0931 82.9321 75.4462 82.9655 74.7798 83" stroke="white" stroke-width="3.5" stroke-linecap="round"/>
<path d="M46.976 77.7822C46.9286 78.1531 46.6805 79.5961 46.424 80.8129C46.195 81.8991 44.0679 81.4448 41.8777 82.0379C35.0882 83.8764 32.9718 85.6977 30.8045 93.2044C30.5645 94.0359 30.5488 94.6929 30.4037 98.3651C30.2586 102.037 30.0518 108.721 30.002 112.284C29.9289 117.512 31.9032 117.985 37.0941 119.393C41.9088 120.699 55.5422 121.225 59.2577 116.648C60.8194 114.725 59.6657 112.186 59.1176 111.246C58.55 110.273 57.1356 110.143 55.9302 109.763C54.1853 109.212 48.6452 108.489 44.5397 108.129C43.724 108.057 43.2184 107.842 42.7612 107.543C41.0425 106.421 43.0014 98.659 42.7612 96.5" stroke="white" stroke-width="3.5" stroke-linecap="round"/>
<path d="M88.8482 77.7822C88.8957 78.1531 89.1438 79.5961 89.4002 80.8129C89.6292 81.8991 91.7563 81.4448 93.9465 82.0379C100.736 83.8764 102.852 85.6977 105.02 93.2044C105.26 94.0359 105.275 94.6929 105.421 98.3651C105.566 102.037 105.772 108.721 105.822 112.284C105.895 117.512 103.921 117.985 98.7301 119.393C93.9154 120.699 80.282 121.225 76.5665 116.648C75.0048 114.725 76.1585 112.186 76.7066 111.246C77.2742 110.273 78.6886 110.143 79.8941 109.763C81.6389 109.212 87.179 108.489 91.2845 108.129C92.1002 108.057 92.6059 107.842 93.063 107.543C94.7817 106.421 92.8228 98.659 93.063 96.5" stroke="white" stroke-width="3.5" stroke-linecap="round"/>
<path d="M70.0281 94.1309C70.0281 94.472 69.9527 95.5647 69.941 96.3886C69.9372 96.6477 70.2207 96.8496 70.4944 97.067C70.903 97.3916 72.8478 97.3177 74.3932 97.4787C76.8759 97.7374 77.4179 98.5732 78.42 99.6816C79.3625 100.724 79.9125 101.949 80.286 102.757C80.8265 103.926 81.0856 105.149 81.2777 106.297C81.2983 106.466 81.311 106.568 81.3328 106.682C81.3546 106.795 81.385 106.917 81.4449 107.279" stroke="white" stroke-width="3.5" stroke-linecap="round"/>
<path d="M65.0225 95.0576C65.0215 95.6145 65.0115 96.8145 64.9528 97.0384C64.7995 97.623 63.3871 97.2419 61.7194 97.3733C60.0675 97.5035 58.9283 97.646 58.0108 98.1132C57.6179 98.3132 56.8272 99.2321 55.7886 100.423C55.3271 100.952 55.1667 101.246 54.8127 102.085C54.538 102.737 54.1331 103.872 53.8142 104.944C53.4953 106.015 53.2907 106.994 53.1646 107.544C53.0384 108.094 52.9969 108.184 52.9541 108.277" stroke="white" stroke-width="3.5" stroke-linecap="round"/>
</svg>
