<svg width="136" height="164" viewBox="0 0 136 164" fill="none" xmlns="http://www.w3.org/2000/svg">
<path d="M69.585 123.702C68.956 125.047 67.044 125.047 66.415 123.702L32.0977 50.335C31.6811 49.4444 32.0865 48.4012 32.9649 48.0283C45.6823 42.6291 56.005 39.8282 66.6758 39.752C77.3533 39.6757 88.5353 42.3266 102.966 48.086C103.867 48.4456 104.292 49.5041 103.868 50.4092L69.585 123.702Z" stroke="white" stroke-width="3.5"/>
<path d="M38.9154 56.8441C62.0078 47.354 75.6602 47.6901 96.7425 57.1587C98.5806 57.9842 100.76 57.1472 101.516 55.2794L102.848 51.9879C103.562 50.2218 102.729 48.2026 100.967 47.4779C74.4717 36.5818 58.8727 36.3777 34.5752 47.8583C32.7978 48.6981 32.099 50.86 33.0176 52.598L34.4162 55.2439C35.2695 56.8584 37.2263 57.5382 38.9154 56.8441Z" fill="white"/>
<path d="M69.4175 123.509C68.787 124.854 66.8739 124.851 66.2466 123.505L36.521 59.73C36.1056 58.8387 36.5141 57.7977 37.3901 57.4292C48.4777 52.7651 57.4654 50.3703 66.7466 50.3228C76.0353 50.2753 85.7725 52.5785 98.354 57.5591C99.2561 57.9164 99.6825 58.9768 99.2583 59.8814L69.4175 123.509Z" stroke="white" stroke-width="3.5"/>
<path d="M78.5 72.25C75.2087 72.25 72.75 69.7877 72.75 67C72.75 64.2123 75.2087 61.75 78.5 61.75C81.7913 61.75 84.25 64.2123 84.25 67C84.25 69.7877 81.7913 72.25 78.5 72.25Z" fill="white" stroke="white" stroke-width="3.5"/>
<circle cx="68" cy="93" r="5.25" transform="rotate(180 68 93)" fill="white" stroke="white" stroke-width="3.5"/>
<circle cx="56" cy="69" r="2.25" transform="rotate(180 56 69)" fill="white" stroke="white" stroke-width="3.5"/>
</svg>
