<svg width="136" height="164" viewBox="0 0 136 164" fill="none" xmlns="http://www.w3.org/2000/svg">
<path d="M45.4429 92.6942C45.4351 92.6942 45.667 90 43.9614 90C38.5131 90 34.7801 92.6889 30.0186 90C27.5263 88.5926 27.6354 85.4187 28.7715 83.4213C29.4349 82.255 31.0326 81.7961 33.8138 81.1295C35.4299 80.7422 38.4108 80.6379 40.5348 80.3607C43.8627 79.9264 45.6513 79.3926 46.7698 78.9643C48.6604 78.2405 49.4349 77.5562 50.6548 76.3246C51.5208 75.4504 52.63 73.6541 54.2318 71.9031C56.701 69.2039 57.9036 65.844 58.5666 64.7914C59.6005 63.1496 60.6821 62.4158 61.4455 62.1587C62.5291 61.7937 63.9449 62.093 64.74 62.7027C65.0937 62.9739 65.3307 63.3971 65.574 64.0437C66.556 66.6535 65.7187 70.2809 64.9096 72.5593C63.0108 77.9067 61.9428 78.8991 61.3607 79.9332C60.9067 80.7398 61.0138 82.2527 61.4743 85.5016C61.6006 86.3926 61.7207 87.1794 61.8862 89.3536C62.0516 91.5279 62.2699 95.0629 62.478 97.801C62.8262 102.38 63.0757 104.786 63.0845 106.679C63.1009 110.25 63.037 112.845 62.8561 113.432C62.586 114.307 61.778 114.598 60.8241 114.837C59.3196 115.212 58.5597 114.374 57.6812 113.458C56.9989 112.747 55.9062 110.076 55.1027 108.068C54.2616 105.966 53.8961 104.654 53.3535 103.306C53.2462 103.04 53.0403 103.046 52.9126 103.125C51.979 103.7 52.1296 106.692 50.9559 109.307C49.4371 112.69 47.6397 114.588 45.5728 116.83C44.7588 117.713 43.7654 117.973 41.6087 118C40.9069 118.009 40.632 117.281 40.3844 116.747C39.6179 115.095 39.6483 113.454 39.6669 111.358C39.6734 110.625 40.4509 108.658 41.6077 105.633C42.4266 103.492 43.2203 101.353 43.9614 99.2027C44.8422 96.7624 45.3431 94.8233 45.3609 94.3549C45.3715 94.122 45.3853 93.8991 45.4384 93.563" stroke="white" stroke-width="3.5" stroke-linecap="round"/>
<path d="M63.6369 56.6314C63.4268 56.4579 62.6458 55.707 60.5351 54.2962C58.5139 52.6071 57.9622 52.078 57.638 51.7624C57.4566 51.5635 57.2408 51.286 57.0186 51" stroke="white" stroke-width="3.5" stroke-linecap="round"/>
<path d="M68.0017 54.8887C68.0017 53.9885 67.9353 51.8385 67.6325 49.7485C67.4715 48.3789 67.4117 47.5488 67.3878 46.8939C67.364 46.6159 67.3162 46.4481 67.0186 46" stroke="white" stroke-width="3.5" stroke-linecap="round"/>
<path d="M73.0186 56.6308C73.06 56.3737 73.3392 55.7572 74.5649 54.4074C75.5917 53.5117 76.8912 52.5527 77.5766 52.0876C77.9358 51.8221 78.3183 51.4966 78.9424 51" stroke="white" stroke-width="3.5" stroke-linecap="round"/>
<circle cx="43.0186" cy="65" r="6.25" stroke="white" stroke-width="3.5"/>
<path d="M90.5942 92.6942C90.602 92.6942 90.3701 90 92.0757 90C97.5241 90 101.257 92.6889 106.019 90C108.511 88.5926 108.402 85.4187 107.266 83.4213C106.602 82.255 105.004 81.7961 102.223 81.1295C100.607 80.7422 97.6263 80.6379 95.5023 80.3607C92.1744 79.9264 90.3859 79.3926 89.2673 78.9643C87.3767 78.2405 86.6022 77.5562 85.3823 76.3246C84.5164 75.4504 83.4071 73.6541 81.8053 71.9031C79.3361 69.2039 78.1335 65.844 77.4705 64.7914C76.4366 63.1496 75.355 62.4158 74.5916 62.1587C73.508 61.7937 72.0922 62.093 71.2971 62.7027C70.9435 62.9739 70.7064 63.3971 70.4631 64.0437C69.4811 66.6535 70.3184 70.2809 71.1275 72.5593C73.0263 77.9067 74.0943 78.8991 74.6764 79.9332C75.1305 80.7398 75.0233 82.2527 74.5628 85.5016C74.4365 86.3926 74.3164 87.1794 74.1509 89.3536C73.9855 91.5279 73.7672 95.0629 73.5591 97.801C73.2109 102.38 72.9614 104.786 72.9526 106.679C72.9362 110.25 73.0002 112.845 73.181 113.432C73.4511 114.307 74.2591 114.598 75.213 114.837C76.7175 115.212 77.4774 114.374 78.3559 113.458C79.0382 112.747 80.1309 110.076 80.9344 108.068C81.7755 105.966 82.141 104.654 82.6836 103.306C82.7909 103.04 82.9969 103.046 83.1245 103.125C84.0581 103.7 83.9075 106.692 85.0812 109.307C86.6 112.69 88.3974 114.588 90.4643 116.83C91.2784 117.713 92.2717 117.973 94.4284 118C95.1302 118.009 95.4051 117.281 95.6527 116.747C96.4192 115.095 96.3888 113.454 96.3702 111.358C96.3637 110.625 95.5862 108.658 94.4294 105.633C93.6105 103.492 92.8168 101.353 92.0757 99.2027C91.1949 96.7624 90.694 94.8233 90.6762 94.3549C90.6656 94.122 90.6518 93.8991 90.5987 93.563" stroke="white" stroke-width="3.5" stroke-linecap="round"/>
<circle cx="8" cy="8" r="6.25" transform="matrix(-1 0 0 1 101.019 57)" stroke="white" stroke-width="3.5"/>
</svg>
