<svg width="136" height="164" viewBox="0 0 136 164" fill="none" xmlns="http://www.w3.org/2000/svg">
<path d="M39.1478 99.8047C40.4347 100.036 42.497 99.8047 42.497 99.8047C45.1696 104.382 49.1346 114.916 52.8789 118.162C70.0103 131.546 67.4166 129.657 84.465 118.162C88.7651 114.966 90.6667 104.449 93.4045 99.8047C93.4045 99.8047 95.4682 100.044 96.7537 99.8047C102.935 98.6556 106.251 88.5546 101.443 84.5384C99.9193 83.2661 98.9916 82.0333 96.7537 82.5471C98.1641 74.2522 99.6355 69.0948 96.7537 61.3071C93.3781 52.185 88.3715 46.5002 79.338 42.7222C70.4209 38.9929 64.2328 38.9843 54.554 43.3858C45.3981 48.7409 39.9169 54.3094 37.8081 64.6259C36.5058 70.9973 37.4691 74.7243 39.1477 81.2192L39.1478 81.2196C36.3655 80.7748 35.336 82.633 33.7891 84.5384C29.7963 89.4566 32.8803 98.6764 39.1478 99.8047Z" stroke="white" stroke-width="3.5" stroke-linecap="round"/>
<path d="M77.9481 84.029C77.9963 83.6617 78.3511 82.5222 80.2211 79.7645C81.1725 78.3614 82.5008 77.7356 83.4817 77.1254C83.9527 76.9855 84.3822 76.9603 84.8936 77.002C85.1984 77.0341 85.595 77.0885 86.3797 77.2445" stroke="white" stroke-width="3.5" stroke-linecap="round"/>
<path d="M60.583 83.7905C60.042 82.7418 58.813 80.3986 57.5155 79.1578C56.0279 77.7353 53.15 76.9994 51.1471 76.8455C50.4009 76.8553 49.3637 76.9086 48.7359 76.9703C48.1081 77.032 47.9212 77.1004 47.5381 77.3246" stroke="white" stroke-width="3.5" stroke-linecap="round"/>
<circle cx="69" cy="112" r="3" fill="white"/>
</svg>
