<svg width="136" height="164" viewBox="0 0 136 164" fill="none" xmlns="http://www.w3.org/2000/svg">
<mask id="path-1-inside-1_1353_235" fill="white">
<rect x="46" y="38" width="44" height="89" rx="3"/>
</mask>
<rect x="46" y="38" width="44" height="89" rx="3" stroke="white" stroke-width="7" mask="url(#path-1-inside-1_1353_235)"/>
<path d="M68 48.8008C72.1419 48.8008 75.3535 51.9795 75.3535 55.7246C75.3535 59.4696 72.1418 62.6484 68 62.6484C63.8581 62.6484 60.6465 59.4697 60.6465 55.7246C60.6465 51.9795 63.8581 48.8008 68 48.8008Z" stroke="white" stroke-width="3.5"/>
<path d="M68 75.1992C72.0707 75.1993 75.3535 78.4775 75.3535 82.5C75.3535 86.5226 72.0707 89.8007 68 89.8008C63.9292 89.8008 60.6465 86.5226 60.6465 82.5C60.6465 78.4774 63.9292 75.1992 68 75.1992Z" stroke="white" stroke-width="3.5"/>
<path d="M68.7578 102.352C72.8997 102.352 76.1113 105.53 76.1113 109.275C76.1113 113.02 72.8996 116.199 68.7578 116.199C64.6159 116.199 61.4044 113.02 61.4043 109.275C61.4043 105.53 64.6159 102.352 68.7578 102.352Z" fill="white" stroke="white" stroke-width="3.5"/>
</svg>
