<svg width="136" height="164" viewBox="0 0 136 164" fill="none" xmlns="http://www.w3.org/2000/svg">
<path d="M30 80.003H35.3841C46.1142 80.003 57.0074 77.4068 65.1928 70.4688C70.8061 65.7109 74.5201 60.8758 77.2916 54.1087C78.4266 51.3374 79.9843 47.8885 82.9769 48.0028C85.8318 48.1118 87.6395 51.165 88.1619 53.9738C88.7446 57.1073 88.2769 59.7343 86.9184 63.5599C81.0301 75.8999 76.7128 77.8924 90.3261 76.6171L93.1358 76.3539C98.4182 75.8591 105.322 78.4236 103.479 83.3986C103.38 83.6645 103.269 83.9383 103.145 84.2223C103.08 84.3717 103.001 84.516 102.913 84.6532L102.644 85.0739C102.033 86.0274 102.099 87.264 102.806 88.1479C102.965 88.3461 103.096 88.5665 103.186 88.8036C103.993 90.9124 103.952 92.1531 103.228 94.1766C103.112 94.5014 102.915 94.7909 102.663 95.0268C101.625 95.999 101.717 97.6725 102.855 98.5253L102.898 98.5576C102.996 98.6311 103.09 98.7115 103.17 98.8044C104.476 100.318 103.859 102.523 102.979 104.183C102.729 104.655 102.323 105.022 101.852 105.274C100.399 106.052 99.8193 107.839 100.539 109.323L100.939 110.147C101.379 111.053 101.506 112.109 101.112 113.035C100.684 114.04 100.121 114.762 99.0419 115.336C97.9789 115.902 96.7375 115.996 95.5333 115.987C82.2958 115.882 74.1088 115.587 60.9447 113.638C59.6089 113.44 58.0875 113.057 56.8252 112.577C51.444 110.533 46.2441 108.001 40.4876 108.001H30" stroke="white" stroke-width="3.5"/>
</svg>
