<svg width="136" height="164" viewBox="0 0 136 164" fill="none" xmlns="http://www.w3.org/2000/svg">
<path d="M46.9268 111.986C52.5388 112.111 56.5841 109.958 68.2979 116.373C80.0118 122.788 105.059 108.816 103.309 94.3921C102.886 90.9078 79.6223 59.0898 76.7723 55.8067C73.9224 52.5236 68.1714 55.6398 71.0111 59.7689L78.7468 71.017L76.2011 72.7678L64.3528 55.5396C61.2451 51.5948 55.4581 54.9456 58.5915 59.5018L70.4399 76.73L67.8942 78.4808L52.9124 56.6963C49.5832 51.8554 43.7961 55.2062 47.4191 60.4742L62.401 82.2587L59.9892 83.9172L48.1409 66.689C43.9303 60.5667 37.9269 65.3246 41.8437 71.0198L63.484 102.486C63.484 102.486 56.1045 102.947 49.2866 103.651C42.4688 104.356 41.3148 111.86 46.9268 111.986Z" stroke="white" stroke-width="3.5"/>
<path d="M55.6709 49.6578C56.6131 49.3635 59.1335 48.7058 61.0966 48.5395C65.4795 48.1683 66.8191 49.5661 68.0239 50.0291C69.3376 50.5341 70.9383 49.1756 72.989 48.871C77.3114 48.229 78.8236 49.4316 80.2474 50.0745C81.0239 50.5918 81.9511 51.2942 82.8076 52.0339C83.153 52.3793 83.3172 52.664 83.5253 53.1993" stroke="white" stroke-width="2" stroke-linecap="round"/>
<path d="M71.0659 44.8402C71.1414 44.8402 71.6576 44.8402 73.2658 44.8289C76.1663 44.7952 78.2655 44.9419 78.836 45.2915C79.1306 45.4714 79.4357 45.656 80.2793 46.3208" stroke="white" stroke-width="2" stroke-linecap="round"/>
<path d="M38.1469 61.9775C37.8241 62.0671 36.3465 63.277 35.4631 64.6778C34.2066 66.6702 35.385 70.5207 37.6262 75.1517C39.299 78.2352 40.3794 80.1834 40.7063 80.8087C40.8678 81.1184 41.0203 81.4127 41.36 81.9969" stroke="white" stroke-width="2" stroke-linecap="round"/>
<path d="M31.8277 64.2012C31.8277 64.5051 31.6085 65.9712 31.3069 67.3136C30.8117 69.5174 31.3241 72.7534 31.8277 74.1336C31.9568 74.4839 32.0628 74.8183 32.1943 75.1444C32.3258 75.4704 32.4796 75.7779 32.9884 76.7226" stroke="white" stroke-width="2" stroke-linecap="round"/>
</svg>
