<svg width="136" height="164" viewBox="0 0 136 164" fill="none" xmlns="http://www.w3.org/2000/svg">
<path d="M39.0236 98.0926C40.3241 98.3177 42.4083 98.0926 42.4083 98.0926C45.1093 102.539 49.1164 112.771 52.9006 115.925C70.214 128.925 67.5927 127.09 84.8222 115.925C89.168 112.82 91.0898 102.604 93.8567 98.0926C93.8567 98.0926 95.9423 98.3248 97.2415 98.0926C103.488 96.9765 106.84 87.1647 101.98 83.2634C100.441 82.0276 99.5031 80.83 97.2415 81.3291C98.6668 73.2717 100.154 68.2619 97.2415 60.6971C93.8301 51.8361 88.7703 46.3141 79.6408 42.6443C70.6289 39.0217 64.3751 39.0134 54.5935 43.2889C45.3403 48.4907 39.8008 53.8997 37.6697 63.9209C36.3535 70.1099 37.327 73.7303 39.0234 80.0392L39.0236 80.0396C36.2117 79.6075 35.1712 81.4126 33.6079 83.2634C29.5727 88.0409 32.6895 96.9966 39.0236 98.0926Z" stroke="white" stroke-width="3.5" stroke-linecap="round"/>
<path d="M76.9883 78.155C77.3196 77.9873 78.4671 77.6301 81.8338 77.5679C83.5467 77.5363 84.8379 78.2393 85.9135 78.6754C86.3037 78.9706 86.575 79.2973 86.8388 79.7264C86.99 79.9862 87.1764 80.3313 87.5052 81.0413" stroke="white" stroke-width="3.5" stroke-linecap="round"/>
<path d="M60.6873 77.9128C59.5598 77.5394 57.0258 76.7184 55.2114 76.7178C53.1313 76.717 50.5147 78.1314 48.9437 79.3675C48.4053 79.8751 47.6846 80.6086 47.269 81.0732C46.8534 81.5378 46.7646 81.7113 46.6411 82.1258" stroke="white" stroke-width="3.5" stroke-linecap="round"/>
<path d="M59.8945 107.615C60.2462 107.709 62.8721 108.921 65.8225 109.595C69.4964 110.434 72.3021 109.749 72.9741 109.522C74.1442 109.012 75.6337 108.25 77.0517 107.501C77.7095 107.178 78.2421 106.972 79.2813 106.487" stroke="white" stroke-width="3.5" stroke-linecap="round"/>
</svg>
