<svg width="136" height="164" viewBox="0 0 136 164" fill="none" xmlns="http://www.w3.org/2000/svg">
<path d="M103.932 113.08L64.0545 113.88C64.0545 113.88 39.6737 112.973 33 104C26.3263 95.0269 30.5 86.7618 41 94.2359C48.2617 99.405 54.3 98.9824 62.3185 99.4222M75.1657 100.127L62.3185 99.4222M62.3185 99.4222C47.5 97.3252 53.9356 85.358 62.3503 86.7617C70.7651 88.1654 80.9648 84.5195 87.605 86.837C94.2451 89.1545 101.765 94.232 103.094 94.2359" stroke="white" stroke-width="3.5" stroke-linecap="round"/>
<path d="M61 58C74.2548 58 85 68.7452 85 82C85 83.171 84.914 84.3221 84.752 85.4482C82.1513 85.3068 79.3928 85.5597 76.7373 85.8271C72.2144 86.2827 67.8317 86.801 63.9082 86.1465C58.8797 85.3077 54.2561 88.4247 53.2002 92.4453C52.6452 94.5593 53.1161 96.8425 54.9023 98.6895C54.976 98.7656 55.0533 98.839 55.1309 98.9131C54.9654 98.9024 54.7924 98.8881 54.6133 98.8691C52.1551 98.6095 48.3253 97.5085 43.2852 93.9209C41.7651 92.8389 40.3141 92.0292 38.9502 91.4902C37.6957 88.5794 37 85.371 37 82C37 68.7452 47.7452 58 61 58Z" fill="white"/>
</svg>
