<svg width="136" height="164" viewBox="0 0 136 164" fill="none" xmlns="http://www.w3.org/2000/svg">
<path d="M43.8108 94.5554C44.8867 94.7477 46.6109 94.5554 46.6109 94.5554C48.8453 98.3549 52.1602 107.099 55.2906 109.794L63.4112 116.043C69.0183 121.861 73.0729 120.193 81.6978 109.794C85.2929 107.141 86.8828 98.4103 89.1717 94.5554C89.1717 94.5554 90.897 94.7538 91.9717 94.5554C97.1394 93.6016 99.9121 85.2169 95.8918 81.883C94.6183 80.827 93.8427 79.8036 91.9717 80.2301C93.1509 73.3446 94.381 69.0635 91.9717 62.5989C89.1496 55.0267 84.9639 50.3079 77.4115 47.1718C69.9564 44.0761 64.7829 44.069 56.6911 47.7227C49.0363 52.1679 44.4538 56.7902 42.6908 65.3538C41.602 70.6427 42.4073 73.7365 43.8107 79.1278L43.8108 79.1282C41.4847 78.7589 40.624 80.3014 39.3307 81.883C35.9926 85.9656 38.571 93.6188 43.8108 94.5554Z" stroke="white" stroke-width="3.5" stroke-linecap="round"/>
<path d="M61.9964 84.0317C61.9177 83.936 61.5518 83.7183 60.8332 83.5598C58.8255 83.117 57.3927 83.537 55.9089 84.0355C55.6226 84.1286 55.4384 84.1664 55.1298 84.1934C54.8212 84.2204 54.3937 84.2356 53.9399 84.2618" stroke="white" stroke-width="3.5" stroke-linecap="round"/>
<path d="M75.4453 84.3025C75.5659 84.2284 76.0199 83.8474 76.6807 83.3633C77.2166 82.9706 78.0716 82.8007 79.0743 82.6024C80.735 82.274 81.5 83.0713 82.4332 83.4624C82.969 83.6102 83.5742 83.7094 84.2366 83.8388C84.5629 83.9291 84.8693 84.0694 85.2921 84.2198" stroke="white" stroke-width="3.5" stroke-linecap="round"/>
<path d="M63.7056 105.31C64.1675 105.615 66.7481 106.635 68.4572 106.819C69.0593 106.713 70.2923 106.214 71.7839 105.513C72.3579 105.236 72.5604 105.119 72.7909 104.98" stroke="white" stroke-width="3.5" stroke-linecap="round"/>
<path d="M47 98C47 98.0431 46.9831 98.2945 46.8035 98.9058C46.3325 99.8154 45.848 100.499 45.5123 100.741C45.3435 100.842 45.1779 100.9 45 101" stroke="white" stroke-width="3.5" stroke-linecap="round"/>
<path d="M49 102C49 102.031 48.3933 102.531 47.3787 103.316C46.9708 103.617 46.7802 103.721 46.5856 103.803C46.3911 103.885 46.1985 103.941 46 104" stroke="white" stroke-width="3.5" stroke-linecap="round"/>
<path d="M50 105C50 105.014 49.768 105.268 49.1277 105.907C48.1415 106.834 47.3314 107.513 46.8933 107.743C46.6702 107.844 46.4452 107.911 46 108" stroke="white" stroke-width="3.5" stroke-linecap="round"/>
<path d="M51.9912 107C51.9989 107 52.0067 107 51.9905 107.09C51.9743 107.179 51.9339 107.358 51.481 107.977C51.028 108.596 50.1636 109.649 49 111" stroke="white" stroke-width="3.5" stroke-linecap="round"/>
<path d="M53 110C53 110.23 53 110.459 53 110.833C53 111.206 53 111.717 53 112.104C53 112.492 53 112.742 53 113" stroke="white" stroke-width="3.5" stroke-linecap="round"/>
<path d="M55 112C55 112.027 55 112.053 55 112.549C55 113.045 55 114.009 55 115" stroke="white" stroke-width="3.5" stroke-linecap="round"/>
<path d="M58 113.001C58 112.996 58 112.992 57.8913 113.823C57.7825 114.654 57.5651 116.321 57.453 117.291C57.341 118.261 57.341 118.483 57 119" stroke="white" stroke-width="3.5" stroke-linecap="round"/>
<path d="M61 117C61 117.008 61 117.017 60.9789 117.22C60.9579 117.423 60.9158 117.822 60.757 118.46C60.5981 119.099 60.3238 119.965 60 121" stroke="white" stroke-width="3.5" stroke-linecap="round"/>
<path d="M64 119V122" stroke="white" stroke-width="3.5" stroke-linecap="round"/>
<path d="M67 120V124" stroke="white" stroke-width="3.5" stroke-linecap="round"/>
<path d="M69 122V125" stroke="white" stroke-width="3.5" stroke-linecap="round"/>
<path d="M71 120C71.6374 120 72.2261 120.028 72.6619 120.204C72.8373 120.352 72.92 120.618 72.9673 120.924C73.0147 121.23 73.0242 121.567 72.9019 122" stroke="white" stroke-width="3.5" stroke-linecap="round"/>
<path d="M73 120C73.0269 120 73.3451 120 73.9654 120.024C74.5993 120.097 75.13 120.253 75.4988 120.467C75.6646 120.574 75.7872 120.68 76 121" stroke="white" stroke-width="3.5" stroke-linecap="round"/>
<path d="M76 118C76.2294 118 76.543 118 76.9548 118.03C77.1712 118.061 77.4025 118.122 77.7639 118.28C78.1253 118.438 78.6096 118.691 79 119" stroke="white" stroke-width="3.5" stroke-linecap="round"/>
<path d="M78 116C78.0172 116 78.0343 116 78.4473 116C78.8602 116 79.6685 116 80.308 116C80.9476 116 81.394 116 82 116" stroke="white" stroke-width="3.5" stroke-linecap="round"/>
<path d="M81 112C81.0109 112 81.4521 112.011 82.2046 112.06C82.5216 112.098 82.7069 112.161 82.8336 112.291C82.9604 112.421 83.023 112.615 82.9923 113" stroke="white" stroke-width="3.5" stroke-linecap="round"/>
<path d="M80 114C80 114.014 80.1345 114.163 80.5813 114.421C80.8936 114.536 81.3796 114.619 81.7399 114.662C82.1001 114.705 82.3197 114.705 83 115" stroke="white" stroke-width="3.5" stroke-linecap="round"/>
<path d="M90.0024 96C89.9858 96 90.052 96.2295 90.2701 96.6268C90.4135 96.7947 90.6234 96.8941 90.8569 97.0552C91.0904 97.2164 91.341 97.4364 92 98" stroke="white" stroke-width="3.5" stroke-linecap="round"/>
<path d="M88 99C88.0208 99.0172 88.4026 99.1022 89.0791 99.3202C89.6136 99.6676 89.9579 100.182 90.1749 100.767C90.2835 101.05 90.3891 101.306 91 102" stroke="white" stroke-width="3.5" stroke-linecap="round"/>
<path d="M86 105C86 105.186 86 105.373 86.1144 105.502C86.2288 105.63 86.4576 105.696 86.874 105.731C87.2903 105.766 87.8872 105.768 89 106" stroke="white" stroke-width="3.5" stroke-linecap="round"/>
<path d="M86 107C86 107.016 86 107.281 86.0456 107.782C86.5058 108.639 87.3942 109.027 88.3077 109.394C88.522 109.525 88.7027 109.688 89 110" stroke="white" stroke-width="3.5" stroke-linecap="round"/>
<path d="M83 110C83.0172 110 83.8291 110.017 85.2105 110.096C86.1176 110.263 86.5996 110.526 86.8542 110.861C86.9657 111.04 87.0414 111.238 86.9754 112" stroke="white" stroke-width="3.5" stroke-linecap="round"/>
<path d="M88 102C88.1819 102.204 88.8621 102.749 89.6637 102.937C89.8557 103.008 90.0082 103.138 90.1901 103.3C90.3719 103.463 90.5784 103.654 91 104" stroke="white" stroke-width="3.5" stroke-linecap="round"/>
<path d="M64 97C63.9853 97 63.7081 97.0833 63.1081 97.3584C62.3944 97.8479 61.634 98.35 60.9632 98.6743C60.658 98.8034 60.4242 98.8602 60 99" stroke="white" stroke-width="3.5" stroke-linecap="round"/>
<path d="M65 98C64.9871 98 64.9742 98 64.7955 98.055C64.6169 98.1101 64.2729 98.2202 63.9765 98.3761C63.6801 98.532 63.4419 98.7304 63 99" stroke="white" stroke-width="3.5" stroke-linecap="round"/>
<path d="M67 97.003C67 96.9935 67 96.9839 66.9894 97.3664C66.9788 97.7489 66.9576 98.5236 66 100" stroke="white" stroke-width="3.5" stroke-linecap="round"/>
<path d="M68 98C68.0096 98 68.0191 98 68.1473 98.2084C68.2755 98.4168 68.5221 98.8335 68.6861 99.1424C68.85 99.4512 68.9239 99.6395 69 100" stroke="white" stroke-width="3.5" stroke-linecap="round"/>
<path d="M70 98C70 98.0115 70 98.0231 70 98.2278C70 98.4325 70 98.8301 70 99.1726C70 99.5152 70 99.7905 70 100" stroke="white" stroke-width="3.5" stroke-linecap="round"/>
<path d="M71 97C71.0329 97 71.2399 97.1902 71.5584 97.5996C71.687 97.8187 71.7484 98.061 71.8027 98.3053C71.857 98.5497 71.9025 98.7887 72 99" stroke="white" stroke-width="3.5" stroke-linecap="round"/>
<path d="M73 97.0045C73.0128 96.9785 73.2153 97.0635 73.592 97.2984C73.9325 97.6066 74.4378 98.1098 75.0729 98.64C75.3673 98.8439 75.6051 98.9155 76 99" stroke="white" stroke-width="3.5" stroke-linecap="round"/>
<path d="M75 96C75 96.0109 75.2142 96.0806 75.6523 96.196C76.1036 96.284 76.6546 96.4279 77.2201 96.6352C77.4688 96.7363 77.6395 96.8292 78 97" stroke="white" stroke-width="3.5" stroke-linecap="round"/>
<path d="M63 96C62.98 96 62.96 96 62.1696 96C61.3791 96 59.8187 96 58 96" stroke="white" stroke-width="3.5" stroke-linecap="round"/>
<path d="M60 100C59.973 100 59.7669 100.004 59.0947 100.155C58.6146 100.302 57.8524 100.592 57.3683 100.76C56.8842 100.927 56.7012 100.963 56 101" stroke="white" stroke-width="3.5" stroke-linecap="round"/>
<path d="M61 102C60.5851 102.005 59.3738 102.215 58.241 103.074C57.8447 103.32 57.3068 103.547 56.9055 103.701C56.5042 103.854 56.2559 103.926 56 104" stroke="white" stroke-width="3.5" stroke-linecap="round"/>
<path d="M59 104C59 104.316 58.8206 105.662 58.0221 107.366C57.6685 107.844 57.2629 108.149 56.6983 108.459C56.3852 108.618 56.0182 108.78 55 109" stroke="white" stroke-width="3.5" stroke-linecap="round"/>
<path d="M57 105C56.624 105.048 55.5186 105.332 53.7126 106.505C53.3133 106.76 53.126 106.845 52.915 106.912C52.7041 106.978 52.4752 107.024 52 106.986" stroke="white" stroke-width="3.5" stroke-linecap="round"/>
<path d="M58.9987 108C59.0273 108.279 58.5812 110.016 58.1379 111.253C58.0824 111.488 58.0594 111.769 58.0475 112.059C58.0357 112.35 58.0357 112.643 58 113" stroke="white" stroke-width="3.5" stroke-linecap="round"/>
<path d="M61 112V114" stroke="white" stroke-width="3.5" stroke-linecap="round"/>
<path d="M77 100.002C77 99.9802 77.2492 100.109 77.8037 100.482C78.4633 101.036 79.0325 101.489 79.5704 101.705C79.904 101.799 80.3605 101.86 81 102" stroke="white" stroke-width="3.5" stroke-linecap="round"/>
<path d="M77 102C77 102.069 77 102.429 77.0821 102.958C77.3285 103.236 77.6691 103.368 78.0652 103.533C78.2901 103.644 78.5633 103.807 79 104" stroke="white" stroke-width="3.5" stroke-linecap="round"/>
<path d="M77 105C77 105.053 77.056 105.314 77.3573 105.868C78.0356 106.586 78.6689 107.245 79.0536 107.662C79.251 107.831 79.4528 107.914 80 108" stroke="white" stroke-width="3.5" stroke-linecap="round"/>
<path d="M80.0027 105C79.9945 105 79.9863 105 80.2877 105.082C80.5892 105.164 81.2006 105.328 81.6469 105.432C82.0931 105.536 82.3558 105.575 83 106" stroke="white" stroke-width="3.5" stroke-linecap="round"/>
<path d="M77 108C77 108.091 77 108.182 77 108.986C77 109.79 77 111.304 77 113" stroke="white" stroke-width="3.5" stroke-linecap="round"/>
<path d="M74 111C74 111.028 74 112.011 74 113.649C74 114.318 74 114.658 74 114.993C74 115.327 74 115.646 74 116" stroke="white" stroke-width="3.5" stroke-linecap="round"/>
<path d="M72 114C71.9809 114 71.774 114.143 71.1695 114.761C70.7621 115.235 70.1502 116.035 69.7819 116.57C69.4136 117.106 69.3075 117.351 69 118" stroke="white" stroke-width="3.5" stroke-linecap="round"/>
<path d="M68 115C68 115.011 68 115.022 67.9677 115.141C67.9355 115.261 67.871 115.489 67.5412 116.128C67.2114 116.766 66.6183 117.808 66 119" stroke="white" stroke-width="3.5" stroke-linecap="round"/>
<path d="M64 114C64 114.026 64 114.234 64 114.632C64 114.834 64 115.038 64 115.235C64 115.433 64 115.617 64 116" stroke="white" stroke-width="3.5" stroke-linecap="round"/>
<path d="M42 72C41.4259 71.9485 40.8519 71.8969 40.0491 71.7445C39.2464 71.5921 38.2323 71.3404 37 71" stroke="white" stroke-width="3.5" stroke-linecap="round"/>
<path d="M38 75H41" stroke="white" stroke-width="3.5" stroke-linecap="round"/>
<path d="M42 77C41.9642 77 41.7091 77 41.2372 77C41.002 77 40.7753 77 40.5692 77C40.363 77 40.1842 77 40 77" stroke="white" stroke-width="3.5" stroke-linecap="round"/>
<path d="M93 78H97" stroke="white" stroke-width="3.5" stroke-linecap="round"/>
<path d="M94 76H98" stroke="white" stroke-width="3.5" stroke-linecap="round"/>
<path d="M95 73H98" stroke="white" stroke-width="3.5" stroke-linecap="round"/>
<path d="M95.0015 71C94.9958 71 94.9901 71 95.3024 71C95.6147 71 96.2451 71 97 71" stroke="white" stroke-width="3.5" stroke-linecap="round"/>
<path d="M94 69C94.0083 69 94.0165 69 94.1245 68.9626C94.2324 68.9253 94.4397 68.8505 94.7406 68.6948C95.0415 68.5391 95.4296 68.3046 96 68" stroke="white" stroke-width="3.5" stroke-linecap="round"/>
<path d="M94.001 66C93.9842 66 94.1727 65.674 94.6018 65.0468C94.8337 64.7454 95.0943 64.4786 95.3337 64.3076C95.5731 64.1365 95.7834 64.0693 96 64" stroke="white" stroke-width="3.5" stroke-linecap="round"/>
<path d="M39 65H41" stroke="white" stroke-width="3.5" stroke-linecap="round"/>
<path d="M41 68C41 68 41 68 40.8992 68C40.7984 68 40.5968 68 40.2698 68C39.9429 68 39.4966 68 39 68" stroke="white" stroke-width="3.5" stroke-linecap="round"/>
<path d="M42 61C41.9789 61 41.9577 61 41.7124 61C41.4671 61 40.9982 61 40.6717 61C40.3451 61 40.1751 61 40 61" stroke="white" stroke-width="3.5" stroke-linecap="round"/>
<path d="M44 59C43.9865 59 43.9731 59 43.8735 59C43.7739 59 43.5885 59 43 59" stroke="white" stroke-width="3.5" stroke-linecap="round"/>
<path d="M45 56C44.9813 56 44.6122 56 43.9483 55.9427C43.6438 55.8855 43.4051 55.7709 43.154 55.6351C42.9028 55.4992 42.6466 55.3455 42 55" stroke="white" stroke-width="3.5" stroke-linecap="round"/>
<path d="M47 55C46.9943 55 46.9886 55 46.9104 54.9346C46.8322 54.8692 46.6817 54.7384 46.5329 54.5844C46.3842 54.4303 46.2418 54.257 46 54" stroke="white" stroke-width="3.5" stroke-linecap="round"/>
<path d="M48 53C47.8615 52.7947 47.723 52.5895 47.5658 52.3922C47.4086 52.1949 47.2369 52.0117 47.0014 51.8127C46.7658 51.6136 46.4716 51.4042 46 51" stroke="white" stroke-width="3.5" stroke-linecap="round"/>
<path d="M62 45C62 44.9926 62 44.9852 62 44.7325C62 44.4798 62 43.9819 62 43" stroke="white" stroke-width="3.5" stroke-linecap="round"/>
<path d="M60 46C59.9176 45.767 59.6832 45.058 59.3874 44.6671C58.4129 44.23 57.725 43.7681 57.477 43.4514C57.3416 43.3007 57.1869 43.1702 57 43" stroke="white" stroke-width="3.5" stroke-linecap="round"/>
<path d="M56 48C55.8113 47.8035 55.3059 46.8962 54.5123 46.3209C54.3031 46.2319 54.1329 46.1697 53.9337 46.0366C53.7344 45.9035 53.5114 45.7012 53 45" stroke="white" stroke-width="3.5" stroke-linecap="round"/>
<path d="M51 49.984C50.9859 50.0022 50.7334 50.0206 50.2881 49.9437C49.9404 49.6764 49.6392 49.3508 49.3578 48.9642C49.2254 48.7163 49.1144 48.3635 49 48" stroke="white" stroke-width="3.5" stroke-linecap="round"/>
<path d="M65 44C65 43.9862 65 43.5239 65 42.7261C65 42.3834 65 42.1671 65 41.7349C65 41.3026 65 40.661 65 40" stroke="white" stroke-width="3.5" stroke-linecap="round"/>
<path d="M68 44C68.0121 44 68.0243 44 68.0366 43.7217C68.0489 43.4435 68.0611 42.8869 68.2202 42.3835C68.3793 41.8801 68.685 41.4466 69 41" stroke="white" stroke-width="3.5" stroke-linecap="round"/>
<path d="M72 43.9989C72 44.0161 72.1415 43.8379 72.4523 43.4098C72.8145 42.8795 73.1879 42.415 73.4988 42.0287C73.6349 41.8087 73.7271 41.5401 74 41" stroke="white" stroke-width="3.5" stroke-linecap="round"/>
<path d="M75 45C75.0135 45 75.2061 44.937 75.5687 44.8039C75.7455 44.7337 75.9079 44.6584 76.1441 44.5237C76.3804 44.3891 76.6856 44.1974 77 44" stroke="white" stroke-width="3.5" stroke-linecap="round"/>
<path d="M79 47C79.0102 47 79.0203 47 79.2431 46.7503C79.4658 46.5006 79.9008 46.0011 80.2323 45.6688C80.5639 45.3364 80.7787 45.1862 81 45" stroke="white" stroke-width="3.5" stroke-linecap="round"/>
<path d="M83 49C83.0174 48.9976 83.0349 48.9953 83.1386 48.904C83.2423 48.8128 83.4318 48.6327 83.7264 48.3181C84.021 48.0036 84.4149 47.5601 85 47" stroke="white" stroke-width="3.5" stroke-linecap="round"/>
<path d="M92 60C92.0156 60 92.0312 60 92.1808 59.9361C92.3305 59.8722 92.6137 59.7443 92.9234 59.5895C93.2331 59.4346 93.5607 59.2567 94 59" stroke="white" stroke-width="3.5" stroke-linecap="round"/>
<path d="M90 58C90 57.9939 90 57.9878 90.0515 57.9007C90.103 57.8137 90.206 57.6459 90.5227 57.3241C90.8394 57.0024 91.3667 56.5318 92 56" stroke="white" stroke-width="3.5" stroke-linecap="round"/>
<path d="M88 53.9994C88 54.0152 88.3208 53.7348 88.9459 53.2214C89.25 52.9966 89.5278 52.8441 89.7799 52.6987C90.0321 52.5533 90.2501 52.4196 91 52" stroke="white" stroke-width="3.5" stroke-linecap="round"/>
<path d="M86.0002 52C85.9933 51.9437 86.1761 51.6343 86.5245 51.1454C86.8184 50.8093 87.1264 50.5701 87.4703 50.3541C87.6423 50.2456 87.8089 50.1393 88 50" stroke="white" stroke-width="3.5" stroke-linecap="round"/>
<path d="M94 62C94.0046 62 94.0092 62 94.1421 62C94.275 62 94.5361 62 95 62" stroke="white" stroke-width="3.5" stroke-linecap="round"/>
</svg>
