<svg width="398" height="90" viewBox="0 0 398 90" fill="none" xmlns="http://www.w3.org/2000/svg">
<path d="M37.0186 12.0233C42.5699 10.257 47.7306 9.61507 52.6768 10.3436C57.6266 11.0728 62.3293 13.1701 66.9688 16.829C72.7138 21.36 76.1778 26.5752 77.8574 32.5467C79.5339 38.5073 79.4226 45.1857 78.082 52.6346L78.0771 52.6639L78.0684 52.6922C76.7964 56.8451 75.4447 60.4674 73.083 63.8426C70.7182 67.2221 67.362 70.3254 62.1182 73.4862L62.084 73.5057L62.0479 73.5213C58.1664 75.0945 54.9998 76.1276 51.4736 76.4989C47.9483 76.87 44.0949 76.5756 38.835 75.5418L38.8057 75.537L38.7783 75.5282C36.1248 74.6776 34.5137 74.104 31.3604 72.703H9L10.3955 71.785L10.3965 71.784C10.3974 71.7834 10.3987 71.7822 10.4004 71.7811C10.4046 71.7783 10.4113 71.7742 10.4199 71.7684C10.4374 71.7567 10.4643 71.7385 10.499 71.7147C10.5687 71.667 10.672 71.5954 10.8027 71.5018C11.0648 71.3142 11.4381 71.0375 11.8799 70.6854C12.7652 69.9798 13.9191 68.9751 15.001 67.7733C17.1995 65.3311 18.9481 62.2526 17.9287 59.2596C15.678 52.6516 14.4343 45.6628 16.4141 37.2694C19.3162 24.9659 25.7949 15.5945 37.0186 12.0233ZM48.0879 16.7225C43.5048 16.7225 39.391 17.7639 35.748 19.8456C32.1053 21.9104 29.2265 24.9153 27.1113 28.8602C24.9961 32.8053 23.9385 37.5898 23.9385 43.2137C23.9385 48.8208 24.9961 53.5967 27.1113 57.5418C29.2266 61.487 32.1051 64.5012 35.748 66.5829C39.391 68.6646 43.5048 69.7049 48.0879 69.7049C52.6372 69.7049 56.7331 68.6721 60.376 66.6073C64.0357 64.5256 66.9238 61.5124 69.0391 57.5672C71.171 53.6222 72.2363 48.8375 72.2363 43.2137C72.2363 37.5899 71.171 32.8053 69.0391 28.8602C66.9238 24.9151 64.0357 21.9105 60.376 19.8456C56.7331 17.7639 52.6372 16.7226 48.0879 16.7225ZM48.0879 26.367C50.7234 26.3671 53.0232 27.0139 54.9873 28.3065C56.9513 29.5991 58.4705 31.4958 59.5449 33.9969C60.6361 36.4983 61.1816 39.5708 61.1816 43.2137C61.1816 46.8567 60.6361 49.9291 59.5449 52.4305C58.4706 54.9317 56.9513 56.8283 54.9873 58.121C53.0232 59.4135 50.7234 60.0603 48.0879 60.0604C45.4522 60.0604 43.1517 59.4136 41.1875 58.121C39.2235 56.8283 37.6956 54.9317 36.6045 52.4305C35.5301 49.9291 34.9932 46.8567 34.9932 43.2137C34.9932 39.5708 35.5301 36.4983 36.6045 33.9969C37.6957 31.4958 39.2235 29.5991 41.1875 28.3065C43.1517 27.0138 45.4522 26.367 48.0879 26.367Z" fill="white"/>
<path d="M88.1077 83.5047V30.3208H93.8492V36.4651H94.5543C94.9907 35.7936 95.5951 34.9375 96.3673 33.8966C97.1564 32.839 98.2812 31.8989 99.7417 31.0762C101.219 30.2369 103.217 29.8172 105.735 29.8172C108.992 29.8172 111.863 30.6314 114.347 32.2598C116.832 33.8882 118.771 36.1965 120.164 39.1848C121.558 42.173 122.254 45.6985 122.254 49.7611C122.254 53.8574 121.558 57.408 120.164 60.413C118.771 63.4013 116.84 65.718 114.372 67.3632C111.904 68.9916 109.059 69.8058 105.836 69.8058C103.351 69.8058 101.362 69.3945 99.8676 68.5719C98.3735 67.7325 97.2235 66.784 96.4177 65.7264C95.6119 64.6519 94.9907 63.7622 94.5543 63.0571H94.0506V83.5047H88.1077ZM93.9499 49.6604C93.9499 52.5815 94.378 55.1584 95.2342 57.3912C96.0903 59.6072 97.341 61.3447 98.9862 62.6038C100.631 63.8461 102.646 64.4673 105.03 64.4673C107.514 64.4673 109.588 63.8126 111.25 62.5031C112.929 61.1769 114.188 59.3973 115.027 57.1646C115.883 54.915 116.311 52.4136 116.311 49.6604C116.311 46.9408 115.892 44.4897 115.052 42.3073C114.23 40.1081 112.979 38.3706 111.3 37.0947C109.638 35.802 107.548 35.1557 105.03 35.1557C102.612 35.1557 100.581 35.7684 98.9359 36.994C97.2907 38.2027 96.0484 39.8983 95.209 42.0807C94.3696 44.2463 93.9499 46.7729 93.9499 49.6604ZM147.537 69.8058C143.81 69.8058 140.595 68.9832 137.892 67.338C135.206 65.676 133.133 63.3593 131.672 60.3878C130.228 57.3996 129.507 53.9245 129.507 49.9626C129.507 46.0006 130.228 42.5088 131.672 39.487C133.133 36.4484 135.164 34.0813 137.766 32.3857C140.385 30.6733 143.44 29.8172 146.932 29.8172C148.947 29.8172 150.936 30.1529 152.9 30.8244C154.865 31.4959 156.653 32.5872 158.264 34.0981C159.876 35.5922 161.16 37.5731 162.117 40.041C163.074 42.5088 163.552 45.5474 163.552 49.1568V51.6749H133.737V46.5379H157.509C157.509 44.3554 157.072 42.408 156.199 40.6957C155.343 38.9833 154.118 37.6319 152.523 36.6414C150.945 35.6509 149.081 35.1557 146.932 35.1557C144.565 35.1557 142.517 35.7433 140.788 36.9184C139.076 38.0768 137.758 39.5877 136.834 41.4511C135.911 43.3146 135.449 45.3123 135.449 47.4444V50.8691C135.449 53.7902 135.953 56.2664 136.96 58.2977C137.984 60.3123 139.403 61.8484 141.216 62.906C143.029 63.9469 145.136 64.4673 147.537 64.4673C149.098 64.4673 150.508 64.249 151.767 63.8126C153.043 63.3593 154.143 62.6878 155.066 61.798C155.989 60.8915 156.703 59.7667 157.207 58.4237L162.948 60.0353C162.344 61.9827 161.328 63.695 159.901 65.1724C158.474 66.6329 156.711 67.7745 154.613 68.5971C152.514 69.4029 150.156 69.8058 147.537 69.8058ZM178.535 45.732V69H172.593V30.3208H178.334V36.3644H178.838C179.744 34.4002 181.121 32.8222 182.967 31.6302C184.814 30.4215 187.198 29.8172 190.119 29.8172C192.738 29.8172 195.03 30.3544 196.994 31.4288C198.958 32.4864 200.486 34.0981 201.577 36.2637C202.668 38.4125 203.214 41.1322 203.214 44.4226V69H197.271V44.8255C197.271 41.7869 196.482 39.4198 194.904 37.7242C193.326 36.0119 191.16 35.1557 188.407 35.1557C186.51 35.1557 184.814 35.567 183.32 36.3896C181.843 37.2122 180.676 38.4125 179.82 39.9906C178.964 41.5687 178.535 43.4825 178.535 45.732ZM213.393 17.4277L228.704 60.8411H229.308L244.619 17.4277H251.166L232.229 69H225.783L206.846 17.4277H213.393ZM270.506 69.8058C267.014 69.8058 263.95 68.9748 261.314 67.3128C258.695 65.6508 256.647 63.3257 255.17 60.3375C253.709 57.3492 252.979 53.8574 252.979 49.8618C252.979 45.8328 253.709 42.3157 255.17 39.3107C256.647 36.3057 258.695 33.9721 261.314 32.3102C263.95 30.6482 267.014 29.8172 270.506 29.8172C273.997 29.8172 277.053 30.6482 279.672 32.3102C282.307 33.9721 284.356 36.3057 285.816 39.3107C287.293 42.3157 288.032 45.8328 288.032 49.8618C288.032 53.8574 287.293 57.3492 285.816 60.3375C284.356 63.3257 282.307 65.6508 279.672 67.3128C277.053 68.9748 273.997 69.8058 270.506 69.8058ZM270.506 64.4673C273.158 64.4673 275.341 63.7874 277.053 62.4276C278.765 61.0677 280.033 59.2798 280.855 57.0638C281.678 54.8478 282.089 52.4472 282.089 49.8618C282.089 47.2765 281.678 44.8675 280.855 42.6347C280.033 40.4019 278.765 38.5972 277.053 37.2206C275.341 35.844 273.158 35.1557 270.506 35.1557C267.853 35.1557 265.671 35.844 263.958 37.2206C262.246 38.5972 260.979 40.4019 260.156 42.6347C259.333 44.8675 258.922 47.2765 258.922 49.8618C258.922 52.4472 259.333 54.8478 260.156 57.0638C260.979 59.2798 262.246 61.0677 263.958 62.4276C265.671 63.7874 267.853 64.4673 270.506 64.4673ZM297.104 69V30.3208H303.047V69H297.104ZM300.126 23.8743C298.967 23.8743 297.968 23.4797 297.129 22.6907C296.306 21.9017 295.895 20.9532 295.895 19.8452C295.895 18.7372 296.306 17.7887 297.129 16.9996C297.968 16.2106 298.967 15.8161 300.126 15.8161C301.284 15.8161 302.275 16.2106 303.097 16.9996C303.937 17.7887 304.356 18.7372 304.356 19.8452C304.356 20.9532 303.937 21.9017 303.097 22.6907C302.275 23.4797 301.284 23.8743 300.126 23.8743ZM329.645 69.8058C326.019 69.8058 322.896 68.9496 320.277 67.2373C317.658 65.5249 315.644 63.1662 314.234 60.1612C312.824 57.1562 312.119 53.7231 312.119 49.8618C312.119 45.9335 312.84 42.4668 314.284 39.4618C315.745 36.44 317.776 34.0813 320.378 32.3857C322.997 30.6733 326.052 29.8172 329.544 29.8172C332.264 29.8172 334.715 30.3208 336.897 31.3281C339.08 32.3353 340.868 33.7455 342.261 35.5586C343.654 37.3717 344.519 39.487 344.855 41.9044H338.912C338.459 40.1417 337.451 38.5804 335.89 37.2206C334.346 35.844 332.264 35.1557 329.645 35.1557C327.328 35.1557 325.297 35.7601 323.551 36.9688C321.822 38.1607 320.47 39.8479 319.497 42.0303C318.54 44.1959 318.061 46.7393 318.061 49.6604C318.061 52.6486 318.531 55.2508 319.472 57.4667C320.428 59.6827 321.772 61.4035 323.501 62.629C325.247 63.8545 327.295 64.4673 329.645 64.4673C331.189 64.4673 332.591 64.1987 333.85 63.6615C335.109 63.1243 336.175 62.352 337.048 61.3447C337.921 60.3375 338.543 59.1287 338.912 57.7186H344.855C344.519 60.0017 343.688 62.0582 342.362 63.8881C341.052 65.7012 339.315 67.1449 337.149 68.2194C335 69.277 332.499 69.8058 329.645 69.8058ZM369.76 69.8058C366.033 69.8058 362.818 68.9832 360.115 67.338C357.429 65.676 355.356 63.3593 353.895 60.3878C352.451 57.3996 351.729 53.9245 351.729 49.9626C351.729 46.0006 352.451 42.5088 353.895 39.487C355.356 36.4484 357.387 34.0813 359.989 32.3857C362.608 30.6733 365.663 29.8172 369.155 29.8172C371.17 29.8172 373.159 30.1529 375.123 30.8244C377.087 31.4959 378.875 32.5872 380.487 34.0981C382.099 35.5922 383.383 37.5731 384.34 40.041C385.297 42.5088 385.775 45.5474 385.775 49.1568V51.6749H355.96V46.5379H379.732C379.732 44.3554 379.295 42.408 378.422 40.6957C377.566 38.9833 376.34 37.6319 374.746 36.6414C373.168 35.6509 371.304 35.1557 369.155 35.1557C366.788 35.1557 364.74 35.7433 363.011 36.9184C361.298 38.0768 359.981 39.5877 359.057 41.4511C358.134 43.3146 357.672 45.3123 357.672 47.4444V50.8691C357.672 53.7902 358.176 56.2664 359.183 58.2977C360.207 60.3123 361.626 61.8484 363.439 62.906C365.252 63.9469 367.359 64.4673 369.76 64.4673C371.321 64.4673 372.731 64.249 373.99 63.8126C375.266 63.3593 376.366 62.6878 377.289 61.798C378.212 60.8915 378.926 59.7667 379.429 58.4237L385.171 60.0353C384.566 61.9827 383.551 63.695 382.124 65.1724C380.697 66.6329 378.934 67.7745 376.836 68.5971C374.737 69.4029 372.378 69.8058 369.76 69.8058Z" fill="white"/>
</svg>
