<svg width="136" height="164" viewBox="0 0 136 164" fill="none" xmlns="http://www.w3.org/2000/svg">
<path d="M32.5 81L66.8477 51.0685C67.2222 50.7421 67.7795 50.7401 68.1563 51.0639L103 81" stroke="white" stroke-width="3.5" stroke-linecap="round"/>
<path d="M66.8646 63.5462L39.3481 87.2007C39.1271 87.3907 39 87.6676 39 87.9591V116.5C39 117.052 39.4477 117.5 40 117.5H56.5C57.0523 117.5 57.5 117.052 57.5 116.5V95.5C57.5 94.9477 57.9477 94.5 58.5 94.5H76C76.5523 94.5 77 94.9477 77 95.5V116.5C77 117.052 77.4477 117.5 78 117.5H96.5C97.0523 117.5 97.5 117.052 97.5 116.5V87.9744C97.5 87.6742 97.3651 87.3898 97.1325 87.1999L68.149 63.53C67.7735 63.2234 67.2322 63.2302 66.8646 63.5462Z" stroke="white" stroke-width="3.5" stroke-linecap="round"/>
</svg>
