<svg width="136" height="164" viewBox="0 0 136 164" fill="none" xmlns="http://www.w3.org/2000/svg">
<path fill-rule="evenodd" clip-rule="evenodd" d="M84.2197 107.293C84.2197 105.76 85.5854 104.581 87.0941 104.856C98.4003 106.913 106 110.741 106 115.124C106 121.683 88.9867 126.999 68 126.999C47.0133 126.999 30.0001 121.683 30 115.124C30.0001 110.803 37.3874 107.022 48.4309 104.944C49.943 104.66 51.3174 105.84 51.3174 107.379C51.3174 108.611 50.4228 109.656 49.2125 109.886C46.785 110.347 44.5723 110.89 42.6211 111.5C39.4548 112.49 37.2556 113.564 35.957 114.524C35.5423 114.83 35.5423 115.418 35.957 115.725C37.2557 116.684 39.4547 117.76 42.6211 118.749C48.8945 120.71 57.8685 121.999 68 121.999C78.1315 121.999 87.1055 120.71 93.3789 118.749C96.5453 117.76 98.7443 116.684 100.043 115.725C100.457 115.419 100.457 114.83 100.043 114.524C98.7444 113.564 96.5452 112.49 93.3789 111.5C91.3081 110.853 88.9428 110.281 86.3389 109.802C85.1219 109.579 84.2197 108.531 84.2197 107.293Z" fill="white"/>
<path d="M53.2337 115.283C50.0965 112.345 49.772 108.257 51.1586 104.455C52.5194 100.723 55.6603 97.4174 57.5156 93.8482C60.9138 87.3113 60.688 76.7039 51.835 75.1398C44.1031 73.7738 40.4791 82.8132 44.9381 84.9655C48.7816 86.8208 50.6284 82.9655 49.1899 81.0703" stroke="white" stroke-width="3.5" stroke-linecap="round"/>
<path d="M68.1438 112.211C67.6179 111.799 66.1919 110.066 65.5509 107.422C64.9434 104.915 65.6423 102.833 66.0577 101.928C67.0061 99.8631 70.1289 97.2831 71.9558 94.6233C78.355 85.307 73.3569 78.4444 69.6027 69.827C65.4781 60.3596 67.9082 47.8933 77.0085 42.3063C86.2899 36.6082 94.8383 42.2491 97.4051 50.7179C100.255 60.121 93.3041 67.0519 84.4194 67.5433C78.6686 67.8614 73.6999 57.6671 78.414 53.9323C81.5764 51.4268 86.6081 52.1889 87.5394 56.2381C87.6325 56.8077 87.6554 57.4056 87.679 58.0215" stroke="white" stroke-width="3.5" stroke-linecap="round"/>
<path d="M85.9743 110.387C81.6989 107.891 82.891 104.312 87.2934 102.886C90.4745 101.855 94.6654 96.9435 94.9627 93.6327C95.4419 88.2988 90.7331 86.0324 86.1781 86.3565C82.0903 86.6473 78.3853 94.0529 82.3829 96.5478C83.7239 97.3847 87.0276 97.6944 88.1165 96.2701C89.2858 94.2049 88.6811 92.656 86.2749 92.8836" stroke="white" stroke-width="3.5" stroke-linecap="round"/>
</svg>
