<svg width="136" height="164" viewBox="0 0 136 164" fill="none" xmlns="http://www.w3.org/2000/svg">
<path d="M74.1396 45.8306L72.5504 45.0978L72.5502 45.0983L74.1396 45.8306ZM78.2627 44.2661L78.9662 42.6637L78.9662 42.6637L78.2627 44.2661ZM86.4658 47.8677L87.1694 46.2653L87.1693 46.2653L86.4658 47.8677ZM88.1396 51.8765L89.7735 52.5034L89.7737 52.503L88.1396 51.8765ZM86.1855 56.9692L87.8194 57.5962L87.8194 57.5961L86.1855 56.9692ZM86.665 59.4595L87.9493 58.2707L87.9492 58.2706L86.665 59.4595ZM89.5566 62.5835L88.2724 63.7722L88.2726 63.7725L89.5566 62.5835ZM92.166 63.1978L92.7843 64.8349L92.7843 64.8349L92.166 63.1978ZM97.5312 61.1714L96.913 59.5342L96.9129 59.5343L97.5312 61.1714ZM101.538 62.8804L103.148 62.1942L103.148 62.1938L101.538 62.8804ZM104.984 70.9663L103.374 71.6525L103.375 71.6525L104.984 70.9663ZM103.404 75.0591L104.136 76.649L104.136 76.649L103.404 75.0591ZM98.1895 77.4575L98.9205 79.0475L98.9207 79.0474L98.1895 77.4575ZM96.792 79.6382L95.042 79.6379V79.6382H96.792ZM98.0322 85.3647L97.1868 86.897L97.1869 86.897L98.0322 85.3647ZM103.65 88.4644L104.496 86.9321L104.496 86.9321L103.65 88.4644ZM105.006 92.4976L106.605 93.2081L106.605 93.208L105.006 92.4976ZM101.526 100.329L103.126 101.039L103.126 101.039L101.526 100.329ZM97.626 102.026L97.0559 103.68L97.0564 103.681L97.626 102.026ZM92.0508 100.105L92.6208 98.4504L92.6207 98.4504L92.0508 100.105ZM89.5889 100.661L88.3643 99.4105L88.364 99.4107L89.5889 100.661ZM86.7695 103.423L85.5447 102.173L85.5447 102.173L86.7695 103.423ZM86.2021 105.981L84.5635 106.595L84.5636 106.595L86.2021 105.981ZM88.1602 111.202L89.7987 110.587L89.7987 110.587L88.1602 111.202ZM86.459 115.197L87.1514 116.804L87.1519 116.804L86.459 115.197ZM78.2285 118.743L77.5361 117.135L77.536 117.136L78.2285 118.743ZM74.1367 117.195L72.5537 117.941L72.5537 117.941L74.1367 117.195ZM71.6562 111.931L73.2393 111.185L73.2391 111.185L71.6562 111.931ZM69.4854 110.554L69.4856 108.804H69.4854V110.554ZM65.8027 110.554V108.804H65.8025L65.8027 110.554ZM63.6611 111.872L62.0997 111.081L62.0995 111.082L63.6611 111.872ZM60.9326 117.266L59.371 116.476L59.371 116.476L60.9326 117.266ZM56.8359 118.716L56.1191 120.313L56.1191 120.313L56.8359 118.716ZM49.0156 115.205L48.2986 116.801L48.2987 116.801L49.0156 115.205ZM47.3477 111.258L48.9923 111.856L48.9923 111.856L47.3477 111.258ZM49.2764 105.954L50.921 106.552L50.9211 106.551L49.2764 105.954ZM48.7178 103.436L47.4803 104.673H47.4803L48.7178 103.436ZM45.9521 100.67L47.1896 99.433L47.1896 99.4329L45.9521 100.67ZM43.4961 100.09L42.943 98.43L42.9427 98.4301L43.4961 100.09ZM37.6631 102.035L38.2165 103.695L38.2165 103.695L37.6631 102.035ZM33.7559 100.242L35.3754 99.5786L35.3753 99.5786L33.7559 100.242ZM30.2354 91.644L28.6157 92.3069L28.6159 92.3072L30.2354 91.644ZM31.9346 87.5483L31.2603 85.9335L31.2601 85.9335L31.9346 87.5483ZM37.3955 85.2681L38.0698 86.8829L38.0702 86.8828L37.3955 85.2681ZM38.8711 79.6714H40.6211V79.6711L38.8711 79.6714ZM37.4365 77.4741L38.141 75.8722L38.1407 75.872L37.4365 77.4741ZM31.8975 75.0396L31.1933 76.6416L31.1933 76.6416L31.8975 75.0396ZM30.2686 70.9243L28.6588 70.238L28.6587 70.2381L30.2686 70.9243ZM33.709 62.855L32.0992 62.1686L32.0992 62.1686L33.709 62.855ZM37.6836 61.1333L37.0828 62.7769L37.0828 62.7769L37.6836 61.1333ZM43.3799 63.2153L43.9807 61.5717L43.9806 61.5717L43.3799 63.2153ZM45.9814 62.5747L47.2773 63.7508L47.2775 63.7506L45.9814 62.5747ZM48.8203 59.4458L50.1164 60.6217L50.1165 60.6215L48.8203 59.4458ZM49.293 56.9956L50.9331 56.3854L50.933 56.3851L49.293 56.9956ZM47.3662 51.8198L45.726 52.4299L45.7262 52.4304L47.3662 51.8198ZM49.0068 47.8608L49.7351 49.4521L49.7351 49.4521L49.0068 47.8608ZM56.8018 44.2935L56.0739 42.702L56.0735 42.7022L56.8018 44.2935ZM60.9316 45.7603L62.5004 44.9847L62.5003 44.9844L60.9316 45.7603ZM63.6689 51.2974L62.1002 52.0729L62.1003 52.0731L63.6689 51.2974ZM65.8203 52.6333L65.8202 54.3833H65.8203V52.6333ZM69.4688 52.6333V54.3833H69.469L69.4688 52.6333ZM71.6484 51.2378L73.2378 51.9702L73.2379 51.9701L71.6484 51.2378ZM67.5625 62.436V60.686H67.5625L67.5625 62.436ZM48.4346 81.564L46.6846 81.5639V81.564L48.4346 81.564ZM67.5625 100.692L67.5625 102.442H67.5625V100.692ZM86.6904 81.564L88.4404 81.564V81.5639L86.6904 81.564ZM74.1396 45.8306L75.7289 46.5633C76.0479 45.8714 76.8625 45.5626 77.5592 45.8685L78.2627 44.2661L78.9662 42.6637C76.5214 41.5904 73.6679 42.6743 72.5504 45.0978L74.1396 45.8306ZM78.2627 44.2661L77.5592 45.8685L85.7623 49.47L86.4658 47.8677L87.1693 46.2653L78.9662 42.6637L78.2627 44.2661ZM86.4658 47.8677L85.7623 49.47C86.4452 49.7699 86.7724 50.5541 86.5056 51.25L88.1396 51.8765L89.7737 52.503C90.7095 50.0622 89.5624 47.3161 87.1694 46.2653L86.4658 47.8677ZM88.1396 51.8765L86.5058 51.2496L84.5517 56.3423L86.1855 56.9692L87.8194 57.5961L89.7735 52.5034L88.1396 51.8765ZM86.1855 56.9692L84.5517 56.3423C83.9853 57.8183 84.3066 59.4881 85.3809 60.6484L86.665 59.4595L87.9492 58.2706C87.781 58.0889 87.7306 57.8276 87.8194 57.5962L86.1855 56.9692ZM86.665 59.4595L85.3807 60.6482L88.2724 63.7722L89.5566 62.5835L90.8409 61.3948L87.9493 58.2707L86.665 59.4595ZM89.5566 62.5835L88.2726 63.7725C89.4205 65.0122 91.205 65.4313 92.7843 64.8349L92.166 63.1978L91.5477 61.5606C91.2996 61.6543 91.02 61.5881 90.8407 61.3945L89.5566 62.5835ZM92.166 63.1978L92.7843 64.8349L98.1496 62.8085L97.5312 61.1714L96.9129 59.5343L91.5477 61.5606L92.166 63.1978ZM97.5312 61.1714L98.1495 62.8085C98.8503 62.5439 99.635 62.879 99.9284 63.5669L101.538 62.8804L103.148 62.1938C102.118 59.7794 99.3675 58.6073 96.913 59.5342L97.5312 61.1714ZM101.538 62.8804L99.9282 63.5665L103.374 71.6525L104.984 70.9663L106.594 70.2802L103.148 62.1942L101.538 62.8804ZM104.984 70.9663L103.375 71.6525C103.671 72.3478 103.36 73.1532 102.673 73.4692L103.404 75.0591L104.136 76.649C106.543 75.5414 107.634 72.7187 106.594 70.2801L104.984 70.9663ZM103.404 75.0591L102.673 73.4692L97.4582 75.8676L98.1895 77.4575L98.9207 79.0474L104.136 76.649L103.404 75.0591ZM98.1895 77.4575L97.4584 75.8675C95.9856 76.5447 95.0423 78.0176 95.042 79.6379L96.792 79.6382L98.542 79.6385C98.542 79.3842 98.6902 79.1534 98.9205 79.0475L98.1895 77.4575ZM96.792 79.6382H95.042V83.2632H96.792H98.542V79.6382H96.792ZM96.792 83.2632H95.042C95.042 84.7741 95.8629 86.1665 97.1868 86.897L98.0322 85.3647L98.8777 83.8325C98.6709 83.7184 98.542 83.5005 98.542 83.2632H96.792ZM98.0322 85.3647L97.1869 86.897L102.805 89.9966L103.65 88.4644L104.496 86.9321L98.8776 83.8325L98.0322 85.3647ZM103.65 88.4644L102.805 89.9966C103.439 90.3466 103.701 91.1245 103.407 91.7871L105.006 92.4976L106.605 93.208C107.637 90.886 106.721 88.1599 104.496 86.9321L103.65 88.4644ZM105.006 92.4976L103.407 91.787L99.9271 99.618L101.526 100.329L103.126 101.039L106.605 93.2081L105.006 92.4976ZM101.526 100.329L99.9272 99.6179C99.6331 100.28 98.881 100.607 98.1956 100.371L97.626 102.026L97.0564 103.681C99.4577 104.507 102.094 103.361 103.126 101.039L101.526 100.329ZM97.626 102.026L98.196 100.371L92.6208 98.4504L92.0508 100.105L91.4807 101.76L97.0559 103.68L97.626 102.026ZM92.0508 100.105L92.6207 98.4504C91.1338 97.9382 89.4859 98.3117 88.3643 99.4105L89.5889 100.661L90.8135 101.911C90.9902 101.738 91.2493 101.68 91.4809 101.76L92.0508 100.105ZM89.5889 100.661L88.364 99.4107L85.5447 102.173L86.7695 103.423L87.9944 104.673L90.8137 101.911L89.5889 100.661ZM86.7695 103.423L85.5447 102.173C84.3713 103.323 83.9871 105.058 84.5635 106.595L86.2021 105.981L87.8408 105.367C87.7503 105.125 87.811 104.853 87.9944 104.673L86.7695 103.423ZM86.2021 105.981L84.5636 106.595L86.5216 111.816L88.1602 111.202L89.7987 110.587L87.8407 105.366L86.2021 105.981ZM88.1602 111.202L86.5216 111.816C86.7831 112.513 86.4507 113.295 85.7661 113.59L86.459 115.197L87.1519 116.804C89.5504 115.77 90.7162 113.034 89.7987 110.587L88.1602 111.202ZM86.459 115.197L85.7666 113.59L77.5361 117.135L78.2285 118.743L78.9209 120.35L87.1514 116.804L86.459 115.197ZM78.2285 118.743L77.536 117.136C76.8439 117.434 76.0406 117.129 75.7197 116.449L74.1367 117.195L72.5537 117.941C73.6796 120.33 76.4966 121.394 78.921 120.35L78.2285 118.743ZM74.1367 117.195L75.7198 116.449L73.2393 111.185L71.6562 111.931L70.0732 112.677L72.5537 117.941L74.1367 117.195ZM71.6562 111.931L73.2391 111.185C72.5542 109.732 71.0922 108.804 69.4856 108.804L69.4854 110.554L69.4851 112.304C69.7363 112.304 69.9659 112.45 70.0734 112.678L71.6562 111.931ZM69.4854 110.554V108.804H65.8027V110.554V112.304H69.4854V110.554ZM65.8027 110.554L65.8025 108.804C64.237 108.804 62.8056 109.686 62.0997 111.081L63.6611 111.872L65.2226 112.662C65.3337 112.442 65.5588 112.304 65.803 112.304L65.8027 110.554ZM63.6611 111.872L62.0995 111.082L59.371 116.476L60.9326 117.266L62.4942 118.056L65.2227 112.661L63.6611 111.872ZM60.9326 117.266L59.371 116.476C59.0342 117.142 58.2337 117.426 57.5528 117.12L56.8359 118.716L56.1191 120.313C58.5058 121.384 61.3133 120.391 62.4943 118.056L60.9326 117.266ZM56.8359 118.716L57.5528 117.12L49.7325 113.608L49.0156 115.205L48.2987 116.801L56.1191 120.313L56.8359 118.716ZM49.0156 115.205L49.7326 113.608C49.0654 113.309 48.7422 112.544 48.9923 111.856L47.3477 111.258L45.703 110.66C44.8265 113.071 45.9585 115.75 48.2986 116.801L49.0156 115.205ZM47.3477 111.258L48.9923 111.856L50.921 106.552L49.2764 105.954L47.6317 105.356L45.703 110.66L47.3477 111.258ZM49.2764 105.954L50.9211 106.551C51.4716 105.036 51.0954 103.339 49.9552 102.199L48.7178 103.436L47.4803 104.673C47.6587 104.852 47.718 105.118 47.6316 105.356L49.2764 105.954ZM48.7178 103.436L49.9552 102.199L47.1896 99.433L45.9521 100.67L44.7147 101.908L47.4803 104.673L48.7178 103.436ZM45.9521 100.67L47.1896 99.4329C46.0783 98.3217 44.4341 97.9333 42.943 98.43L43.4961 100.09L44.0491 101.751C44.2826 101.673 44.5406 101.734 44.7147 101.908L45.9521 100.67ZM43.4961 100.09L42.9427 98.4301L37.1097 100.374L37.6631 102.035L38.2165 103.695L44.0495 101.751L43.4961 100.09ZM37.6631 102.035L37.1097 100.374C36.4123 100.607 35.6539 100.259 35.3754 99.5786L33.7559 100.242L32.1364 100.905C33.113 103.29 35.7713 104.51 38.2165 103.695L37.6631 102.035ZM33.7559 100.242L35.3753 99.5786L31.8548 90.9809L30.2354 91.644L28.6159 92.3072L32.1364 100.905L33.7559 100.242ZM30.2354 91.644L31.855 90.9812C31.5641 90.2706 31.9011 89.4588 32.609 89.1632L31.9346 87.5483L31.2601 85.9335C28.7769 86.9706 27.5967 89.817 28.6157 92.3069L30.2354 91.644ZM31.9346 87.5483L32.6089 89.1632L38.0698 86.8829L37.3955 85.2681L36.7212 83.6532L31.2603 85.9335L31.9346 87.5483ZM37.3955 85.2681L38.0702 86.8828C39.6139 86.2378 40.6211 84.7279 40.6211 83.0532H38.8711H37.1211C37.1211 83.3147 36.9635 83.552 36.7208 83.6534L37.3955 85.2681ZM38.8711 83.0532H40.6211V79.6714H38.8711H37.1211V83.0532H38.8711ZM38.8711 79.6714L40.6211 79.6711C40.6208 78.0251 39.6472 76.5345 38.141 75.8722L37.4365 77.4741L36.732 79.0761C36.9683 79.18 37.1211 79.4142 37.1211 79.6717L38.8711 79.6714ZM37.4365 77.4741L38.1407 75.872L32.6016 73.4375L31.8975 75.0396L31.1933 76.6416L36.7324 79.0762L37.4365 77.4741ZM31.8975 75.0396L32.6017 73.4375C31.901 73.1295 31.5784 72.3144 31.8784 71.6105L30.2686 70.9243L28.6587 70.2381C27.6067 72.7064 28.7372 75.562 31.1933 76.6416L31.8975 75.0396ZM30.2686 70.9243L31.8783 71.6107L35.3188 63.5413L33.709 62.855L32.0992 62.1686L28.6588 70.238L30.2686 70.9243ZM33.709 62.855L35.3187 63.5414C35.6103 62.8575 36.3856 62.5221 37.0828 62.7769L37.6836 61.1333L38.2844 59.4897C35.8378 58.5953 33.1205 59.7735 32.0992 62.1686L33.709 62.855ZM37.6836 61.1333L37.0828 62.7769L42.7791 64.859L43.3799 63.2153L43.9806 61.5717L38.2844 59.4897L37.6836 61.1333ZM43.3799 63.2153L42.7791 64.859C44.3634 65.4381 46.1423 65.0013 47.2773 63.7508L45.9814 62.5747L44.6856 61.3986C44.5086 61.5936 44.2299 61.6628 43.9807 61.5717L43.3799 63.2153ZM45.9814 62.5747L47.2775 63.7506L50.1164 60.6217L48.8203 59.4458L47.5243 58.2699L44.6854 61.3988L45.9814 62.5747ZM48.8203 59.4458L50.1165 60.6215C51.1574 59.4739 51.4743 57.8398 50.9331 56.3854L49.293 56.9956L47.6528 57.6058C47.7371 57.8323 47.6881 58.0893 47.5241 58.2701L48.8203 59.4458ZM49.293 56.9956L50.933 56.3851L49.0063 51.2093L47.3662 51.8198L45.7262 52.4304L47.6529 57.6061L49.293 56.9956ZM47.3662 51.8198L49.0064 51.2097C48.7514 50.5243 49.0691 49.7569 49.7351 49.4521L49.0068 47.8608L48.2786 46.2696C45.946 47.337 44.8313 50.0248 45.726 52.4299L47.3662 51.8198ZM49.0068 47.8608L49.7351 49.4521L57.53 45.8847L56.8018 44.2935L56.0735 42.7022L48.2786 46.2696L49.0068 47.8608ZM56.8018 44.2935L57.5296 45.8849C58.2161 45.5709 59.0283 45.8594 59.363 46.5361L60.9316 45.7603L62.5003 44.9844C61.327 42.6122 58.4806 41.6012 56.0739 42.702L56.8018 44.2935ZM60.9316 45.7603L59.3629 46.5358L62.1002 52.0729L63.6689 51.2974L65.2377 50.5218L62.5004 44.9847L60.9316 45.7603ZM63.6689 51.2974L62.1003 52.0731C62.8001 53.4883 64.2422 54.3832 65.8202 54.3833L65.8203 52.6333L65.8204 50.8833C65.5728 50.8833 65.347 50.7429 65.2376 50.5216L63.6689 51.2974ZM65.8203 52.6333V54.3833H69.4688V52.6333V50.8833H65.8203V52.6333ZM69.4688 52.6333L69.469 54.3833C71.0881 54.3831 72.5599 53.4413 73.2378 51.9702L71.6484 51.2378L70.0591 50.5054C69.9531 50.7354 69.7225 50.8833 69.4685 50.8833L69.4688 52.6333ZM71.6484 51.2378L73.2379 51.9701L75.7291 46.5628L74.1396 45.8306L72.5502 45.0983L70.059 50.5055L71.6484 51.2378ZM67.5625 62.436L67.5625 60.686C56.0321 60.6861 46.6847 70.0336 46.6846 81.5639L48.4346 81.564L50.1846 81.564C50.1847 71.9666 57.9651 64.1861 67.5625 64.186L67.5625 62.436ZM48.4346 81.564L46.6846 81.564C46.6846 93.0945 56.032 102.442 67.5625 102.442L67.5625 100.692L67.5625 98.9419C57.965 98.9418 50.1846 91.1614 50.1846 81.564L48.4346 81.564ZM67.5625 100.692V102.442C79.093 102.442 88.4404 93.0945 88.4404 81.564L86.6904 81.564L84.9404 81.564C84.9404 91.1615 77.16 98.9419 67.5625 98.9419V100.692ZM86.6904 81.564L88.4404 81.5639C88.4403 70.0335 79.093 60.686 67.5625 60.686V62.436V64.186C77.1599 64.186 84.9403 71.9665 84.9404 81.564L86.6904 81.564Z" fill="white"/>
<path d="M65.0758 87.6364V87.483C65.0929 85.8551 65.2633 84.5597 65.5872 83.5966C65.911 82.6335 66.3713 81.8537 66.9679 81.2571C67.5645 80.6605 68.2804 80.1108 69.1156 79.608C69.6184 79.3011 70.0701 78.9389 70.4707 78.5213C70.8713 78.0952 71.1866 77.6051 71.4167 77.0511C71.6554 76.4972 71.7747 75.8835 71.7747 75.2102C71.7747 74.375 71.5787 73.6506 71.1866 73.0369C70.7946 72.4233 70.2704 71.9503 69.6142 71.6179C68.9579 71.2855 68.2292 71.1193 67.4281 71.1193C66.7292 71.1193 66.0559 71.2642 65.4082 71.554C64.7605 71.8437 64.2193 72.2997 63.7846 72.9219C63.35 73.544 63.0985 74.358 63.0304 75.3636H59.8088C59.877 73.9148 60.252 72.6747 60.9338 71.6435C61.6241 70.6122 62.5318 69.8239 63.6568 69.2784C64.7903 68.733 66.0474 68.4602 67.4281 68.4602C68.9281 68.4602 70.2321 68.7585 71.34 69.3551C72.4565 69.9517 73.3173 70.7699 73.9224 71.8097C74.536 72.8494 74.8429 74.0341 74.8429 75.3636C74.8429 76.3011 74.698 77.1491 74.4082 77.9077C74.127 78.6662 73.7179 79.3437 73.1809 79.9403C72.6525 80.5369 72.0133 81.0653 71.2633 81.5256C70.5133 81.9943 69.9125 82.4886 69.4608 83.0085C69.0091 83.5199 68.6809 84.1293 68.4764 84.8366C68.2718 85.544 68.161 86.4261 68.144 87.483V87.6364H65.0758ZM66.7122 95.2045C66.0815 95.2045 65.5403 94.9787 65.0886 94.527C64.6369 94.0753 64.411 93.5341 64.411 92.9034C64.411 92.2727 64.6369 91.7315 65.0886 91.2798C65.5403 90.8281 66.0815 90.6023 66.7122 90.6023C67.3429 90.6023 67.8841 90.8281 68.3358 91.2798C68.7875 91.7315 69.0133 92.2727 69.0133 92.9034C69.0133 93.321 68.9068 93.7045 68.6937 94.054C68.4892 94.4034 68.2122 94.6847 67.8627 94.8977C67.5218 95.1023 67.1383 95.2045 66.7122 95.2045Z" fill="white"/>
</svg>
