<svg width="136" height="164" viewBox="0 0 136 164" fill="none" xmlns="http://www.w3.org/2000/svg">
<path d="M42.6393 105.199L39.5256 125H76.8905M42.6393 105.199C46.0574 106.738 48.0943 106.242 50.4237 104.067C53.3645 101.321 52.9773 97.2019 51.4616 93.3176C50.1701 90.008 48.7019 88.8482 45.2341 87.0943M42.6393 105.199C40.6095 102.644 39.7154 101.052 39.5256 97.2779C39.2941 92.7564 40.4858 90.5154 45.2341 87.0943M76.8905 125L78.4474 104.067M76.8905 125H91.9403L89.3455 100.107M78.4474 104.067L89.3455 100.107M78.4474 104.067C78.4474 104.067 74.014 106.453 71.182 105.764C65.4869 104.379 63.1576 97.1318 65.9924 90.4889C68.8272 83.8459 93.4972 82.0025 93.4972 82.0025M89.3455 100.107C92.2516 97.6363 93.2169 96.1145 94.5351 93.3176C95.8532 90.5208 93.4972 82.0025 93.4972 82.0025M93.4972 82.0025C93.4972 82.0025 98.4868 81.5825 100.244 79.1737C103.196 75.1253 102.814 69.9825 96.0919 66.7271C89.3702 63.4717 80.5232 67.4493 80.5232 67.4493M71.7009 67.8586L80.5232 67.4493M80.5232 67.4493C84.5249 61.4862 86.3239 58.0179 84.1559 50.3202C82.397 44.7742 78.0856 41.001 72.2199 40.1366C64.4207 38.9873 58.1217 45.2615 55.6133 52.5832M55.6133 52.5832C54.0804 59.5607 55.4036 63.1054 60.2839 68.9901C55.3274 68.622 52.4349 69.7432 46.791 77.4765M55.6133 52.5832L57.6891 47.4914C52.2847 44.8147 47.9433 43.5646 42.6393 46.3599C36.1113 49.8002 32.9056 56.7148 34.336 64.4641C35.6651 71.6642 39.7213 75.0162 46.791 77.4765M46.791 77.4765L45.2341 87.0943" stroke="white" stroke-width="3.5" stroke-linecap="round"/>
</svg>
