<svg width="136" height="164" viewBox="0 0 136 164" fill="none" xmlns="http://www.w3.org/2000/svg">
<path d="M104.989 29.14L90.5586 41.4902" stroke="white" stroke-width="3.5" stroke-linecap="round"/>
<path d="M38.2155 98.3729C39.5145 98.5979 41.5964 98.3729 41.5964 98.3729C44.2943 102.819 48.2968 113.051 52.0766 116.205C69.3702 129.206 66.7519 127.371 83.9617 116.205C88.3025 113.1 90.2221 102.884 92.9859 98.3729C92.9859 98.3729 95.0691 98.605 96.3667 98.3729C102.606 97.2567 105.954 87.4449 101.1 83.5437C99.5623 82.3078 98.6258 81.1103 96.3667 81.6094C97.7905 73.552 99.2758 68.5422 96.3667 60.9774C92.9592 52.1164 87.9052 46.5944 78.7862 42.9245C69.7847 39.302 63.538 39.2936 53.7676 43.5692C44.525 48.771 38.9918 54.18 36.8631 64.2012C35.5484 70.3902 36.5208 74.0105 38.2154 80.3195L38.2155 80.3199C35.4069 79.8878 34.3676 81.6928 32.8061 83.5437C28.7754 88.3211 31.8887 97.2769 38.2155 98.3729Z" stroke="white" stroke-width="3.5" stroke-linecap="round"/>
<path d="M76.1372 79.5595C76.4681 79.3869 77.6143 79.0192 80.9772 78.9552C82.6881 78.9226 83.9778 79.6463 85.0522 80.0953C85.4419 80.3992 85.7129 80.7355 85.9764 81.1772C86.1275 81.4447 86.3137 81.8 86.6421 82.5309" stroke="white" stroke-width="3.5" stroke-linecap="round"/>
<path d="M59.8543 79.3103C58.7281 78.9259 56.197 78.0808 54.3847 78.0801C52.307 78.0793 49.6934 79.5354 48.1241 80.8079C47.5864 81.3304 46.8666 82.0855 46.4514 82.5638C46.0362 83.0421 45.9475 83.2207 45.8242 83.6475" stroke="white" stroke-width="3.5" stroke-linecap="round"/>
<path d="M59.0625 109.888C59.4138 109.984 62.0367 111.232 64.9837 111.926C68.6534 112.79 71.4558 112.085 72.1271 111.85C73.2958 111.325 74.7836 110.541 76.2 109.77C76.8571 109.438 77.389 109.226 78.4271 108.727" stroke="white" stroke-width="3.5" stroke-linecap="round"/>
<path d="M89.0435 44.0944C88.3189 44.2429 87.6824 43.6023 87.8534 42.8966L89.1552 37.5207C89.3391 36.7614 90.3058 36.5001 90.8616 37.0595L95.0789 41.3043C95.6347 41.8637 95.3422 42.8036 94.5626 42.9633L89.0435 44.0944Z" fill="white"/>
</svg>
