<svg width="136" height="164" viewBox="0 0 136 164" fill="none" xmlns="http://www.w3.org/2000/svg">
<path d="M74.1107 99.0518C74.2869 98.7707 75.1919 97.9012 76.3257 97.5154C77.2792 97.191 78.3177 97.6386 78.9652 97.9617C79.4397 98.1985 79.7097 98.5675 79.9394 98.9237C80.5485 99.8685 79.9633 101.501 79.5229 102.447C78.8282 103.938 78.2632 105.632 77.9833 107.94C77.6089 111.027 77.386 113.769 77.0476 115.409C76.1564 119.728 74.1685 122.367 73.5412 123.038C73.1831 123.42 71.5229 123.965 69.1832 124.717C67.6613 125.206 64.8875 125.225 61.2537 125.163C57.9222 125.105 54.5918 122.857 52.3699 121.336C50.4658 120.034 49.4789 117.503 48.7422 115.634C47.8246 113.306 47.5024 111.9 46.815 105.971C46.1203 99.9769 47.1767 98.6801 47.7958 97.7527C48.4379 96.7909 49.8194 96.909 51.6032 96.8958C52.7127 96.8875 53.1205 97.6882 53.2862 97.7583C53.8135 97.9817 53.6582 95.8039 54 95.4998C54.703 94.8745 56 94.4998 58 95.031C59.0978 95.3226 59.3668 96.2315 59.7444 96.4225C60.8421 96.9777 60.1504 94.9246 62 93.9998C65 92.4998 65.0318 95.2968 65.1048 95.2651C66.2778 94.7548 66.1279 91.9579 66.5611 89.7933C66.8053 88.5728 66.9367 86.7323 67.3413 85.2966C67.6038 84.3649 68.7951 82.9424 70 82.691C70.8808 82.5073 72.0673 83.1904 72.5 83.5C73.3216 84.0878 73.5513 86.1141 74.2001 91.8397C74.4934 94.4291 74.2092 98.2516 74.0801 100.929C73.9511 103.605 73.7578 105.037 73.6582 106.117C73.5586 107.198 73.5586 107.883 73.5586 108.59" stroke="white" stroke-width="3.5" stroke-linecap="round"/>
<circle cx="70" cy="76" r="5.25" stroke="white" stroke-width="3.5"/>
<circle cx="51" cy="53" r="5.25" stroke="white" stroke-width="3.5"/>
<circle cx="70" cy="45" r="5.25" stroke="white" stroke-width="3.5"/>
<circle cx="89" cy="53" r="5.25" stroke="white" stroke-width="3.5"/>
<path d="M63.5 68L55 58" stroke="white" stroke-width="3.5" stroke-linecap="round"/>
<path d="M70.5553 65.123L70.3662 52" stroke="white" stroke-width="3.5" stroke-linecap="round"/>
<path d="M76.6198 68.4071L85.499 58.7422" stroke="white" stroke-width="3.5" stroke-linecap="round"/>
</svg>
