<svg width="30" height="30" viewBox="0 0 30 30" fill="none" xmlns="http://www.w3.org/2000/svg">
<path d="M14.0455 18.5114V18.3182C14.0492 17.6553 14.108 17.1269 14.2216 16.733C14.339 16.339 14.5095 16.0208 14.733 15.7784C14.9564 15.536 15.2254 15.3163 15.5398 15.1193C15.7746 14.9678 15.9848 14.8106 16.1705 14.6477C16.3561 14.4848 16.5038 14.3049 16.6136 14.108C16.7235 13.9072 16.7784 13.6837 16.7784 13.4375C16.7784 13.1761 16.7159 12.947 16.5909 12.75C16.4659 12.553 16.2973 12.4015 16.0852 12.2955C15.8769 12.1894 15.6458 12.1364 15.392 12.1364C15.1458 12.1364 14.9129 12.1913 14.6932 12.3011C14.4735 12.4072 14.2936 12.5663 14.1534 12.7784C14.0133 12.9867 13.9375 13.2462 13.9261 13.5568H11.608C11.6269 12.7992 11.8087 12.1742 12.1534 11.6818C12.4981 11.1856 12.9545 10.8163 13.5227 10.5739C14.0909 10.3277 14.7178 10.2045 15.4034 10.2045C16.1572 10.2045 16.8239 10.3295 17.4034 10.5795C17.983 10.8258 18.4375 11.1837 18.767 11.6534C19.0966 12.1231 19.2614 12.6894 19.2614 13.3523C19.2614 13.7955 19.1875 14.1894 19.0398 14.5341C18.8958 14.875 18.6932 15.178 18.4318 15.4432C18.1705 15.7045 17.8617 15.9413 17.5057 16.1534C17.2064 16.3314 16.9602 16.517 16.767 16.7102C16.5777 16.9034 16.4356 17.1269 16.3409 17.3807C16.25 17.6345 16.2027 17.947 16.1989 18.3182V18.5114H14.0455ZM15.1705 22.1477C14.7917 22.1477 14.4678 22.0152 14.1989 21.75C13.9337 21.4811 13.803 21.1591 13.8068 20.7841C13.803 20.4129 13.9337 20.0947 14.1989 19.8295C14.4678 19.5644 14.7917 19.4318 15.1705 19.4318C15.5303 19.4318 15.8466 19.5644 16.1193 19.8295C16.392 20.0947 16.5303 20.4129 16.5341 20.7841C16.5303 21.0341 16.464 21.2633 16.3352 21.4716C16.2102 21.6761 16.0455 21.8409 15.8409 21.9659C15.6364 22.0871 15.4129 22.1477 15.1705 22.1477Z" fill="white"/>
<path d="M15 4.08496C20.9938 4.08496 25.915 9.12238 25.915 15.4141C25.9149 21.7056 20.9937 26.7422 15 26.7422C9.00628 26.7422 4.0851 21.7056 4.08496 15.4141C4.08496 9.12238 9.00619 4.08496 15 4.08496Z" stroke="white" stroke-width="2.17"/>
</svg>
