<svg width="136" height="164" viewBox="0 0 136 164" fill="none" xmlns="http://www.w3.org/2000/svg">
<circle cx="68.9268" cy="90.1104" r="29.25" stroke="white" stroke-width="3.5"/>
<path d="M69.4312 106.519C69.5076 107.483 70.3506 108.202 71.3141 108.126C72.2776 108.049 72.9967 107.206 72.9203 106.243L71.1758 106.381L69.4312 106.519ZM69.8975 90.2578L68.1529 90.3961L69.4312 106.519L71.1758 106.381L72.9203 106.243L71.642 90.1195L69.8975 90.2578Z" fill="white"/>
<path d="M69.9502 90.9292L62.1875 86.8125" stroke="white" stroke-width="3.5" stroke-linecap="round"/>
<path d="M101.112 64.6551C89.9263 47.9802 59.4264 44.4803 40.4261 58.9804" stroke="white" stroke-width="3.5" stroke-linecap="round"/>
<path d="M38.426 62.5975C37.7109 62.7571 37.0726 62.1188 37.2322 61.4037L38.4281 56.0452C38.5999 55.2754 39.5535 54.9982 40.1112 55.5559L44.2739 59.7185C44.8315 60.2762 44.5543 61.2298 43.7846 61.4016L38.426 62.5975Z" fill="white"/>
</svg>
