<svg width="136" height="164" viewBox="0 0 136 164" fill="none" xmlns="http://www.w3.org/2000/svg">
<path d="M32 75.8685C60.7158 81.0853 57.9736 43.5993 63.5092 42.2387C74.9556 39.4255 69.7843 62.2369 68.8471 70.5779C75.8225 72.3112 84.1142 70.2465 93.9554 70.578C103.797 70.9095 104.927 75.5647 103.489 80.6873L101.183 85.6591C103.286 87.4905 104.062 88.6847 103.489 91.6253C102.164 94.2074 101.044 95.4265 99.0298 97.5914C100.914 99.4059 101.608 100.7 99.9524 105.215C98.7923 107.104 97.8986 107.592 96.2619 108.364C96.5588 111.183 96.6229 113.487 95.3393 115.656C93.8811 117.784 93.0328 117.976 91.0338 119.302C89.0348 120.627 75.2605 123.202 55.052 119.302C42.9174 116.09 43.8588 115.379 32.4235 121.024" stroke="white" stroke-width="3.5" stroke-linecap="round"/>
</svg>
