<svg width="136" height="164" viewBox="0 0 136 164" fill="none" xmlns="http://www.w3.org/2000/svg">
<path d="M32.9686 104.116C32.8296 102.911 32.4775 96.8763 32.3063 91.4382C32.2405 89.3481 31.9975 87.7158 32 79.8315C32.0017 74.6169 33.1363 72.9551 34.2025 69.4346C35.0722 66.5628 36.392 64.5191 37.4862 62.9612C38.6021 61.3724 40.0307 59.7911 41.5868 58.6398C43.0677 57.5441 44.645 56.8285 47.6202 55.0379C50.2464 53.4575 52.7212 53.0118 59.1815 51.4104C67.4296 49.3657 98.5137 38.2017 102.5 43.5002C111.833 55.9054 86.0209 62.4456 78.8856 65.9545C77.6963 66.5394 77.3226 67.7979 77.1163 68.6983C76.8293 69.9503 76.9773 70.8884 77.1163 74.5002C77.1633 75.7226 77.3753 83.0175 78 83.0002C114 82.0002 111 96.5002 77.1163 96.0002C71.7807 95.9214 71.3135 97.7732 68.4643 100.896C65.94 105.661 63.6175 110.778 63.1385 111.645C62.9029 112.074 62.6827 112.482 62.3405 112.933" stroke="white" stroke-width="3.5" stroke-linecap="round"/>
<path d="M73.7981 58.6519C74.0477 59.0741 74.9092 60.4635 75.4428 62.0697C75.9348 63.5509 76.2698 64.9566 76.5694 66.9352C77.9532 76.0759 77.0398 82.7801 76.1791 84.2406C75.4206 85.5278 73.2041 85.329 70.1312 85.2916C69.4626 85.2835 69.1544 84.9752 68.8972 84.6889C67.8419 83.5141 67.6374 81.7838 67.3334 78.0174C66.4039 66.5012 66.891 64.8624 66.2624 63.3757C65.3843 61.9748 64.7517 61.0039 64.2861 60.4644C64.029 60.2267 63.7296 60.0624 63 59.6668" stroke="white" stroke-width="3.5" stroke-linecap="round"/>
<path d="M67.7387 83.2522C67.3279 83.5491 66.0599 84.6064 64.914 85.4766C63.6463 86.4392 61.9483 87.1621 59.6675 87.1595C57.9142 87.1576 57.1636 84.3576 56.5008 82.375C55.9117 80.613 56.0012 75.3267 55.6307 70.2016C54.8693 67.9123 53.9107 65.9964 53.0912 64.7198C52.8441 64.4148 52.5394 64.1097 52.2256 63.7954" stroke="white" stroke-width="3.5" stroke-linecap="round"/>
<path d="M56.3211 84.8729C56.1638 85.2648 55.2237 86.5301 54.0759 87.4552C52.9094 88.3953 51.4537 88.2537 50.4671 88.139C48.5482 87.9159 47.829 84.2935 47.3452 81.938C46.8855 79.7004 46.1978 76.8424 45.3825 75.2529C44.8976 74.5045 44.4657 73.7901 44.0535 73.1241C43.8166 72.7976 43.5233 72.4944 43.0503 72.0283" stroke="white" stroke-width="3.5" stroke-linecap="round"/>
<path d="M97 66L97 79" stroke="white" stroke-width="3.5" stroke-linecap="round"/>
<path d="M97.8442 81.6708C97.4513 82.2893 96.5487 82.2893 96.1558 81.6708L93.2124 77.0361C92.7896 76.3703 93.2679 75.5 94.0566 75.5H99.9434C100.732 75.5 101.21 76.3703 100.788 77.0361L97.8442 81.6708Z" fill="white"/>
<path d="M96.1573 63.3277C96.5501 62.7092 97.4528 62.7092 97.8456 63.3277L100.789 67.9624C101.212 68.6282 100.734 69.4985 99.9449 69.4985H94.058C93.2694 69.4985 92.7911 68.6282 93.2139 67.9624L96.1573 63.3277Z" fill="white"/>
</svg>
