<svg width="136" height="164" viewBox="0 0 136 164" fill="none" xmlns="http://www.w3.org/2000/svg">
<path d="M92.5922 58L84.937 71.9187" stroke="white" stroke-width="3.5" stroke-linecap="round"/>
<path d="M87.4883 78.8779L104.5 70.1787" stroke="white" stroke-width="3.5" stroke-linecap="round"/>
<path d="M90.04 86.7075L104.5 93.6669" stroke="white" stroke-width="3.5" stroke-linecap="round"/>
<path d="M32.657 93.3919L67.8676 68.5139C68.9459 67.752 70.4534 68.2255 70.9024 69.4671L81.5307 98.8547C82.0022 100.158 81.0364 101.535 79.6499 101.535H75.1327C74.0281 101.535 73.1327 102.43 73.1327 103.535V105.437C73.1327 106.243 72.6489 106.97 71.9055 107.282L62.6958 111.14C61.5992 111.599 60.3464 111.006 60.0065 109.867L57.9465 102.963C57.6937 102.116 56.9143 101.535 56.03 101.535H35.0925C34.1985 101.535 33.413 100.942 33.1687 100.082L31.8872 95.572C31.6552 94.7555 31.9638 93.8816 32.657 93.3919Z" stroke="white" stroke-width="3.5"/>
<path d="M33.5 101L80.5 101.005" stroke="white" stroke-width="3.5"/>
</svg>
