<svg width="164" height="192" viewBox="0 0 164 192" fill="none" xmlns="http://www.w3.org/2000/svg">
<path d="M48.076 124.147C50.3358 124.545 53.9574 124.147 53.9574 124.147C58.6506 132.025 65.6134 150.155 72.1887 155.743L89.2457 168.702C101.023 180.764 109.54 177.306 127.656 155.743C135.207 150.242 138.547 132.14 143.354 124.147C143.354 124.147 146.978 124.558 149.236 124.147C160.09 122.169 165.914 104.783 157.47 97.8706C154.795 95.6808 153.166 93.5588 149.236 94.4432C151.713 80.1662 154.296 71.2894 149.236 57.8853C143.308 42.1844 134.516 32.3999 118.653 25.8973C102.994 19.4785 92.127 19.4637 75.1304 27.0396C59.0519 36.2566 49.4265 45.8409 45.7234 63.5975C43.4364 74.5639 45.128 80.9788 48.0758 92.1576L48.076 92.1584C43.1901 91.3927 41.3821 94.5911 38.6657 97.8706C31.654 106.336 37.0699 122.205 48.076 124.147Z" stroke="white" stroke-width="5" stroke-linecap="round"/>
<path d="M86.2743 102.325C86.1089 102.127 85.3405 101.675 83.8309 101.347C79.6141 100.429 76.6043 101.299 73.4879 102.333C72.8864 102.526 72.4995 102.604 71.8512 102.66C71.203 102.716 70.3051 102.748 69.3521 102.802" stroke="white" stroke-width="5" stroke-linecap="round"/>
<path d="M114.524 102.887C114.777 102.734 115.731 101.944 117.119 100.94C118.245 100.126 120.04 99.7735 122.146 99.3624C125.635 98.6814 127.242 100.335 129.202 101.146C130.327 101.452 131.598 101.658 132.99 101.926C133.675 102.113 134.318 102.404 135.207 102.716" stroke="white" stroke-width="5" stroke-linecap="round"/>
<path d="M104.082 44.5884C102.52 45.6661 99.6376 48.2091 97.3628 52.0741C95.777 54.7684 95.3126 57.7301 94.8614 61.9658C94.0071 69.9867 94.3423 76.5976 94.1442 79.081C93.9084 82.0367 89.664 83.7129 85.8279 84.9771C84.0912 85.5495 80.8318 85.4538 79.0586 85.3751C77.2853 85.2964 77.0127 84.8742 76.5617 83.8982C75.4229 81.434 74.5903 78.9922 73.9186 77.9382C72.71 76.0417 70.1202 82.0657 68.7802 85.7337C68.5192 86.448 68.5109 86.969 68.2519 87.3733C66.6035 88.4867 61.2858 88.9498 53.9803 89.3373C50.9751 89.492 49.3954 89.5615 46.4385 89.3451" stroke="white" stroke-width="5" stroke-linecap="round"/>
<path d="M102.157 46.6816C103.265 47.8021 104.705 50.3578 105.541 56.0705C106.182 60.4463 106.376 67.9235 106.449 73.087C106.522 78.2504 106.24 80.8998 106.299 81.8275C106.328 82.2856 108.738 74.8388 111.253 63.8934C112.351 59.1178 112.533 55.8094 113.004 54.9508C114.994 51.3238 117.413 65.3361 118.585 72.1813C119.655 78.4265 118.234 83.199 119.799 84.9252C123.617 89.1368 131.369 89.2719 136.454 90.2014C138.791 90.5798 140.632 90.7686 142.533 90.9402C144.433 91.1117 146.337 91.2602 148.299 91.4132" stroke="white" stroke-width="5" stroke-linecap="round"/>
<path d="M120.202 24.8576C123.74 4.35025 17.184 -25.2294 6.62786 57.8646C5.33426 68.0472 5.19308 80.319 6.29587 92.709C7.39866 105.099 9.7497 117.235 11.0245 124.989C12.7846 135.694 12.314 139.898 11.7416 141.985C10.4145 146.826 5.24216 152.253 2.68125 156.447C1.82184 157.854 4.24194 158.651 5.42335 158.981C8.2622 159.775 12.2992 158.23 15.7262 156.481C16.8902 155.887 18.4308 154.64 19.2744 154.295C20.1181 153.95 20.1447 154.422 20.0788 155.065C19.6687 159.067 16.3389 165.963 11.8983 171.937C10.6965 173.554 8.77476 174.905 9.71347 175.653C13.3081 178.516 20.563 175.792 24.9599 174.884C30.6822 173.702 35.8046 168.8 39.2305 165.239C40.9329 163.47 38.9874 177.94 39.9222 185.244C40.1234 186.816 40.8881 188.676 41.3612 188.84C45.0646 190.123 43.7031 183.436 48.596 177.958C52.7525 174.652 55.5594 173.353 63.5163 172.271C65.7735 172.082 72.5673 181.599 73.7409 181.328L82.0007 165.239" stroke="white" stroke-width="5" stroke-linecap="round"/>
<path d="M89.8647 146.447C90.8351 147.077 96.2554 149.194 99.8453 149.576C101.11 149.354 103.7 148.321 106.833 146.867C108.039 146.292 108.464 146.05 108.948 145.763" stroke="white" stroke-width="5" stroke-linecap="round"/>
</svg>
