<svg width="136" height="164" viewBox="0 0 136 164" fill="none" xmlns="http://www.w3.org/2000/svg">
<path d="M39.9932 81.75C44.5542 81.75 48.2373 85.4271 48.2373 89.9443C48.2371 94.4614 44.5541 98.1377 39.9932 98.1377C35.4324 98.1375 31.7502 94.4613 31.75 89.9443C31.75 85.4272 35.4323 81.7502 39.9932 81.75Z" fill="white"/>
<path d="M39.9932 81.75C44.5542 81.75 48.2373 85.4271 48.2373 89.9443C48.2371 94.4614 44.5541 98.1377 39.9932 98.1377C35.4324 98.1375 31.7502 94.4613 31.75 89.9443C31.75 85.4272 35.4323 81.7502 39.9932 81.75Z" stroke="white" stroke-width="3.5"/>
<path d="M39.9932 81.75C44.5542 81.75 48.2373 85.4271 48.2373 89.9443C48.2371 94.4614 44.5541 98.1377 39.9932 98.1377C35.4324 98.1375 31.7502 94.4613 31.75 89.9443C31.75 85.4272 35.4323 81.7502 39.9932 81.75Z" stroke="white" stroke-width="3.5"/>
<path d="M39.9932 81.75C44.5542 81.75 48.2373 85.4271 48.2373 89.9443C48.2371 94.4614 44.5541 98.1377 39.9932 98.1377C35.4324 98.1375 31.7502 94.4613 31.75 89.9443C31.75 85.4272 35.4323 81.7502 39.9932 81.75Z" stroke="white" stroke-width="3.5"/>
<path d="M79.4932 96.75C84.0542 96.75 87.7373 100.427 87.7373 104.944C87.7371 109.461 84.0541 113.138 79.4932 113.138C74.9324 113.137 71.2502 109.461 71.25 104.944C71.25 100.427 74.9323 96.7502 79.4932 96.75Z" fill="white"/>
<path d="M79.4932 96.75C84.0542 96.75 87.7373 100.427 87.7373 104.944C87.7371 109.461 84.0541 113.138 79.4932 113.138C74.9324 113.137 71.2502 109.461 71.25 104.944C71.25 100.427 74.9323 96.7502 79.4932 96.75Z" stroke="white" stroke-width="3.5"/>
<path d="M79.4932 96.75C84.0542 96.75 87.7373 100.427 87.7373 104.944C87.7371 109.461 84.0541 113.138 79.4932 113.138C74.9324 113.137 71.2502 109.461 71.25 104.944C71.25 100.427 74.9323 96.7502 79.4932 96.75Z" stroke="white" stroke-width="3.5"/>
<path d="M79.4932 96.75C84.0542 96.75 87.7373 100.427 87.7373 104.944C87.7371 109.461 84.0541 113.138 79.4932 113.138C74.9324 113.137 71.2502 109.461 71.25 104.944C71.25 100.427 74.9323 96.7502 79.4932 96.75Z" stroke="white" stroke-width="3.5"/>
<path d="M47.3457 93.3843L66.7093 49L103.5 64.2799L87.2831 106.724" stroke="white" stroke-width="3.5" stroke-linecap="round"/>
<path d="M63.5259 57.7314L81.7285 65.2501L99.931 72.7688" stroke="white" stroke-width="3.5" stroke-linecap="round"/>
<path d="M103 64.5L100 73L63.5 57.5L66.5 49.5L103 64.5Z" fill="white"/>
</svg>
