<svg width="136" height="164" viewBox="0 0 136 164" fill="none" xmlns="http://www.w3.org/2000/svg">
<path d="M70 39.75C79.4434 39.75 87.25 47.8351 87.25 58C87.25 68.1649 79.4434 76.25 70 76.25C60.5566 76.25 52.75 68.1649 52.75 58C52.75 47.8351 60.5566 39.75 70 39.75Z" stroke="white" stroke-width="3.5"/>
<path d="M62.8136 75C62.8228 75.5619 62.6063 78.6435 62.5287 79.9391C62.4228 81.7059 53.2062 80.2603 51.9913 80.1621C49.6174 79.97 47.7159 80.3144 46.187 80.7748C43.538 81.5726 42.304 82.5871 41.5776 83.121C35.8906 87.3006 33.3709 97.9418 32.5199 104.89C32.2121 107.403 32.0092 111.306 32.0001 113.405C31.9717 119.897 41.9256 122.964 47.1905 124.117C51.4222 125.045 53.6216 125.166 55.7543 124.827C58.8182 124.34 59.9198 123.04 62.105 120.857C64.3073 118.657 64.9761 117.877 65.4507 116.628C66.2494 114.525 66.026 113.049 65.7197 111.891C65.2566 110.141 64.1544 109.137 63.5092 108.334C63.0632 107.779 62.2159 107.75 61.6844 107.464C61.4443 107.335 61.3443 107.125 61.3286 106.857C61.2924 106.238 61.9643 104.875 62.8136 102.729C63.7258 100.425 63.8222 97.7512 63.8213 95.6303C63.8203 93.3952 60.9346 93.01 59.4614 94.1824C57.8799 95.441 57.4336 96.6982 56.127 99.6219C54.9444 102.268 54.8147 103.083 54.658 103.359C54.0006 104.516 51.3522 104.767 50.656 105.384C49.7242 106.209 49.5238 107.242 48.9635 108.165C47.8286 110.036 46.6456 110.776 44.5278 110.669C42.7478 110.58 42.4995 108 42.2643 107.251" stroke="white" stroke-width="3.5" stroke-linecap="round"/>
<path d="M73.4552 76C73.4552 77.171 72.4896 79.5511 73.0862 80.5353C73.272 80.8419 73.8026 80.8987 74.3089 80.9378C74.9615 80.9883 77.7991 80.6031 82.8092 80.0033C93.27 78.7509 99.4813 80.9139 100.286 91.4281C100.679 96.561 101.082 105.62 101.297 110.363C101.495 114.729 102.239 118.715 102.797 123.01C102.863 123.638 102.88 124.124 103 125" stroke="white" stroke-width="3.5" stroke-linecap="round"/>
</svg>
