<svg width="136" height="164" viewBox="0 0 136 164" fill="none" xmlns="http://www.w3.org/2000/svg">
<g clip-path="url(#clip0_1353_276)">
<path d="M103.967 125.619L64.2994 120.499C64.2994 120.499 37.6529 111.845 33.6771 108.021C29.7013 104.197 33.2733 94.1652 43.4011 98.9256C53.5288 103.686 59.621 105.073 59.621 105.073L64.4218 106.057M77.0784 108.651L64.4218 106.057M64.4218 106.057C50.3721 100.447 57.8989 91.0171 66.0686 93.6403C74.2384 96.2635 84.8234 94.1965 91.1159 97.4535C97.4083 100.71 104.221 106.805 105.539 107.006" stroke="white" stroke-width="3.5" stroke-linecap="round"/>
<path d="M49.9075 46.4999L49.8897 86.3496" stroke="white" stroke-width="3.5" stroke-linecap="round"/>
<path d="M50.5512 89.5506C50.153 90.1657 49.2504 90.1578 48.863 89.5359L45.9601 84.8757C45.5431 84.2063 46.029 83.3401 46.8177 83.347L52.7043 83.3984C53.4929 83.4053 53.9636 84.2798 53.535 84.9418L50.5512 89.5506Z" fill="white"/>
</g>
<defs>
<clipPath id="clip0_1353_276">
<rect width="136" height="164" fill="white"/>
</clipPath>
</defs>
</svg>
