<svg width="136" height="164" viewBox="0 0 136 164" fill="none" xmlns="http://www.w3.org/2000/svg">
<path d="M32.5625 57.7301L48.0312 52.1274M48.0312 52.1274H77V81.9998M48.0312 52.1274L32 57.7301V81.9998" stroke="white" stroke-width="3.5" stroke-linecap="round"/>
<path d="M60.5625 100.603L76.0312 95M76.0312 95H105V124.872M76.0312 95L60 100.603V124.872" stroke="white" stroke-width="3.5" stroke-linecap="round"/>
<path d="M89 53C100.5 60 102.859 68.995 100.5 82.5" stroke="white" stroke-width="3.5"/>
<path d="M99.9817 87.8276C99.4656 88.3477 98.5838 88.1545 98.3325 87.4662L96.4493 82.3089C96.1788 81.5681 96.8323 80.8203 97.6027 80.9891L103.353 82.2492C104.124 82.418 104.404 83.3705 103.849 83.9304L99.9817 87.8276Z" fill="white"/>
<path d="M89.4817 56.8276C88.9656 57.3477 88.0838 57.1545 87.8325 56.4662L85.9493 51.3089C85.6788 50.5681 86.3323 49.8203 87.1027 49.9891L92.8531 51.2492C93.6235 51.418 93.9045 52.3705 93.3489 52.9304L89.4817 56.8276Z" fill="white"/>
</svg>
