<svg width="136" height="164" viewBox="0 0 136 164" fill="none" xmlns="http://www.w3.org/2000/svg">
<path d="M53.8443 56.0031C49.7653 56.0523 47.056 56.7093 42.5653 59.9547C42.2477 60.1842 41.9977 60.4723 41.8192 60.8212C37.4563 69.3482 24.9471 97.4996 37.3137 106.028C38.2666 106.685 39.5392 106.394 40.3104 105.531C45.1658 100.097 48.5569 97.2608 54.5447 93.8919C54.8717 93.708 55.2404 93.5988 55.6145 93.5717C66.0323 92.8181 72.1378 92.8398 82.5402 93.5685C82.9559 93.5976 83.3628 93.7276 83.7166 93.9479C89.1155 97.3103 92.2265 99.9139 95.836 104.396C96.9452 105.773 99.0082 106.011 100.093 104.615C109.232 92.8518 100.167 72.1909 94.9158 60.9797C94.7074 60.5348 94.3793 60.1645 93.9616 59.9059C90.2265 57.5942 87.6427 56.6176 83.231 56.1144C82.5429 56.0359 81.8549 56.2548 81.3249 56.7006L77.7615 59.6981C77.2943 60.0911 76.7033 60.3066 76.0928 60.3066H59.839C59.0691 60.3066 58.339 59.9644 57.8465 59.3725L55.8094 56.9246C55.3233 56.3404 54.6042 55.994 53.8443 56.0031Z" stroke="white" stroke-width="3.5" stroke-linecap="round"/>
<rect x="52.8262" y="69.709" width="6.1381" height="17.8487" rx="3.06905" fill="white"/>
<rect x="52.8262" y="69.709" width="6.1381" height="17.8487" rx="3.06905" fill="white"/>
<rect x="46.3477" y="81.502" width="5.73707" height="19.0963" rx="2.86853" transform="rotate(-90 46.3477 81.502)" fill="white"/>
<rect x="46.3477" y="81.502" width="5.73707" height="19.0963" rx="2.86853" transform="rotate(-90 46.3477 81.502)" fill="white"/>
<ellipse cx="75.1622" cy="75.6057" rx="2.89855" ry="2.70917" fill="white"/>
<ellipse cx="75.1622" cy="75.6057" rx="2.89855" ry="2.70917" fill="white"/>
<ellipse cx="87.7794" cy="75.6057" rx="2.89855" ry="2.70917" fill="white"/>
<ellipse cx="87.7794" cy="75.6057" rx="2.89855" ry="2.70917" fill="white"/>
<ellipse cx="81.3009" cy="81.6613" rx="2.89855" ry="2.70917" fill="white"/>
<ellipse cx="81.3009" cy="81.6613" rx="2.89855" ry="2.70917" fill="white"/>
<ellipse cx="81.3009" cy="69.5495" rx="2.89855" ry="2.70917" fill="white"/>
<ellipse cx="81.3009" cy="69.5495" rx="2.89855" ry="2.70917" fill="white"/>
</svg>
