<svg width="136" height="164" viewBox="0 0 136 164" fill="none" xmlns="http://www.w3.org/2000/svg">
<path d="M33 105.999C44.071 102.923 48.3761 90.8172 51.4548 81.171C51.8529 79.9239 52.3086 77.2413 52.8702 74.6183C53.9406 69.6196 53.9016 68.0658 54.1507 66.8884C55.6462 59.8203 53.7384 42.8971 61.0342 40.1948C62.3507 39.7072 63.6731 40.1692 65.0342 41.1946C68.5536 43.8461 67.243 59.8637 67.2792 65.0665C67.2969 67.6097 67.387 68.2685 67.4963 72.3223C67.6001 76.1743 67.658 83.6737 67.5843 88.2562C67.4873 94.2853 66.9027 96.1623 66.59 97.1098C66.1778 98.3589 65.1893 100.196 64.1849 102.05C63.0855 104.079 60.2567 107.34 58.5126 109.562C57.9557 110.271 56.5832 111.629 54.6013 113.621C52.1455 116.088 50.7475 117.591 49.382 118.901C47.175 121.165 45.039 123.231 43.9021 124.666C43.7031 124.927 43.5762 125.069 43.2173 125.337" stroke="white" stroke-width="3.5" stroke-linecap="round"/>
<path d="M67.5054 70.7295C67.2535 70.6179 66.4129 70.3075 65.2731 70.1669C63.0255 69.8895 62.0307 70.3896 60.5027 71.9626C59.4506 73.0457 59.2157 75.299 58.8589 78.9212C58.6471 81.0712 58.6054 83.874 58.48 85.8931C58.0003 90.448 57.7306 91.2601 57.4614 92.0055C57.3548 92.3236 57.3093 92.5196 57.1519 92.8525" stroke="white" stroke-width="3.5" stroke-linecap="round"/>
<path d="M103.152 105.999C92.0809 102.923 87.7757 90.8172 84.697 81.171C84.299 79.9239 83.8433 77.2413 83.2816 74.6183C82.2113 69.6196 82.2503 68.0658 82.0012 66.8884C80.5056 59.8203 82.4134 42.8971 75.1177 40.1948C73.8011 39.7072 72.4788 40.1692 71.1177 41.1946C67.5983 43.8461 68.9088 59.8637 68.8727 65.0665C68.855 67.6097 68.7649 68.2685 68.6556 72.3223C68.5517 76.1743 68.4939 83.6737 68.5676 88.2562C68.6646 94.2853 69.2491 96.1623 69.5618 97.1098C69.9741 98.3589 70.9625 100.196 71.967 102.05C73.0663 104.079 75.8951 107.34 77.6393 109.562C78.1962 110.271 79.5687 111.629 81.5506 113.621C84.0064 116.088 85.4043 117.591 86.7698 118.901C88.9769 121.165 91.1128 123.231 92.2498 124.666C92.4487 124.927 92.5757 125.069 92.9346 125.337" stroke="white" stroke-width="3.5" stroke-linecap="round"/>
<path d="M68.6465 70.7295C68.8983 70.6179 69.739 70.3075 70.8788 70.1669C73.1263 69.8895 74.1212 70.3896 75.6492 71.9626C76.7013 73.0457 76.9361 75.299 77.2929 78.9212C77.5047 81.0712 77.5464 83.874 77.6719 85.8931C78.1516 90.448 78.4212 91.2601 78.6905 92.0055C78.797 92.3236 78.8425 92.5196 79 92.8525" stroke="white" stroke-width="3.5" stroke-linecap="round"/>
</svg>
