<svg width="240" height="165" viewBox="0 0 240 165" fill="none" xmlns="http://www.w3.org/2000/svg">
<path d="M9.12204 85.6913L30.1092 104.055C33.7698 107.258 38.8425 108.315 43.5041 106.926C102.813 89.2577 138.382 88.0905 194.435 106.632C199.128 108.184 204.321 107.26 208.106 104.081L229.808 85.8511C235.311 81.2281 236.42 73.1885 232.373 67.2485L211.131 36.0711C209.423 33.5646 206.948 31.6805 204.077 30.7022L123.516 3.24842C120.588 2.25063 117.412 2.25063 114.484 3.24842L34.092 30.6446C31.1174 31.6583 28.5704 33.6432 26.8608 36.2801L6.59406 67.539C2.80881 73.3772 3.88563 81.1094 9.12204 85.6913Z" stroke="white" stroke-width="5" stroke-linecap="round"/>
<path d="M102.068 40.114L100.775 34.4245C100.593 33.6262 100.38 33.0977 100.85 32.4278C101.718 31.1919 103.824 31.0113 105.289 31.3744C108.513 32.1731 110.895 32.1167 113.253 31.4967C117.067 30.4937 121.014 30.345 124.885 31.0994C127.647 31.6377 130.234 31.5472 133.615 30.9654L133.62 30.9645C134.536 30.807 135.56 30.6308 136.323 31.1598C137.62 32.0586 137.286 34.0187 136.884 35.5447L136.051 38.7115C135.364 41.3211 135.463 44.0739 136.254 46.6539C140.341 59.9857 140.461 66.3914 134.999 72.2095C130.638 75.9288 127.537 77.7613 123.589 79.4291C120.654 80.6691 117.326 80.723 114.37 79.5322C110.226 77.8624 107.146 75.9787 102.999 72.2095C98.1115 67.0152 97.2801 60.9544 101.584 48.1676C102.458 45.5712 102.675 42.7855 102.068 40.114Z" stroke="white" stroke-width="5" stroke-linecap="round"/>
<path d="M115.491 49.5549L117.224 47.2443C118.386 45.6952 120.689 45.6362 121.929 47.1237L124.029 49.6439C124.338 50.0154 124.733 50.3066 125.18 50.4926L127.442 51.4352C129.079 52.1176 129.77 54.0645 128.929 55.6267L127.359 58.5435C127.123 58.9807 127 59.4694 127 59.9658V62.3046C127 64.2757 125.132 65.7112 123.227 65.2033L120.273 64.4156C119.767 64.2805 119.233 64.2805 118.727 64.4156L115.773 65.2033C113.868 65.7112 112 64.2757 112 62.3046V58.9745C112 58.4725 111.874 57.9786 111.634 57.5379L110.595 55.634C109.742 54.0707 110.431 52.1131 112.075 51.4282L114.245 50.5242C114.739 50.3181 115.17 49.9835 115.491 49.5549Z" stroke="white" stroke-width="5" stroke-linecap="round"/>
<path d="M36.5 137.212V122.417C36.5 121.104 37.3742 119.937 38.6295 119.551C100.704 100.464 136.871 100.082 200.368 119.551C201.624 119.937 202.5 121.105 202.5 122.419V138.479C202.5 138.632 202.494 138.768 202.459 138.918C199.421 151.937 98.6755 184.017 37.7091 139.604C36.9468 139.049 36.5 138.155 36.5 137.212Z" stroke="white" stroke-width="5" stroke-linecap="round"/>
</svg>
