<svg width="136" height="164" viewBox="0 0 136 164" fill="none" xmlns="http://www.w3.org/2000/svg">
<path d="M39.1478 98.4378C40.4347 98.6641 42.497 98.4378 42.497 98.4378C45.1696 102.91 49.1346 113.203 52.8789 116.376C70.0103 129.454 67.4166 127.608 84.465 116.376C88.7651 113.253 90.6667 102.976 93.4045 98.4378C93.4045 98.4378 95.4682 98.6713 96.7537 98.4378C102.935 97.315 106.251 87.4449 101.443 83.5204C99.9193 82.2773 98.9916 81.0726 96.7537 81.5747C98.1641 73.4693 99.6355 68.4298 96.7537 60.8201C93.3781 51.9065 88.3715 46.3516 79.338 42.66C70.4209 39.0159 64.2328 39.0075 54.554 43.3085C45.3981 48.5412 39.9169 53.9823 37.8081 64.063C36.5058 70.2888 37.4691 73.9307 39.1477 80.2771L39.1478 80.2775C36.3655 79.8428 35.336 81.6586 33.7891 83.5204C29.7963 88.3263 32.8803 97.3353 39.1478 98.4378Z" stroke="white" stroke-width="3.5" stroke-linecap="round"/>
<path d="M76.7134 78.3816C77.0412 78.213 78.1766 77.8536 81.5079 77.7911C83.2029 77.7592 84.4805 78.4664 85.5448 78.9051C85.9308 79.2021 86.1993 79.5308 86.4603 79.9624C86.6099 80.2237 86.7944 80.5709 87.1198 81.2851" stroke="white" stroke-width="3.5" stroke-linecap="round"/>
<path d="M60.584 78.1382C59.4684 77.7625 56.9611 76.9367 55.1657 76.936C53.1075 76.9353 50.5184 78.3581 48.9639 79.6015C48.4312 80.1121 47.7181 80.8499 47.3068 81.3173C46.8956 81.7847 46.8077 81.9592 46.6855 82.3762" stroke="white" stroke-width="3.5" stroke-linecap="round"/>
<path d="M59.7993 108.016C60.1473 108.11 62.7456 109.33 65.6649 110.008C69.3003 110.852 72.0764 110.163 72.7414 109.934C78.0355 107.587 82 103.026 83 98.6284" stroke="white" stroke-width="3.5" stroke-linecap="round"/>
</svg>
