<svg width="136" height="164" viewBox="0 0 136 164" fill="none" xmlns="http://www.w3.org/2000/svg">
<path fill-rule="evenodd" clip-rule="evenodd" d="M30.8601 61.7663C31.0285 61.7443 31.1736 61.7673 31.2322 61.777C31.3778 61.8013 31.5398 61.8484 31.6902 61.8972C32.0076 62 32.4631 62.1726 33.0583 62.4157C37.3329 64.1612 46.4372 65.7541 57.533 65.9352C56.3324 69.425 56.1019 71.7946 55.9138 74.8718C55.2023 74.6487 54.4711 74.4074 53.7273 74.1501C49.6352 72.7342 45.0926 70.8366 41.1248 69.0475C37.159 67.2594 33.7404 65.5679 31.8943 64.5573C31.434 64.3054 31.0557 64.0871 30.7869 63.9157C30.6564 63.8325 30.5263 63.7446 30.4207 63.6589C30.3714 63.6189 30.2943 63.5529 30.2214 63.4675C30.1853 63.4251 30.1261 63.3496 30.074 63.2468C30.0273 63.1545 29.9388 62.9465 29.9675 62.6725C30.0023 62.3432 30.1874 62.0851 30.4119 61.9343C30.5976 61.8096 30.7773 61.7771 30.8601 61.7663ZM105.244 57.1667C105.342 57.1734 105.613 57.1977 105.868 57.3864C106.017 57.4969 106.162 57.6657 106.24 57.8952C106.316 58.1181 106.303 58.3234 106.269 58.4723C106.21 58.7345 106.066 58.9146 106.005 58.987C105.861 59.1569 105.669 59.3081 105.505 59.4274C104.819 59.925 103.42 60.7057 101.603 61.6393C99.7615 62.5857 97.4247 63.7223 94.8142 64.9372C89.5941 67.3667 83.255 70.1226 77.5496 72.319C76.5849 72.6904 75.6367 73.0447 74.7146 73.3806C74.8194 70.7613 74.673 68.5141 73.9773 65.3337L73.9373 65.1511C81.9727 64.2359 90.2342 62.4714 97.8982 59.5192C101.02 58.3167 103.042 57.6158 104.141 57.3307C104.417 57.2593 104.668 57.2046 104.88 57.1794C104.984 57.167 105.111 57.1577 105.244 57.1667Z" fill="white"/>
<path d="M59.4018 111.453C56.5772 109.299 58.9158 103.105 56.9185 101.925C50.865 98.3506 56.2653 91.8912 55.6563 90.6064C55.0473 89.3217 49.2815 82.6334 56.9275 78.4796C57.3671 78.2408 56.988 75.7968 56.6411 71.8605C56.4741 69.9645 56.5363 68.2584 56.6059 66.8975C56.9272 60.6161 57.2812 48.2318 64.2141 46.0533C68.816 44.6071 71.6716 49.9737 72.8269 53.21C73.192 54.2327 73.2977 54.8472 73.4092 56.9069C73.639 61.1496 73.3767 65.5962 73.3767 69.868C73.3767 72.9998 73.2179 74.9003 73 75.4998C72.6107 76.5706 78.5366 76.6194 79.149 76.6611C81.6029 76.8282 85.1606 76.7311 87.1185 76.7413C90.0004 76.7563 91.2916 77.5686 91.918 78.1586C92.2056 78.4295 93.0671 79.8918 93.3258 80.7833C93.7899 82.3828 93.1588 83.9319 93.1261 86.2362C93.1063 87.6357 93.7469 90.0421 94.413 92.0365C95.0391 93.9113 91.6969 97.2573 93.1061 99.2618C94.6406 101.445 93.4369 106.385 93.4369 106.385C89.3045 111.647 83.5163 115.346 76.8052 116.455C74.1329 116.897 71.5247 116.974 70.0432 116.999C68.286 117.028 66.6519 116.479 64.5077 115.685C62.5639 114.965 59.266 111.348 59.266 111.348" stroke="white" stroke-width="3.5" stroke-linecap="round"/>
<path d="M77.6221 86.8105C79.297 86.8105 83.2165 86.8105 88.1126 86.8105C89.9521 86.8105 90.4818 86.8105 90.9719 86.8105C91.4621 86.8105 91.8967 86.8105 92.3445 86.8105" stroke="white" stroke-width="3.5" stroke-linecap="round"/>
<path d="M78.1885 97.9473C78.2121 97.9473 80.3286 97.9936 83.782 98.0981C87.4773 98.2912 90.2763 98.2545 90.9621 98.2104C91.4284 98.1954 92.1347 98.1954 92.8624 98.1954" stroke="white" stroke-width="3.5" stroke-linecap="round"/>
<path d="M93.3262 99.8688C93.8578 99.287 96.6118 96.1983 97.8497 94.8857C98.7945 93.8838 99.5182 93.4852 100.071 92.7292C100.823 91.701 101.366 90.2561 101.768 89.403C102.079 88.7422 102.018 87.2915 101.924 86.1763C101.819 84.9393 100.93 83.9905 100.173 83.1434C99.3854 82.2618 98.2188 82.0812 97.1484 81.8433C95.7196 81.8778 95.0162 82.1232 94.4826 82.2976C94.2474 82.3864 94.0842 82.4754 93.5466 82.6449" stroke="white" stroke-width="3.5" stroke-linecap="round"/>
</svg>
