<svg width="136" height="164" viewBox="0 0 136 164" fill="none" xmlns="http://www.w3.org/2000/svg">
<path d="M68 55.9521C54.1736 50.2522 46.3234 51.3477 32.6962 55.7272C32.2836 55.8598 32 56.2455 32 56.6788V106.007C32 106.692 32.6731 107.174 33.323 106.958C46.5654 102.558 54.389 101.541 68 107.402M68 55.9521C81.8528 51.5216 89.7087 50.0067 103.385 55.6933C103.755 55.8472 104 56.2123 104 56.6131V105.837C104 106.567 103.24 107.051 102.571 106.757C89.3921 100.965 81.5758 102.167 68 107.402M68 55.9521V107.402" stroke="white" stroke-width="3.5"/>
<path d="M64.4037 111.598C53.8001 106.772 47.6738 106.83 36 111.598" stroke="white" stroke-width="3.5" stroke-linecap="round"/>
<path d="M100.404 111.598C89.8001 106.772 83.6738 106.83 72 111.598" stroke="white" stroke-width="3.5" stroke-linecap="round"/>
</svg>
