<svg width="136" height="164" viewBox="0 0 136 164" fill="none" xmlns="http://www.w3.org/2000/svg">
<path d="M61.5848 60.9662C69.639 58.7165 68.6323 60.9662 68.6323 60.9662C68.6323 60.9662 73.8763 73.147 76.5187 89.6924C80.8051 92.1501 83.0431 93.6371 85.7475 97.1336C90.9602 105.21 93.634 114.439 94.1374 119.803C94.6408 125.168 89.7747 126.379 88.2645 123.437C86.7543 120.495 83.2804 109.929 78.0289 103.017L65.9475 99.0371C63.0495 98.1056 61.6507 97.1258 59.739 94.1917C57.0902 89.133 56.3495 84.9543 57.3899 73.2527C53.9058 73.4637 52.4223 74.5309 50.5102 77.925C50.7237 82.4682 53.5305 85.7123 53.5305 89.6924C53.5305 93.6726 49.6712 94.7109 47.9932 91.596C46.3153 88.4811 44.2015 80.9601 43.7983 73.2527C49.5323 66.9523 53.5305 63.2158 61.5848 60.9662Z" stroke="white" stroke-width="3.5" stroke-linecap="round"/>
<path d="M68.6323 105.959C64.201 105.928 62.1233 104.974 58.9 102.152V105.959C58.9 105.959 46.651 114.266 43.7983 118.419C40.9457 122.572 42.5872 125.956 47.9932 123.437C53.3993 120.918 69.7934 106.199 68.6323 105.959Z" stroke="white" stroke-width="3.5" stroke-linecap="round"/>
<path d="M80.119 78.7145C79.4478 75.7726 78.097 72.2317 77.4259 69.2899C77.4259 69.2899 83.7339 72.2144 85.7475 73.2527C87.7612 74.291 86.9222 77.4059 85.7475 77.925C84.5729 78.4442 80.119 78.7145 80.119 78.7145Z" stroke="white" stroke-width="3.5" stroke-linecap="round"/>
<path d="M68.001 39.75C71.7485 39.7503 75.0029 43.0622 75.0029 47.4248C75.0028 51.7873 71.7484 55.0993 68.001 55.0996C64.2534 55.0996 60.9981 51.7875 60.998 47.4248C60.998 43.062 64.2533 39.75 68.001 39.75Z" stroke="white" stroke-width="3.5"/>
</svg>
