<svg width="136" height="164" viewBox="0 0 136 164" fill="none" xmlns="http://www.w3.org/2000/svg">
<path d="M39.0236 98.0926C40.3241 98.3177 42.4083 98.0926 42.4083 98.0926C45.1093 102.539 49.1164 112.771 52.9006 115.925C70.214 128.925 67.5927 127.09 84.8222 115.925C89.168 112.82 91.0898 102.604 93.8567 98.0926C93.8567 98.0926 95.9423 98.3248 97.2415 98.0926C103.488 96.9765 106.84 87.1647 101.98 83.2634C100.441 82.0276 99.5031 80.83 97.2415 81.3291C98.6668 73.2717 100.154 68.2619 97.2415 60.6971C93.8301 51.8361 88.7703 46.3141 79.6408 42.6443C70.6289 39.0217 64.3751 39.0134 54.5935 43.2889C45.3403 48.4907 39.8008 53.8997 37.6697 63.9209C36.3535 70.1099 37.327 73.7303 39.0234 80.0392L39.0236 80.0396C36.2117 79.6075 35.1712 81.4126 33.6079 83.2634C29.5727 88.0409 32.6895 96.9966 39.0236 98.0926Z" stroke="white" stroke-width="3.5" stroke-linecap="round"/>
<path d="M77.918 76.2124C78.2915 76.1875 79.4914 76.3059 82.5977 77.5553C84.1782 78.191 85.0642 79.3352 85.8652 80.1515C86.0981 80.573 86.2091 80.9772 86.2703 81.4721C86.2995 81.7684 86.3251 82.1565 86.3277 82.9337" stroke="white" stroke-width="3.5" stroke-linecap="round"/>
<path d="M60.5011 75.1117C59.3095 75.1563 56.6382 75.2736 54.9469 75.9049C53.0078 76.6286 51.1023 78.8582 50.104 80.5574C49.7935 81.218 49.3984 82.1526 49.1861 82.7304C48.9738 83.3082 48.9565 83.5008 48.9977 83.9302" stroke="white" stroke-width="3.5" stroke-linecap="round"/>
<path d="M60.3346 107.348C60.6721 107.15 61.192 104.625 65.9799 103.215C71.1251 101.7 78.4439 103.409 79.6318 108.521" stroke="white" stroke-width="3.5" stroke-linecap="round"/>
</svg>
