<svg width="136" height="164" viewBox="0 0 136 164" fill="none" xmlns="http://www.w3.org/2000/svg">
<path d="M39.1478 98.4378C40.4347 98.6641 42.497 98.4378 42.497 98.4378C45.1696 102.91 49.1346 113.203 52.8789 116.376C70.0103 129.454 67.4166 127.608 84.465 116.376C88.7651 113.253 90.6667 102.976 93.4045 98.4378C93.4045 98.4378 95.4682 98.6713 96.7537 98.4378C102.935 97.315 106.251 87.4449 101.443 83.5204C99.9193 82.2773 98.9916 81.0726 96.7537 81.5747C98.1641 73.4694 99.6355 68.4298 96.7537 60.8201C93.3781 51.9065 88.3715 46.3516 79.338 42.66C70.4209 39.0159 64.2328 39.0075 54.554 43.3085C45.3981 48.5412 39.9169 53.9823 37.8081 64.063C36.5058 70.2888 37.4691 73.9307 39.1477 80.2771L39.1478 80.2775C36.3655 79.8428 35.336 81.6586 33.7891 83.5204C29.7963 88.3263 32.8803 97.3353 39.1478 98.4378Z" stroke="white" stroke-width="3.5" stroke-linecap="round"/>
<ellipse cx="69.5" cy="101.56" rx="11.5" ry="10.7486" fill="white"/>
<ellipse cx="82" cy="73.223" rx="4" ry="3.90858" fill="white"/>
<ellipse cx="56" cy="73.223" rx="4" ry="3.90858" fill="white"/>
</svg>
