<svg width="136" height="164" viewBox="0 0 136 164" fill="none" xmlns="http://www.w3.org/2000/svg">
<path d="M31.5 117H36.7143M104.5 117H98.2429M98.2429 117V89.6794C98.2429 89.1271 97.7951 88.6794 97.2429 88.6794H85.1643C84.612 88.6794 84.1643 89.1271 84.1643 89.6794V115.397V77.4468C84.1643 77.1191 84.0037 76.8122 83.7346 76.6253L68 65.7023M98.2429 117H36.7143M68 65.7023V58.7557M68 65.7023L50.7366 76.6292C50.447 76.8125 50.2714 77.1314 50.2714 77.4742V88.6794M68 58.7557V48C68 47.4477 68.4477 47 69 47H81.2991C81.9559 47 82.4343 47.6224 82.2654 48.2572L81.1042 52.6207C81.0593 52.7892 81.0593 52.9665 81.1042 53.135L82.2654 57.4985C82.4343 58.1333 81.9559 58.7557 81.2991 58.7557H68ZM50.2714 115.397V88.6794M50.2714 88.6794H37.7143C37.162 88.6794 36.7143 89.1271 36.7143 89.6794V117M60.7 115.397V91.8168C60.7 91.2645 61.1477 90.8168 61.7 90.8168H73.2571C73.8094 90.8168 74.2571 91.2645 74.2571 91.8168V115.397" stroke="white" stroke-width="3.5" stroke-linecap="round"/>
</svg>
