<svg width="136" height="164" viewBox="0 0 136 164" fill="none" xmlns="http://www.w3.org/2000/svg">
<path d="M87.4185 65.3892C82.0431 67.0537 77.0909 70.0599 75.7754 71.0309C81.8786 77.4796 88.9254 81.6464 99.598 78.2425C101.635 77.5928 104.758 75.7644 103.833 74.3708C100.334 69.1026 93.6714 63.4529 87.4185 65.3892Z" stroke="white" stroke-width="3.5" stroke-linecap="round"/>
<path d="M48.923 66.4139C54.409 68.0211 59.463 70.924 60.8057 71.8616C54.5769 78.0886 47.385 82.1121 36.4929 78.8253C34.4138 78.1979 31.2268 76.4324 32.1712 75.0867C35.7413 69.9996 42.5414 64.5442 48.923 66.4139Z" stroke="white" stroke-width="3.5" stroke-linecap="round"/>
<ellipse cx="45.8014" cy="73.615" rx="4.28186" ry="4.36303" fill="white"/>
<ellipse cx="90.9371" cy="73.5163" rx="4.28186" ry="4.36303" fill="white"/>
<path d="M89.5 84.5L77.5 122.5" stroke="white" stroke-width="3.5" stroke-linecap="round"/>
<path d="M77.1683 125.752C76.6036 126.219 75.7451 125.94 75.5626 125.23L74.1955 119.913C73.9991 119.149 74.7229 118.469 75.473 118.713L81.0717 120.532C81.8218 120.775 82.0077 121.751 81.3999 122.253L77.1683 125.752Z" fill="white"/>
<path d="M45.7764 85L33.7764 123" stroke="white" stroke-width="3.5" stroke-linecap="round"/>
<path d="M33.4447 126.252C32.88 126.719 32.0215 126.44 31.839 125.73L30.4718 120.413C30.2755 119.649 30.9993 118.969 31.7494 119.213L37.3481 121.032C38.0982 121.275 38.2841 122.251 37.6763 122.753L33.4447 126.252Z" fill="white"/>
</svg>
