<svg width="136" height="164" viewBox="0 0 136 164" fill="none" xmlns="http://www.w3.org/2000/svg">
<path d="M52.638 95.4422C53.6614 95.624 55.3013 95.4422 55.3013 95.4422C57.4265 99.0328 60.5795 107.296 63.557 109.843L71.2809 115.749C76.614 121.247 80.4706 119.67 88.6742 109.843C92.0936 107.336 93.6058 99.0852 95.7829 95.4422C95.7829 95.4422 97.4239 95.6297 98.4462 95.4422C103.361 94.5409 105.999 86.6171 102.175 83.4666C100.963 82.4686 100.226 81.5014 98.4462 81.9045C99.5677 75.3976 100.738 71.3518 98.4462 65.2427C95.7619 58.0868 91.7807 53.6274 84.5972 50.6637C77.5064 47.7383 72.5856 47.7316 64.889 51.1844C57.6083 55.3852 53.2496 59.7533 51.5727 67.8461C50.5371 72.8442 51.3031 75.7679 52.6379 80.8628L52.638 80.8632C50.4256 80.5142 49.6069 81.9719 48.3768 83.4666C45.2017 87.3247 47.6541 94.5571 52.638 95.4422Z" stroke="white" stroke-width="3.5" stroke-linecap="round"/>
<path d="M69.9353 85.497C69.8605 85.4065 69.5125 85.2008 68.8289 85.051C66.9194 84.6326 65.5565 85.0295 64.1453 85.5005C63.8729 85.5886 63.6977 85.6242 63.4042 85.6497C63.1106 85.6753 62.704 85.6896 62.2725 85.7144" stroke="white" stroke-width="3.5" stroke-linecap="round"/>
<path d="M82.7275 85.7531C82.8422 85.6831 83.2741 85.323 83.9025 84.8655C84.4123 84.4945 85.2255 84.3339 86.1792 84.1465C87.7588 83.8361 88.4865 84.5896 89.374 84.9592C89.8837 85.0988 90.4593 85.1927 91.0893 85.3149C91.3997 85.4002 91.6911 85.5328 92.0933 85.675" stroke="white" stroke-width="3.5" stroke-linecap="round"/>
<path d="M77.999 59.1826C77.2916 59.6738 75.9866 60.8328 74.9565 62.5943C74.2384 63.8223 74.0281 65.1722 73.8238 67.1026C73.4369 70.7582 73.5887 73.7713 73.499 74.9031C73.3922 76.2502 71.4702 77.0142 69.7332 77.5904C68.9467 77.8512 67.4708 77.8076 66.6678 77.7717C65.8648 77.7359 65.7414 77.5434 65.5371 77.0986C65.0215 75.9755 64.6445 74.8627 64.3403 74.3823C63.793 73.5179 62.6203 76.2635 62.0135 77.9352C61.8953 78.2607 61.8915 78.4982 61.7742 78.6824C61.0278 79.1899 58.6198 79.401 55.3116 79.5776C53.9508 79.6481 53.2355 79.6797 51.8965 79.5811" stroke="white" stroke-width="3.5" stroke-linecap="round"/>
<path d="M77.1274 60.1362C77.6293 60.6469 78.281 61.8117 78.6599 64.4153C78.9501 66.4097 79.038 69.8175 79.0709 72.1708C79.1038 74.5241 78.9764 75.7316 79.0029 76.1545C79.016 76.3632 80.1073 72.9692 81.2463 67.9807C81.7433 65.8042 81.826 64.2963 82.0393 63.905C82.9405 62.252 84.0357 68.6382 84.5666 71.7581C85.051 74.6044 84.4073 76.7795 85.116 77.5663C86.845 79.4858 90.3553 79.5474 92.658 79.971C93.7161 80.1434 94.5499 80.2295 95.4106 80.3077C96.2712 80.3859 97.1333 80.4535 98.0216 80.5233" stroke="white" stroke-width="3.5" stroke-linecap="round"/>
<path d="M85.2987 50.1898C86.9008 40.8433 38.6491 27.3619 33.869 65.2332C33.2832 69.8741 33.2193 75.4671 33.7187 81.114C34.218 86.7609 35.2827 92.2923 35.8599 95.826C36.6569 100.705 36.4438 102.621 36.1847 103.572C35.5837 105.778 33.2415 108.252 32.0819 110.163C31.6927 110.805 32.7886 111.168 33.3236 111.319C34.6091 111.68 36.4372 110.976 37.989 110.179C38.5161 109.908 39.2137 109.34 39.5957 109.183C39.9778 109.025 39.9898 109.241 39.96 109.534C39.7743 111.358 38.2664 114.5 36.2556 117.223C35.7114 117.96 34.8412 118.576 35.2662 118.917C36.894 120.222 40.1792 118.98 42.1703 118.567C44.7615 118.028 47.0811 115.793 48.6324 114.171C49.4033 113.364 48.5224 119.959 48.9457 123.288C49.0367 124.004 49.383 124.852 49.5972 124.927C51.2743 125.512 50.6578 122.464 52.8734 119.968C54.7556 118.461 56.0266 117.869 59.6297 117.375C60.6519 117.289 63.7283 121.627 64.2598 121.504L68 114.171" stroke="white" stroke-width="3.5" stroke-linecap="round"/>
<path d="M71.561 105.606C72.0004 105.893 74.4549 106.858 76.0805 107.032C76.6532 106.931 77.826 106.46 79.2447 105.797C79.7907 105.535 79.9833 105.425 80.2026 105.294" stroke="white" stroke-width="3.5" stroke-linecap="round"/>
</svg>
