<svg width="136" height="164" viewBox="0 0 136 164" fill="none" xmlns="http://www.w3.org/2000/svg">
<path d="M37.1478 98.4378C38.4347 98.6641 40.497 98.4378 40.497 98.4378C43.1696 102.91 47.1346 113.203 50.8789 116.376C68.0103 129.454 65.4166 127.608 82.465 116.376C86.7651 113.253 88.6667 102.976 91.4045 98.4378C91.4045 98.4378 93.4682 98.6713 94.7537 98.4378C100.935 97.315 104.251 87.4449 99.4426 83.5204C97.9193 82.2773 96.9916 81.0726 94.7537 81.5747C96.1641 73.4693 97.6355 68.4298 94.7537 60.8201C91.3781 51.9065 86.3715 46.3516 77.338 42.66C68.4209 39.0159 62.2328 39.0075 52.554 43.3085C43.3981 48.5412 37.9169 53.9823 35.8081 64.063C34.5058 70.2888 35.4691 73.9307 37.1477 80.2771L37.1478 80.2775C34.3655 79.8428 33.336 81.6586 31.7891 83.5204C27.7963 88.3263 30.8803 97.3353 37.1478 98.4378Z" stroke="white" stroke-width="3.5" stroke-linecap="round"/>
<path d="M75.6335 76.4275C76.0031 76.4025 77.1904 76.5216 80.264 77.7784C81.8279 78.4179 82.7046 79.5688 83.4971 80.3901C83.7276 80.8141 83.8374 81.2206 83.8979 81.7184C83.9269 82.0165 83.9522 82.407 83.9548 83.1887" stroke="white" stroke-width="3.5" stroke-linecap="round"/>
<path d="M58.3998 75.3207C57.2207 75.3655 54.5775 75.4836 52.9039 76.1186C50.9853 76.8466 49.0997 79.0895 48.1119 80.7987C47.8048 81.4633 47.4137 82.4034 47.2037 82.9847C46.9937 83.5659 46.9765 83.7597 47.0173 84.1916" stroke="white" stroke-width="3.5" stroke-linecap="round"/>
<path d="M67.0005 105.264C68.0393 105.264 68.9792 105.621 69.7095 106.208C68.8673 105.909 67.9252 105.672 67.0005 105.672C66.0752 105.672 65.1322 105.909 64.2896 106.208C65.02 105.62 65.9612 105.264 67.0005 105.264Z" fill="white" stroke="white" stroke-width="3.5"/>
<path d="M58.0208 81.7095C58.0208 81.7275 57.3898 82.4026 55.981 83.7145C53.1457 85.6952 52.2816 86.0401 51.4755 86.3316C51.0905 86.4902 50.7544 86.6705 50.4082 86.8563" stroke="white" stroke-width="3.5" stroke-linecap="round"/>
<path d="M72.5166 79.0562C72.5378 79.2045 72.84 79.7598 74.7553 81.746C75.5769 82.5462 76.2647 83.1344 78.7815 84.3876C79.3416 84.6749 79.5579 84.8226 79.9249 85.0839" stroke="white" stroke-width="3.5" stroke-linecap="round"/>
</svg>
