<svg width="136" height="164" viewBox="0 0 136 164" fill="none" xmlns="http://www.w3.org/2000/svg">
<path d="M43.8033 67.7668C63.6548 61.3151 74.1172 61.4672 91.4959 67.7668M39.5339 108.141C60.2912 113.905 72.5408 115.289 95.753 108.162C96.118 108.05 96.5145 108.041 96.8827 108.142L103.506 109.959C104.909 110.343 106.24 109.15 106.01 107.714L104.958 101.131C104.915 100.863 104.928 100.586 104.994 100.322C108.109 87.8379 108.433 80.6584 105.006 68.1762C104.933 67.9088 104.913 67.6251 104.953 67.3505L106.041 59.788C106.252 58.3187 104.846 57.1392 103.436 57.6034L96.8549 59.7698C96.5043 59.8852 96.123 59.8998 95.7636 59.8156C74.2163 54.7703 61.7166 54.6867 39.5508 59.8137C39.1821 59.899 38.7907 59.8803 38.4332 59.7561L32.6084 57.7321C31.1537 57.2267 29.6976 58.4858 29.9877 59.9981L31.3977 67.347C31.4508 67.6238 31.444 67.9122 31.3792 68.1864C28.5045 80.3512 26.6185 87.3505 31.2749 100.173C31.4048 100.53 31.4361 100.923 31.3567 101.295L30.0312 107.513C29.7161 108.991 31.0917 110.271 32.5436 109.851L38.434 108.145C38.7912 108.042 39.1756 108.042 39.5339 108.141Z" stroke="white" stroke-width="3.5" stroke-linecap="round"/>
</svg>
