<svg width="136" height="164" viewBox="0 0 136 164" fill="none" xmlns="http://www.w3.org/2000/svg">
<path d="M39.0236 98.0926C40.3241 98.3177 42.4083 98.0926 42.4083 98.0926C45.1093 102.539 49.1164 112.771 52.9006 115.925C70.214 128.925 67.5927 127.09 84.8222 115.925C89.168 112.82 91.0898 102.604 93.8567 98.0926C93.8567 98.0926 95.9423 98.3248 97.2415 98.0926C103.488 96.9765 106.84 87.1647 101.98 83.2634C100.441 82.0276 99.5031 80.83 97.2415 81.3291C98.6668 73.2717 100.154 68.2619 97.2415 60.6971C93.8301 51.8361 88.7703 46.3141 79.6408 42.6443C70.6289 39.0217 64.3751 39.0134 54.5935 43.2889C45.3403 48.4907 39.8008 53.8997 37.6697 63.9209C36.3535 70.1099 37.327 73.7303 39.0234 80.0392L39.0236 80.0396C36.2117 79.6075 35.1712 81.4126 33.6079 83.2634C29.5727 88.0409 32.6895 96.9966 39.0236 98.0926Z" stroke="white" stroke-width="3.5" stroke-linecap="round"/>
<path d="M87.205 82.6003C86.9348 82.8494 85.9346 83.4974 82.7168 84.4512C81.0796 84.9365 79.6367 84.6037 78.4775 84.4702C78.0177 84.29 77.6631 84.0481 77.2862 83.7058C77.0662 83.4963 76.7878 83.2141 76.2677 82.619" stroke="white" stroke-width="3.5" stroke-linecap="round"/>
<path d="M50.2013 82.8676C51.1774 83.401 53.3743 84.5822 55.0506 84.8689C56.9724 85.1975 59.6388 84.2628 61.3078 83.3332C61.8945 82.9346 62.6893 82.3496 63.1551 81.9726C63.6208 81.5956 63.7334 81.4444 63.9204 81.069" stroke="white" stroke-width="3.5" stroke-linecap="round"/>
<ellipse cx="70" cy="105.5" rx="8" ry="2.5" fill="white"/>
</svg>
