<svg width="136" height="164" viewBox="0 0 136 164" fill="none" xmlns="http://www.w3.org/2000/svg">
<path d="M38 111.857C47.3111 109.766 50.9319 101.538 53.5211 94.9824C53.8559 94.1347 54.2392 92.3115 54.7115 90.5288C55.6117 87.1313 55.5789 86.0752 55.7884 85.2751C57.0462 80.4711 55.4417 68.969 61.5777 67.1324C62.685 66.801 63.7971 67.115 64.9418 67.8119C67.9017 69.614 66.7995 80.5006 66.8299 84.0368C66.8448 85.7653 66.9206 86.213 67.0125 88.9683C67.0999 91.5863 67.1485 96.6834 67.0865 99.7979C67.0049 103.896 66.5133 105.171 66.2503 105.815C65.9036 106.664 65.0723 107.913 64.2275 109.173C63.3029 110.552 60.9238 112.768 59.4569 114.278C58.9885 114.761 57.8342 115.684 56.1674 117.037C54.102 118.714 52.9263 119.736 51.7778 120.626C49.9216 122.165 48.1252 123.569 47.169 124.545C47.0017 124.721 46.8949 124.818 46.5931 125" stroke="white" stroke-width="3.5" stroke-linecap="round"/>
<path d="M67 87.4466C66.8297 87.3682 66.2614 87.15 65.4907 87.0511C63.9712 86.856 63.2985 87.2077 62.2655 88.3135C61.5541 89.075 61.3954 90.6592 61.1541 93.2057C61.011 94.7172 60.9828 96.6877 60.8979 98.1072C60.5736 101.31 60.3913 101.88 60.2093 102.405C60.1372 102.628 60.1065 102.766 60 103" stroke="white" stroke-width="3.5" stroke-linecap="round"/>
<path d="M97 111.857C87.6889 109.766 84.0681 101.538 81.4789 94.9824C81.1441 94.1347 80.7608 92.3115 80.2885 90.5288C79.3883 87.1313 79.4211 86.0752 79.2116 85.2751C77.9538 80.4711 79.5583 68.969 73.4223 67.1324C72.315 66.801 71.2029 67.115 70.0582 67.8119C67.0983 69.614 68.2005 80.5006 68.1701 84.0368C68.1552 85.7653 68.0794 86.213 67.9875 88.9683C67.9001 91.5863 67.8515 96.6834 67.9135 99.7979C67.9951 103.896 68.4867 105.171 68.7497 105.815C69.0964 106.664 69.9277 107.913 70.7725 109.173C71.6971 110.552 74.0762 112.768 75.5431 114.278C76.0115 114.761 77.1658 115.684 78.8326 117.037C80.898 118.714 82.0737 119.736 83.2222 120.626C85.0784 122.165 86.8748 123.569 87.831 124.545C87.9983 124.721 88.1051 124.818 88.4069 125" stroke="white" stroke-width="3.5" stroke-linecap="round"/>
<path d="M68 87.4466C68.1703 87.3682 68.7386 87.15 69.5093 87.0511C71.0288 86.856 71.7015 87.2077 72.7345 88.3135C73.4459 89.075 73.6046 90.6592 73.8459 93.2057C73.989 94.7172 74.0172 96.6877 74.1021 98.1072C74.4264 101.31 74.6087 101.88 74.7907 102.405C74.8628 102.628 74.8935 102.766 75 103" stroke="white" stroke-width="3.5" stroke-linecap="round"/>
<path d="M84.289 50.2027C85.6315 42.9999 78.1327 40.2301 72.7518 44.818L74.9306 47.1102L72.3069 49.1998L74.9893 52.2089L70.4749 55.0238L70.7301 61.0501C74.4429 57.1383 82.9464 57.4055 84.289 50.2027Z" stroke="white" stroke-width="2.68455" stroke-linecap="round"/>
<path d="M49.704 52.5637C52.474 59.5637 61.367 57.022 65.7721 59.8156L65.1557 53.7164L60.5481 53.177L60.9173 49.1193L58.0555 48.4034L60.4357 44.353C54.5954 41.8244 46.9339 45.5636 49.704 52.5637Z" stroke="white" stroke-width="2.68455" stroke-linecap="round"/>
</svg>
