<svg width="136" height="164" viewBox="0 0 136 164" fill="none" xmlns="http://www.w3.org/2000/svg">
<path d="M34.112 94.3006C39.6683 98.183 45.2246 98.796 52.5668 112.895C59.9091 126.994 94.7555 130.165 102.97 114.938C104.955 111.26 103.566 64.672 102.97 59.5636C102.375 54.4552 94.4374 53.6379 94.4374 59.5636V75.7061H90.6671V50.9815C90.2702 45.0558 82.1342 44.4428 82.1342 50.9815V75.7061L78.3639 75.7062V44.4428C78.3639 37.4955 70.2279 36.8825 70.2279 44.4428V75.7062L66.656 75.7061V50.9815C66.656 42.1952 57.3294 42.8082 57.3294 50.9815V96.1396C57.3294 96.1396 49.5903 91.6443 42.248 87.7619C34.9057 83.8795 28.5557 90.4183 34.112 94.3006Z" stroke="white" stroke-width="3.5"/>
</svg>
