<svg width="136" height="164" viewBox="0 0 136 164" fill="none" xmlns="http://www.w3.org/2000/svg">
<path d="M39.1478 98.4378C40.4347 98.6641 42.497 98.4378 42.497 98.4378C45.1696 102.91 49.1346 113.203 52.8789 116.376C70.0103 129.454 67.4166 127.608 84.465 116.376C88.7651 113.253 90.6667 102.976 93.4045 98.4378C93.4045 98.4378 95.4682 98.6713 96.7537 98.4378C102.935 97.315 106.251 87.4449 101.443 83.5204C99.9193 82.2773 98.9916 81.0726 96.7537 81.5747C98.1641 73.4693 99.6355 68.4298 96.7537 60.8201C93.3781 51.9065 88.3715 46.3516 79.338 42.66C70.4209 39.0159 64.2328 39.0075 54.554 43.3085C45.3981 48.5412 39.9169 53.9823 37.8081 64.063C36.5058 70.2888 37.4691 73.9307 39.1477 80.2771L39.1478 80.2775C36.3655 79.8428 35.336 81.6586 33.7891 83.5204C29.7963 88.3263 32.8803 97.3353 39.1478 98.4378Z" stroke="white" stroke-width="3.5" stroke-linecap="round"/>
<path d="M77.6335 76.4275C78.0031 76.4025 79.1904 76.5216 82.264 77.7784C83.8279 78.4179 84.7046 79.5688 85.4971 80.3901C85.7276 80.8141 85.8374 81.2206 85.8979 81.7184C85.9269 82.0165 85.9522 82.407 85.9548 83.1887" stroke="white" stroke-width="3.5" stroke-linecap="round"/>
<path d="M60.3998 75.3207C59.2207 75.3655 56.5775 75.4836 54.9039 76.1186C52.9853 76.8466 51.0997 79.0895 50.1119 80.7987C49.8048 81.4633 49.4137 82.4034 49.2037 82.9847C48.9937 83.5659 48.9765 83.7597 49.0173 84.1916" stroke="white" stroke-width="3.5" stroke-linecap="round"/>
<path d="M69 105.264C71.3856 105.264 73.25 107.144 73.25 109.377C73.2498 111.611 71.3854 113.49 69 113.49C66.6146 113.49 64.7502 111.611 64.75 109.377C64.75 107.144 66.6144 105.264 69 105.264Z" fill="white" stroke="white" stroke-width="3.5"/>
</svg>
