<svg width="136" height="164" viewBox="0 0 136 164" fill="none" xmlns="http://www.w3.org/2000/svg">
<path d="M70.1644 71.7502C68.5199 71.0757 67.3787 71.0741 65.5938 71.8702C60.642 74.7107 61.2637 81.9755 65.2849 85.395C65.2149 86.7213 65.0855 87.2729 64.1001 88.2999C56.5377 91.6117 51.4509 97.8461 54.2248 106.998H81.4923C83.6984 97.6362 79.5747 91.2549 71.1099 88.2999C70.6687 87.1653 70.5623 86.5295 71.1099 85.395C74.2571 83.101 74.6986 78.6166 73.3762 75.1116C72.7537 73.4617 71.8304 72.4335 70.1644 71.7502Z" stroke="white" stroke-width="3.5" stroke-linecap="round"/>
<path d="M89.8434 64.5908C87.8653 63.7814 86.4925 63.7795 84.3454 64.7349C78.4423 68.1129 79.1572 76.8786 83.9738 80.9646C84.8878 85.8645 77.0765 89.1179 75.8911 90.3503C83.3689 95.8655 83.5823 104.544 80.9278 106.988L103.47 106.888C106.123 95.6541 101.163 87.9966 90.9807 84.4505C90.45 83.089 90.322 82.326 90.9807 80.9646C95.95 77.3513 95.9685 67.0971 89.8434 64.5908Z" stroke="white" stroke-width="3.5" stroke-linecap="round"/>
<path d="M46.1341 66.6644C48.0847 65.8947 49.4384 65.8929 51.5557 66.8014C57.3039 69.9736 56.6708 78.3506 51.9221 82.2355C50.6665 87.967 58.4664 89.4849 59.6353 90.6568C54.4333 94.3336 50.9948 99.1854 53.7831 107L32.6971 106.888C30.0802 96.2049 34.9716 88.9228 45.0125 85.5505C45.5359 84.2558 45.6621 83.5302 45.0125 82.2355C41.572 79.823 40.8711 74.2058 42.3243 70.5004C43.0627 68.6176 44.1579 67.4442 46.1341 66.6644Z" stroke="white" stroke-width="3.5" stroke-linecap="round"/>
</svg>
