<svg width="136" height="164" viewBox="0 0 136 164" fill="none" xmlns="http://www.w3.org/2000/svg">
<path d="M44.9579 121.988C44.9579 121.839 44.4527 119.674 43.5621 115.643C42.9263 111.963 41.3044 105.281 39.1837 97.5636C38.4271 94.7411 38.3192 94.139 38 92.8262" stroke="white" stroke-width="3.5" stroke-linecap="round"/>
<path d="M55.1897 121.519C55.1897 121.253 55.0055 118.426 54.252 111.046C53.7721 106.347 52.734 99.7488 52.0745 91.7436C51.415 83.7384 51.0735 74.536 50.7194 69.6241C50.3654 64.7121 50.0091 64.3693 49.6421 64.0161" stroke="white" stroke-width="3.5" stroke-linecap="round"/>
<path d="M68.3933 121.311C68.3933 121.256 68.3933 121.201 68.5008 110.776C68.6084 100.352 68.8234 79.5589 68.8716 68.4557C68.5103 55.1598 68.15 53.0277 68.0601 51.1514C68.0151 50.186 67.9715 49.1936 67.7397 48" stroke="white" stroke-width="3.5" stroke-linecap="round"/>
<path d="M77.8682 121.588C77.8682 121.477 77.9388 119.143 78.4136 113.139C79.1157 104.261 80.5135 97.8697 80.8622 95.4717C81.6327 89.5899 83.3218 79.9538 84.2771 74.6202C84.4087 73.4213 84.4523 71.7562 84.616 69.1011" stroke="white" stroke-width="3.5" stroke-linecap="round"/>
<path d="M87.8975 121.669C87.8975 121.457 88.0733 120.625 89.8233 116.334C91.3973 112.765 94.3642 106.372 95.9754 102.832C97.5866 99.2922 97.7522 98.7986 97.9229 98.29" stroke="white" stroke-width="3.5" stroke-linecap="round"/>
</svg>
