<svg width="136" height="164" viewBox="0 0 136 164" fill="none" xmlns="http://www.w3.org/2000/svg">
<path d="M103.967 125.221L64.2994 120.101C64.2994 120.101 37.6529 111.447 33.6771 107.623C29.7013 103.799 33.2733 93.7672 43.4011 98.5277C53.5288 103.288 59.621 104.675 59.621 104.675L64.4218 105.659M77.0784 108.253L64.4218 105.659M64.4218 105.659C50.3721 100.049 57.8989 90.6192 66.0686 93.2424C74.2384 95.8655 84.8234 93.7986 91.1159 97.0555C97.4083 100.313 104.221 106.407 105.539 106.608" stroke="white" stroke-width="3.5" stroke-linecap="round"/>
<rect x="30" y="58.0386" width="20.3054" height="21.6554" rx="3" fill="white"/>
<path d="M45.6641 53.1701C46.9621 38.9349 74.5916 35.0348 73.4787 72.4754" stroke="white" stroke-width="3.5" stroke-linecap="round"/>
<path d="M74.1464 78.1396C73.7428 78.7511 72.8403 78.7354 72.4583 78.1101L69.5962 73.4247C69.1851 72.7517 69.6785 71.8898 70.4671 71.9036L76.353 72.0063C77.1416 72.0201 77.6046 72.8987 77.1702 73.5569L74.1464 78.1396Z" fill="white"/>
</svg>
