<svg width="136" height="164" viewBox="0 0 136 164" fill="none" xmlns="http://www.w3.org/2000/svg">
<path d="M35.1843 105.751C35.7575 105.854 36.6763 105.751 36.6763 105.751C37.8669 107.775 39.6332 112.433 41.3013 113.869C48.9331 119.787 47.7776 118.951 55.3725 113.869C57.2881 112.455 58.1353 107.805 59.3549 105.751C59.3549 105.751 60.2743 105.857 60.8469 105.751C63.6006 105.243 65.078 100.777 62.9358 99.001C62.2572 98.4384 61.8439 97.8933 60.8469 98.1205C61.4752 94.4527 62.1307 92.1722 60.8469 88.7286C59.3432 84.695 57.1128 82.1814 53.0885 80.5108C49.116 78.8618 46.3593 78.858 42.0475 80.8043C37.9687 83.1722 35.5269 85.6344 34.5875 90.1961C34.0073 93.0134 34.4364 94.6614 35.1842 97.5333L35.1843 97.5335C33.9448 97.3368 33.4861 98.1585 32.797 99.001C31.0183 101.176 32.3922 105.252 35.1843 105.751Z" stroke="white" stroke-width="3.5" stroke-linecap="round"/>
<path d="M75.1884 105.654C75.7624 105.758 76.6824 105.654 76.6824 105.654C77.8745 107.694 79.6432 112.389 81.3134 113.836C88.9552 119.801 87.7982 118.959 95.403 113.836C97.3211 112.412 98.1694 107.724 99.3906 105.654C99.3906 105.654 100.311 105.761 100.885 105.654C103.642 105.142 105.121 100.64 102.976 98.8503C102.297 98.2832 101.883 97.7338 100.885 97.9628C101.514 94.2658 102.17 91.9672 100.885 88.4963C99.3789 84.4307 97.1456 81.8971 93.116 80.2132C89.1384 78.5511 86.3781 78.5473 82.0607 80.509C77.9765 82.8957 75.5315 85.3775 74.5908 89.9755C74.0099 92.8151 74.4396 94.4762 75.1884 97.3709L75.1884 97.3711C73.9473 97.1729 73.4881 98.0011 72.7981 98.8503C71.017 101.042 72.3927 105.151 75.1884 105.654Z" stroke="white" stroke-width="3.5" stroke-linecap="round"/>
<path d="M45.4269 65.7914C44.5269 36.2654 93.3763 36.9502 91.9245 65.6627" stroke="white" stroke-width="3.5" stroke-linecap="round"/>
<path d="M46.3442 69.6708C45.9513 70.2893 45.0487 70.2893 44.6558 69.6708L41.7124 65.0361C41.2896 64.3703 41.7679 63.5 42.5566 63.5H48.4434C49.2321 63.5 49.7104 64.3703 49.2876 65.0361L46.3442 69.6708Z" fill="white"/>
<path d="M92.7441 69.6708C92.3512 70.2893 91.4486 70.2893 91.0558 69.6708L88.1123 65.0361C87.6895 64.3703 88.1678 63.5 88.9565 63.5H94.8433C95.632 63.5 96.1103 64.3703 95.6875 65.0361L92.7441 69.6708Z" fill="white"/>
</svg>
