<svg width="136" height="164" viewBox="0 0 136 164" fill="none" xmlns="http://www.w3.org/2000/svg">
<path d="M32.9 79.7528L57.65 70M57.65 70H104V122M57.65 70L32 79.7528V122" stroke="white" stroke-width="3.5" stroke-linecap="round"/>
<path d="M68.1903 76.9091V76.6364C68.2206 73.7424 68.5237 71.4394 69.0994 69.7273C69.6752 68.0152 70.4934 66.6288 71.554 65.5682C72.6146 64.5076 73.8873 63.5303 75.3722 62.6364C76.2661 62.0909 77.0691 61.447 77.7812 60.7045C78.4934 59.947 79.054 59.0758 79.4631 58.0909C79.8873 57.1061 80.0994 56.0152 80.0994 54.8182C80.0994 53.3333 79.7509 52.0455 79.054 50.9545C78.357 49.8636 77.4252 49.0227 76.2585 48.4318C75.0919 47.8409 73.7964 47.5455 72.3722 47.5455C71.1297 47.5455 69.9328 47.803 68.7812 48.3182C67.6297 48.8333 66.6676 49.6439 65.8949 50.75C65.1222 51.8561 64.6752 53.303 64.554 55.0909H58.8267C58.9479 52.5152 59.6146 50.3106 60.8267 48.4773C62.054 46.6439 63.6676 45.2424 65.6676 44.2727C67.6828 43.303 69.9176 42.8182 72.3722 42.8182C75.0388 42.8182 77.357 43.3485 79.3267 44.4091C81.3116 45.4697 82.8419 46.9242 83.9176 48.7727C85.0085 50.6212 85.554 52.7273 85.554 55.0909C85.554 56.7576 85.2964 58.2652 84.7812 59.6136C84.2812 60.9621 83.554 62.1667 82.5994 63.2273C81.66 64.2879 80.5237 65.2273 79.1903 66.0455C77.857 66.8788 76.7888 67.7576 75.9858 68.6818C75.1828 69.5909 74.5994 70.6742 74.2358 71.9318C73.8722 73.1894 73.6752 74.7576 73.6449 76.6364V76.9091H68.1903ZM71.0994 90.3636C69.9782 90.3636 69.0161 89.9621 68.2131 89.1591C67.41 88.3561 67.0085 87.3939 67.0085 86.2727C67.0085 85.1515 67.41 84.1894 68.2131 83.3864C69.0161 82.5833 69.9782 82.1818 71.0994 82.1818C72.2206 82.1818 73.1828 82.5833 73.9858 83.3864C74.7888 84.1894 75.1903 85.1515 75.1903 86.2727C75.1903 87.0152 75.0009 87.697 74.6222 88.3182C74.2585 88.9394 73.7661 89.4394 73.1449 89.8182C72.5388 90.1818 71.857 90.3636 71.0994 90.3636Z" fill="white"/>
</svg>
