<svg width="136" height="164" viewBox="0 0 136 164" fill="none" xmlns="http://www.w3.org/2000/svg">
<circle cx="67" cy="94" r="29.25" stroke="white" stroke-width="3.5"/>
<path d="M67.9707 94.1475L69.249 110.271" stroke="white" stroke-width="3.5" stroke-linecap="round"/>
<path d="M68 94L60.2607 90.7024" stroke="white" stroke-width="3.5" stroke-linecap="round"/>
<path d="M79.1903 76.9091V76.6364C79.2206 73.7424 79.5237 71.4394 80.0994 69.7273C80.6752 68.0152 81.4934 66.6288 82.554 65.5682C83.6146 64.5076 84.8873 63.5303 86.3722 62.6364C87.2661 62.0909 88.0691 61.447 88.7812 60.7045C89.4934 59.947 90.054 59.0758 90.4631 58.0909C90.8873 57.1061 91.0994 56.0152 91.0994 54.8182C91.0994 53.3333 90.7509 52.0455 90.054 50.9545C89.357 49.8636 88.4252 49.0227 87.2585 48.4318C86.0919 47.8409 84.7964 47.5455 83.3722 47.5455C82.1297 47.5455 80.9328 47.803 79.7812 48.3182C78.6297 48.8333 77.6676 49.6439 76.8949 50.75C76.1222 51.8561 75.6752 53.303 75.554 55.0909H69.8267C69.9479 52.5152 70.6146 50.3106 71.8267 48.4773C73.054 46.6439 74.6676 45.2424 76.6676 44.2727C78.6828 43.303 80.9176 42.8182 83.3722 42.8182C86.0388 42.8182 88.357 43.3485 90.3267 44.4091C92.3116 45.4697 93.8419 46.9242 94.9176 48.7727C96.0085 50.6212 96.554 52.7273 96.554 55.0909C96.554 56.7576 96.2964 58.2652 95.7812 59.6136C95.2812 60.9621 94.554 62.1667 93.5994 63.2273C92.66 64.2879 91.5237 65.2273 90.1903 66.0455C88.857 66.8788 87.7888 67.7576 86.9858 68.6818C86.1828 69.5909 85.5994 70.6742 85.2358 71.9318C84.8722 73.1894 84.6752 74.7576 84.6449 76.6364V76.9091H79.1903ZM82.0994 90.3636C80.9782 90.3636 80.0161 89.9621 79.2131 89.1591C78.41 88.3561 78.0085 87.3939 78.0085 86.2727C78.0085 85.1515 78.41 84.1894 79.2131 83.3864C80.0161 82.5833 80.9782 82.1818 82.0994 82.1818C83.2206 82.1818 84.1828 82.5833 84.9858 83.3864C85.7888 84.1894 86.1903 85.1515 86.1903 86.2727C86.1903 87.0152 86.0009 87.697 85.6222 88.3182C85.2585 88.9394 84.7661 89.4394 84.1449 89.8182C83.5388 90.1818 82.857 90.3636 82.0994 90.3636Z" fill="white"/>
</svg>
