<svg width="136" height="164" viewBox="0 0 136 164" fill="none" xmlns="http://www.w3.org/2000/svg">
<path d="M39.2238 98.0926C40.5243 98.3177 42.6085 98.0926 42.6085 98.0926C45.3095 102.539 49.3166 112.771 53.1007 115.925C70.4142 128.925 67.7929 127.09 85.0224 115.925C89.3682 112.82 91.29 102.604 94.0569 98.0926C94.0569 98.0926 96.1425 98.3248 97.4417 98.0926C103.689 96.9765 107.04 87.1647 102.18 83.2634C100.641 82.0276 99.7033 80.83 97.4417 81.3291C98.867 73.2717 100.354 68.2619 97.4417 60.6971C94.0302 51.8361 88.9705 46.3141 79.841 42.6443C70.8291 39.0217 64.5753 39.0134 54.7937 43.2889C45.5405 48.4907 40.001 53.8997 37.8698 63.9209C36.5537 70.1099 37.5272 73.7303 39.2236 80.0392L39.2238 80.0396C36.4119 79.6075 35.3714 81.4126 33.8081 83.2634C29.7729 88.0409 32.8897 96.9966 39.2238 98.0926Z" stroke="white" stroke-width="3.5" stroke-linecap="round"/>
<path d="M64.1903 92.9091V92.6364C64.2206 89.7424 64.5237 87.4394 65.0994 85.7273C65.6752 84.0152 66.4934 82.6288 67.554 81.5682C68.6146 80.5076 69.8873 79.5303 71.3722 78.6364C72.2661 78.0909 73.0691 77.447 73.7812 76.7045C74.4934 75.947 75.054 75.0758 75.4631 74.0909C75.8873 73.1061 76.0994 72.0152 76.0994 70.8182C76.0994 69.3333 75.7509 68.0455 75.054 66.9545C74.357 65.8636 73.4252 65.0227 72.2585 64.4318C71.0919 63.8409 69.7964 63.5455 68.3722 63.5455C67.1297 63.5455 65.9328 63.803 64.7812 64.3182C63.6297 64.8333 62.6676 65.6439 61.8949 66.75C61.1222 67.8561 60.6752 69.303 60.554 71.0909H54.8267C54.9479 68.5152 55.6146 66.3106 56.8267 64.4773C58.054 62.6439 59.6676 61.2424 61.6676 60.2727C63.6828 59.303 65.9176 58.8182 68.3722 58.8182C71.0388 58.8182 73.357 59.3485 75.3267 60.4091C77.3116 61.4697 78.8419 62.9242 79.9176 64.7727C81.0085 66.6212 81.554 68.7273 81.554 71.0909C81.554 72.7576 81.2964 74.2652 80.7812 75.6136C80.2812 76.9621 79.554 78.1667 78.5994 79.2273C77.66 80.2879 76.5237 81.2273 75.1903 82.0455C73.857 82.8788 72.7888 83.7576 71.9858 84.6818C71.1828 85.5909 70.5994 86.6742 70.2358 87.9318C69.8722 89.1894 69.6752 90.7576 69.6449 92.6364V92.9091H64.1903ZM67.0994 106.364C65.9782 106.364 65.0161 105.962 64.2131 105.159C63.41 104.356 63.0085 103.394 63.0085 102.273C63.0085 101.152 63.41 100.189 64.2131 99.3864C65.0161 98.5833 65.9782 98.1818 67.0994 98.1818C68.2206 98.1818 69.1828 98.5833 69.9858 99.3864C70.7888 100.189 71.1903 101.152 71.1903 102.273C71.1903 103.015 71.0009 103.697 70.6222 104.318C70.2585 104.939 69.7661 105.439 69.1449 105.818C68.5388 106.182 67.857 106.364 67.0994 106.364Z" fill="white"/>
</svg>
