<svg width="136" height="164" viewBox="0 0 136 164" fill="none" xmlns="http://www.w3.org/2000/svg">
<circle cx="49.5846" cy="114.431" r="3.80385" stroke="white" stroke-width="3.5"/>
<circle cx="33.5077" cy="123.492" r="1.75769" stroke="white" stroke-width="3.5"/>
<mask id="path-3-inside-1_1353_627" fill="white">
<path d="M75.4805 38C92.3359 38 106 51.6641 106 68.5195V75.4805C106 92.3359 92.3359 106 75.4805 106H60.5195C43.6641 106 30 92.3359 30 75.4805V68.5195C30 51.6641 43.6641 38 60.5195 38H75.4805Z"/>
</mask>
<path d="M75.4805 38V41.5C90.4029 41.5 102.5 53.5971 102.5 68.5195H106H109.5C109.5 49.7311 94.2689 34.5 75.4805 34.5V38ZM106 68.5195H102.5V75.4805H106H109.5V68.5195H106ZM106 75.4805H102.5C102.5 90.4029 90.4029 102.5 75.4805 102.5V106V109.5C94.2689 109.5 109.5 94.2689 109.5 75.4805H106ZM75.4805 106V102.5H60.5195V106V109.5H75.4805V106ZM60.5195 106V102.5C45.5971 102.5 33.5 90.4029 33.5 75.4805H30H26.5C26.5 94.2689 41.7311 109.5 60.5195 109.5V106ZM30 75.4805H33.5V68.5195H30H26.5V75.4805H30ZM30 68.5195H33.5C33.5 53.5971 45.5971 41.5 60.5195 41.5V38V34.5C41.7311 34.5 26.5 49.7311 26.5 68.5195H30ZM60.5195 38V41.5H75.4805V38V34.5H60.5195V38Z" fill="white" mask="url(#path-3-inside-1_1353_627)"/>
<path d="M65.3694 78.0094V77.843C65.3879 76.0765 65.5729 74.6708 65.9243 73.6257C66.2758 72.5807 66.7752 71.7345 67.4226 71.0871C68.0699 70.4397 68.8468 69.8432 69.7531 69.2975C70.2988 68.9646 70.7889 68.5715 71.2236 68.1184C71.6583 67.6559 72.0005 67.1242 72.2502 66.523C72.5091 65.9219 72.6386 65.256 72.6386 64.5254C72.6386 63.619 72.4259 62.8329 72.0005 62.1671C71.5751 61.5012 71.0063 60.9879 70.2942 60.6272C69.582 60.2665 68.7913 60.0862 67.922 60.0862C67.1636 60.0862 66.433 60.2434 65.7301 60.5579C65.0272 60.8723 64.44 61.3671 63.9683 62.0422C63.4966 62.7173 63.2238 63.6006 63.1498 64.6919H59.654C59.7279 63.1196 60.1349 61.774 60.8747 60.655C61.6239 59.5359 62.6088 58.6804 63.8296 58.0885C65.0596 57.4967 66.4237 57.2007 67.922 57.2007C69.5497 57.2007 70.9647 57.5244 72.1669 58.1718C73.3785 58.8192 74.3126 59.707 74.9692 60.8353C75.6351 61.9636 75.968 63.2491 75.968 64.6919C75.968 65.7092 75.8108 66.6294 75.4963 67.4525C75.1912 68.2756 74.7472 69.0108 74.1646 69.6582C73.5912 70.3056 72.8976 70.879 72.0837 71.3784C71.2699 71.8871 70.6179 72.4235 70.1277 72.9876C69.6375 73.5425 69.2815 74.2038 69.0595 74.9714C68.8376 75.739 68.7173 76.6962 68.6988 77.843V78.0094H65.3694ZM67.1451 86.222C66.4607 86.222 65.8735 85.9769 65.3833 85.4867C64.8931 84.9966 64.6481 84.4093 64.6481 83.7249C64.6481 83.0405 64.8931 82.4533 65.3833 81.9631C65.8735 81.4729 66.4607 81.2279 67.1451 81.2279C67.8295 81.2279 68.4168 81.4729 68.9069 81.9631C69.3971 82.4533 69.6422 83.0405 69.6422 83.7249C69.6422 84.1781 69.5266 84.5943 69.2953 84.9734C69.0734 85.3526 68.7728 85.6578 68.3936 85.889C68.0237 86.111 67.6075 86.222 67.1451 86.222Z" fill="white"/>
</svg>
