<svg width="136" height="164" viewBox="0 0 136 164" fill="none" xmlns="http://www.w3.org/2000/svg">
<path d="M95 71.5H40C38.3431 71.5 37 72.8431 37 74.5V119C37 120.657 38.3431 122 40 122H95C96.6569 122 98 120.657 98 119V74.5C98 72.8431 96.6569 71.5 95 71.5Z" stroke="white" stroke-width="3.5"/>
<path d="M95 65H40C38.3431 65 37 63.6569 37 62V56C37 54.3431 38.3431 53 40 53H95C96.6569 53 98 54.3431 98 56V62C98 63.6569 96.6569 65 95 65Z" stroke="white" stroke-width="3.5"/>
<rect x="47" y="42" width="8" height="17" rx="4" fill="white"/>
<rect x="80" y="42" width="8" height="17" rx="4" fill="white"/>
<path d="M85.7998 96.5L53.7998 96.5" stroke="white" stroke-width="3.5" stroke-linecap="round"/>
<path d="M51.3292 95.6559C50.7107 96.0487 50.7107 96.9513 51.3292 97.3442L55.9639 100.288C56.6297 100.71 57.5 100.232 57.5 99.4434V93.5566C57.5 92.7679 56.6297 92.2896 55.9639 92.7124L51.3292 95.6559Z" fill="white"/>
</svg>
