<svg width="136" height="164" viewBox="0 0 136 164" fill="none" xmlns="http://www.w3.org/2000/svg">
<path d="M70 39.75C79.4434 39.75 87.25 47.8351 87.25 58C87.25 68.1649 79.4434 76.25 70 76.25C60.5566 76.25 52.75 68.1649 52.75 58C52.75 47.8351 60.5566 39.75 70 39.75Z" stroke="white" stroke-width="3.5"/>
<path d="M62.8136 75C62.8228 75.5619 62.6063 78.6435 62.5287 79.9391C62.4228 81.7059 53.2062 80.2603 51.9913 80.1621C49.6174 79.97 47.7159 80.3144 46.187 80.7748C43.538 81.5726 42.304 82.5871 41.5776 83.121C35.8906 87.3006 33.3709 97.9418 32.5199 104.89C32.2121 107.403 32.0092 111.306 32.0001 113.405C31.9717 119.897 41.9256 122.964 47.1905 124.117C51.4222 125.045 53.5949 124.827 55.7543 124.827C58.9995 124.827 61.324 125.683 63.5092 123.5C65.7115 121.3 64.9761 117.877 65.4507 116.628C66.2494 114.525 77.9995 117.533 79.4995 113.405C82.1209 106.192 64.1886 109.108 63.5092 108.334C55.7543 99.5 44.3883 114.016 42.2643 107.251" stroke="white" stroke-width="3.5" stroke-linecap="round"/>
<path d="M73.4543 76C73.4543 77.171 72.4886 79.5511 73.0852 80.5353C73.2711 80.8419 73.8016 80.8987 74.3079 80.9378C74.9606 80.9883 77.7981 80.6031 82.8082 80.0033C93.2691 78.7509 99.4803 80.9139 100.285 91.4281C100.678 96.561 101.081 105.62 101.296 110.363C101.494 114.729 102.238 118.715 102.796 123.01C102.862 123.638 102.879 124.124 102.999 125" stroke="white" stroke-width="3.5" stroke-linecap="round"/>
</svg>
